  0
SECTION
  2
HEADER
  9
$ACADVER
  1
AC1009
  9
$INSBASE
 10
0.0
 20
0.0
 30
0.0
  9
$EXTMIN
 10
670.0911853074942428
 20
34.0
 30
-1.0000005518271491
  9
$EXTMAX
 10
971.4999999999998863
 20
250.2937006594274862
 30
0.0000000029117559
  9
$LIMMIN
 10
0.0
 20
0.0
  9
$LIMMAX
 10
12.0
 20
9.0
  9
$ORTHOMODE
 70
     0
  9
$REGENMODE
 70
     1
  9
$FILLMODE
 70
     1
  9
$QTEXTMODE
 70
     0
  9
$MIRRTEXT
 70
     1
  9
$DRAGMODE
 70
     2
  9
$LTSCALE
 40
1.0
  9
$OSMODE
 70
   423
  9
$ATTMODE
 70
     1
  9
$TEXTSIZE
 40
0.2
  9
$TRACEWID
 40
0.05
  9
$TEXTSTYLE
  7
STANDARD
  9
$CLAYER
  8
0
  9
$CELTYPE
  6
BYBLOCK
  9
$CECOLOR
 62
    18
  9
$DIMSCALE
 40
1.0
  9
$DIMASZ
 40
0.18
  9
$DIMEXO
 40
0.0625
  9
$DIMDLI
 40
0.38
  9
$DIMRND
 40
0.0
  9
$DIMDLE
 40
0.0
  9
$DIMEXE
 40
0.18
  9
$DIMTP
 40
0.0
  9
$DIMTM
 40
0.0
  9
$DIMTXT
 40
6.0
  9
$DIMCEN
 40
0.09
  9
$DIMTSZ
 40
0.0
  9
$DIMTOL
 70
     0
  9
$DIMLIM
 70
     0
  9
$DIMTIH
 70
     1
  9
$DIMTOH
 70
     1
  9
$DIMSE1
 70
     0
  9
$DIMSE2
 70
     0
  9
$DIMTAD
 70
     0
  9
$DIMZIN
 70
     0
  9
$DIMBLK
  1

  9
$DIMASO
 70
     1
  9
$DIMSHO
 70
     1
  9
$DIMPOST
  1

  9
$DIMAPOST
  1

  9
$DIMALT
 70
     0
  9
$DIMALTD
 70
     2
  9
$DIMALTF
 40
25.3999999999999986
  9
$DIMLFAC
 40
1.0
  9
$DIMTOFL
 70
     0
  9
$DIMTVP
 40
0.0
  9
$DIMTIX
 70
     0
  9
$DIMSOXD
 70
     0
  9
$DIMSAH
 70
     0
  9
$DIMBLK1
  1

  9
$DIMBLK2
  1

  9
$DIMSTYLE
  2
STANDARD
  9
$DIMCLRD
 70
     0
  9
$DIMCLRE
 70
     0
  9
$DIMCLRT
 70
     0
  9
$DIMTFAC
 40
1.0
  9
$DIMGAP
 40
0.09
  9
$LUNITS
 70
     2
  9
$LUPREC
 70
     4
  9
$SKETCHINC
 40
0.1
  9
$FILLETRAD
 40
0.5
  9
$AUNITS
 70
     0
  9
$AUPREC
 70
     0
  9
$MENU
  1
.
  9
$ELEVATION
 40
0.0
  9
$PELEVATION
 40
0.0
  9
$THICKNESS
 40
0.0
  9
$LIMCHECK
 70
     0
  9
$BLIPMODE
 70
     0
  9
$CHAMFERA
 40
0.0
  9
$CHAMFERB
 40
0.0
  9
$SKPOLY
 70
     0
  9
$TDCREATE
 40
2458475.4309837971813977
  9
$TDUPDATE
 40
2460067.7381018521264195
  9
$TDINDWG
 40
0.736383044
  9
$TDUSRTIMER
 40
2458615.1068121180869639
  9
$USRTIMER
 70
     1
  9
$ANGBASE
 50
0.0
  9
$ANGDIR
 70
     0
  9
$PDMODE
 70
     0
  9
$PDSIZE
 40
0.0
  9
$PLINEWID
 40
0.0
  9
$COORDS
 70
     1
  9
$SPLFRAME
 70
     0
  9
$SPLINETYPE
 70
     6
  9
$SPLINESEGS
 70
     8
  9
$ATTDIA
 70
     1
  9
$ATTREQ
 70
     1
  9
$HANDLING
 70
     1
  9
$HANDSEED
  5
165D4
  9
$SURFTAB1
 70
     6
  9
$SURFTAB2
 70
     6
  9
$SURFTYPE
 70
     6
  9
$SURFU
 70
     6
  9
$SURFV
 70
     6
  9
$UCSNAME
  2

  9
$UCSORG
 10
0.0
 20
0.0
 30
0.0
  9
$UCSXDIR
 10
1.0
 20
0.0
 30
0.0
  9
$UCSYDIR
 10
0.0
 20
1.0
 30
0.0
  9
$PUCSNAME
  2

  9
$PUCSORG
 10
0.0
 20
0.0
 30
0.0
  9
$PUCSXDIR
 10
1.0
 20
0.0
 30
0.0
  9
$PUCSYDIR
 10
0.0
 20
1.0
 30
0.0
  9
$USERI1
 70
     0
  9
$USERI2
 70
     0
  9
$USERI3
 70
     0
  9
$USERI4
 70
     0
  9
$USERI5
 70
     0
  9
$USERR1
 40
0.0
  9
$USERR2
 40
0.0
  9
$USERR3
 40
0.0
  9
$USERR4
 40
0.0
  9
$USERR5
 40
0.0
  9
$WORLDVIEW
 70
     1
  9
$SHADEDGE
 70
     3
  9
$SHADEDIF
 70
    70
  9
$TILEMODE
 70
     1
  9
$MAXACTVP
 70
    64
  9
$PLIMCHECK
 70
     0
  9
$PEXTMIN
 10
1.0000000000000000E+20
 20
1.0000000000000000E+20
 30
1.0000000000000000E+20
  9
$PEXTMAX
 10
-1.0000000000000000E+20
 20
-1.0000000000000000E+20
 30
-1.0000000000000000E+20
  9
$PLIMMIN
 10
0.0
 20
0.0
  9
$PLIMMAX
 10
0.0
 20
0.0
  9
$UNITMODE
 70
     0
  9
$VISRETAIN
 70
     1
  9
$PLINEGEN
 70
     0
  9
$PSLTSCALE
 70
     1
  0
ENDSEC
  0
SECTION
  2
TABLES
  0
TABLE
  2
VPORT
 70
     1
  0
VPORT
  2
*ACTIVE
 70
     0
 10
0.0
 20
0.0
 11
1.0
 21
1.0
 12
867.8043779016522876
 22
91.9639657445732865
 13
0.0
 23
0.0
 14
0.5
 24
0.5
 15
0.5
 25
0.5
 16
0.0
 26
0.0
 36
1.0
 17
0.0
 27
0.0
 37
0.0
 40
264.450550901328711
 41
2.4946308724832211
 42
50.0
 43
0.0
 44
0.0
 50
0.0
 51
0.0
 71
     0
 72
   100
 73
     1
 74
     3
 75
     1
 76
     0
 77
     0
 78
     0
  0
ENDTAB
  0
TABLE
  2
LTYPE
 70
     2
  0
LTYPE
  2
CONTINUOUS
 70
     0
  3
Solid line
 72
    65
 73
     0
 40
0.0
  0
ENDTAB
  0
TABLE
  2
LAYER
 70
    17
  0
LAYER
  2
0
 70
     0
 62
     7
  6
CONTINUOUS
  0
LAYER
  2
GROUP_3
 70
     0
 62
     7
  6
CONTINUOUS
  0
LAYER
  2
CUT
 70
     0
 62
     7
  6
CONTINUOUS
  0
LAYER
  2
20
 70
     0
 62
   178
  6
CONTINUOUS
  0
LAYER
  2
DEFPOINTS
 70
     0
 62
     7
  6
CONTINUOUS
  0
LAYER
  2
INCISIONE
 70
     0
 62
     5
  6
CONTINUOUS
  0
LAYER
  2
LAYER0
 70
     0
 62
     7
  6
CONTINUOUS
  0
LAYER
  2
GROUP_88
 70
     0
 62
     7
  6
CONTINUOUS
  0
LAYER
  2
MOTOR_BRACKET_SIDE
 70
     0
 62
     7
  6
CONTINUOUS
  0
LAYER
  2
GROUP_173
 70
     0
 62
     7
  6
CONTINUOUS
  0
LAYER
  2
GROUP_54
 70
     0
 62
     7
  6
CONTINUOUS
  0
LAYER
  2
BUMPED
 70
     0
 62
     4
  6
CONTINUOUS
  0
LAYER
  2
BOARD
 70
     0
 62
   254
  6
CONTINUOUS
  0
LAYER
  2
TOP_COMPONENTS
 70
     0
 62
   111
  6
CONTINUOUS
  0
LAYER
  2
BOTTOM_PINS
 70
     0
 62
     5
  6
CONTINUOUS
  0
LAYER
  2
41
 70
     0
 62
    12
  6
CONTINUOUS
  0
LAYER
  2
42
 70
     0
 62
   132
  6
CONTINUOUS
  0
ENDTAB
  0
TABLE
  2
STYLE
 70
     2
  0
STYLE
  2
STANDARD
 70
     0
 40
0.0
 41
1.0
 50
0.0
 71
     0
 42
0.2
  3
txt
  4

  0
STYLE
  2
ANNOTATIVE
 70
     0
 40
0.0
 41
1.0
 50
0.0
 71
     0
 42
0.2
  3
txt
  4

  0
ENDTAB
  0
TABLE
  2
VIEW
 70
     0
  0
ENDTAB
  0
TABLE
  2
UCS
 70
     0
  0
ENDTAB
  0
TABLE
  2
APPID
 70
    10
  0
APPID
  2
ACAD
 70
     0
  0
APPID
  2
ACADANNOTATIVE
 70
     0
  0
APPID
  2
ACAD_DSTYLE_DIMRADIAL_EXTE
 70
     0
  0
APPID
  2
ACAD_NAV_VCDISPLAY
 70
     0
  0
APPID
  2
ACAD_MLEADERVER
 70
     0
  0
APPID
  2
ACAD_EXEMPT_FROM_CAD_STANDARDS
 70
     0
  0
APPID
  2
ACAUTHENVIRON
 70
     0
  0
APPID
  2
ACDBDYNAMICBLOCKTRUENAME
 70
     0
  0
APPID
  2
ACDBDYNAMICBLOCKGUID
 70
     0
  0
APPID
  2
ACAD_TC
 70
     0
  0
ENDTAB
  0
TABLE
  2
DIMSTYLE
 70
     4
  0
DIMSTYLE
  2
STANDARD
 70
     0
  3

  4

  5

  6

  7

 40
1.0
 41
0.18
 42
0.0625
 43
0.38
 44
0.18
 45
0.0
 46
0.0
 47
0.0
 48
0.0
140
0.18
141
0.09
142
0.0
143
25.3999999999999986
144
1.0
145
0.0
146
1.0
147
0.09
 71
     0
 72
     0
 73
     1
 74
     1
 75
     0
 76
     0
 77
     0
 78
     0
170
     0
171
     2
172
     0
173
     0
174
     0
175
     0
176
     0
177
     0
178
     0
  0
DIMSTYLE
  2
ANNOTATIVE
 70
     0
  3

  4

  5

  6

  7

 40
1.0
 41
0.18
 42
0.0625
 43
0.38
 44
0.18
 45
0.0
 46
0.0
 47
0.0
 48
0.0
140
0.18
141
0.09
142
0.0
143
25.3999999999999986
144
1.0
145
0.0
146
1.0
147
0.09
 71
     0
 72
     0
 73
     1
 74
     1
 75
     0
 76
     0
 77
     0
 78
     0
170
     0
171
     2
172
     0
173
     0
174
     0
175
     0
176
     0
177
     0
178
     0
  0
DIMSTYLE
  2
ISO-25
 70
     0
  3

  4

  5

  6

  7

 40
1.0
 41
2.5
 42
0.625
 43
3.75
 44
1.25
 45
0.0
 46
0.0
 47
0.0
 48
0.0
140
2.5
141
2.5
142
0.0
143
0.0393700787
144
1.0
145
0.0
146
1.0
147
0.625
 71
     0
 72
     0
 73
     0
 74
     0
 75
     0
 76
     0
 77
     1
 78
     8
170
     0
171
     3
172
     1
173
     0
174
     0
175
     0
176
     0
177
     0
178
     0
  0
ENDTAB
  0
ENDSEC
  0
SECTION
  2
BLOCKS
  0
BLOCK
  8
0
  2
$MODEL_SPACE
 70
     0
 10
0.0
 20
0.0
 30
0.0
  3
$MODEL_SPACE
  1

  0
ENDBLK
  5
14ED0
  8
0
  0
BLOCK
 67
     1
  8
0
  2
$PAPER_SPACE
 70
     0
 10
0.0
 20
0.0
 30
0.0
  3
$PAPER_SPACE
  1

  0
ENDBLK
  5
14ECC
 67
     1
  8
0
  0
BLOCK
  8
0
  2
A$C18413
 70
     0
 10
0.0
 20
0.0
 30
0.0
  3
A$C18413
  1

  0
POLYLINE
  5
22D1
  8
0
  6
BYBLOCK
 66
     1
 10
0.0
 20
0.0
 30
0.0
 70
     1
  0
VERTEX
  5
161D1
  8
0
  6
BYBLOCK
 10
45.1721826062560723
 20
20.5651965638128296
 30
0.0
 42
1.0000000000000251
  0
VERTEX
  5
161D2
  8
0
  6
BYBLOCK
 10
0.0238802151966411
 20
20.5651965638107903
 30
0.0
  0
VERTEX
  5
161D3
  8
0
  6
BYBLOCK
 10
0.0
 20
2.286472584408783
 30
0.0
 42
0.0620011105146903
  0
VERTEX
  5
161D4
  8
0
  6
BYBLOCK
 10
17.3731622360326696
 20
0.0000557159769414
 30
0.0
  0
VERTEX
  5
161D5
  8
0
  6
BYBLOCK
 10
27.8340072683099002
 20
0.0
 30
0.0
 42
0.0610513235426508
  0
VERTEX
  5
161D6
  8
0
  6
BYBLOCK
 10
44.9506609562672068
 20
2.224020278407123
 30
0.0
  0
VERTEX
  5
161D7
  8
0
  6
BYBLOCK
 10
45.1655976019628085
 20
20.0199824748547215
 30
0.0
  0
SEQEND
  5
161D8
  8
0
  6
BYBLOCK
  0
POLYLINE
  5
22D2
  8
0
  6
BYBLOCK
 66
     1
 10
0.0
 20
0.0
 30
0.0
 70
     1
  0
VERTEX
  5
161D9
  8
0
  6
BYBLOCK
 10
5.898198410726307
 20
20.5651965638123784
 30
0.0
 42
-0.9999999999999667
  0
VERTEX
  5
161DA
  8
0
  6
BYBLOCK
 10
9.2981644107263701
 20
20.5651965638123784
 30
0.0
 42
-0.9999999999999667
  0
SEQEND
  5
161DB
  8
0
  6
BYBLOCK
  0
POLYLINE
  5
22D3
  8
0
  6
BYBLOCK
 66
     1
 10
0.0
 20
0.0
 30
0.0
 70
     1
  0
VERTEX
  5
161DC
  8
0
  6
BYBLOCK
 10
10.5980314107263798
 20
20.5651965638123784
 30
0.0
 42
-0.9999999999999998
  0
VERTEX
  5
161DD
  8
0
  6
BYBLOCK
 10
34.598031410726378
 20
20.5651965638123784
 30
0.0
 42
-0.9999999999999998
  0
SEQEND
  5
161DE
  8
0
  6
BYBLOCK
  0
POLYLINE
  5
22D4
  8
0
  6
BYBLOCK
 66
     1
 10
0.0
 20
0.0
 30
0.0
 70
     1
  0
VERTEX
  5
161DF
  8
0
  6
BYBLOCK
 10
35.8978984106596499
 20
20.5651965638123784
 30
0.0
 42
-0.9999999999999667
  0
VERTEX
  5
161E0
  8
0
  6
BYBLOCK
 10
39.297864410659713
 20
20.5651965638123784
 30
0.0
 42
-0.9999999999999667
  0
SEQEND
  5
161E1
  8
0
  6
BYBLOCK
  0
ENDBLK
  5
22D6
  8
0
  0
BLOCK
  8
0
  2
BOTTOM_PLATE
 70
     0
 10
0.0
 20
0.0
 30
0.0
  3
BOTTOM_PLATE
  1

  0
POLYLINE
  5
13C93
  8
0
  6
BYBLOCK
 62
     1
 66
     1
 10
0.0
 20
0.0
 30
0.0
 70
     1
  0
VERTEX
  5
1630C
  8
0
  6
BYBLOCK
 62
     1
 10
-223.8452166938820085
 20
475.5849530113342212
 30
0.0
 42
-1.0
  0
VERTEX
  5
1630D
  8
0
  6
BYBLOCK
 62
     1
 10
-221.8452167377689932
 20
475.5853719950716254
 30
0.0
 42
-1.0
  0
SEQEND
  5
1630E
  8
0
  6
BYBLOCK
 62
     1
  0
CIRCLE
  5
13C94
  8
0
  6
BYBLOCK
 62
     1
 10
-257.6888175383184034
 20
406.8840322054866192
 30
0.0
 40
1.550000000000068
  0
POLYLINE
  5
13C95
  8
0
  6
BYBLOCK
 62
     1
 66
     1
 10
0.0
 20
0.0
 30
0.0
 70
     1
  0
VERTEX
  5
1630F
  8
0
  6
BYBLOCK
 62
     1
 10
-189.4688459396934093
 20
420.4698855340756154
 30
0.0
 42
0.3235436021500912
  0
VERTEX
  5
16310
  8
0
  6
BYBLOCK
 62
     1
 10
-189.4727726197174889
 20
439.2144825341429168
 30
0.0
  0
VERTEX
  5
16311
  8
0
  6
BYBLOCK
 62
     1
 10
-215.4080774823736988
 20
439.2090495222374216
 30
0.0
 42
0.323543601895931
  0
VERTEX
  5
16312
  8
0
  6
BYBLOCK
 62
     1
 10
-215.404150803310614
 20
420.4644525341046233
 30
0.0
  0
SEQEND
  5
16313
  8
0
  6
BYBLOCK
 62
     1
  0
CIRCLE
  5
13C96
  8
0
  6
BYBLOCK
 62
     1
 10
-147.1620054000376001
 20
441.5840322054867784
 30
-0.000000157116653
 40
1.55000000000001
  0
CIRCLE
  5
13C97
  8
0
  6
BYBLOCK
 62
     1
 10
-147.1620054000376001
 20
406.8840322054866192
 30
0.0
 40
1.550000000000068
  0
CIRCLE
  5
13C98
  8
0
  6
BYBLOCK
 62
     1
 10
-245.8840581417620115
 20
473.2117416137754731
 30
0.0
 40
1.3
  0
CIRCLE
  5
13C99
  8
0
  6
BYBLOCK
 62
     1
 10
-257.6888175383184034
 20
441.5840322054867784
 30
-0.000000157116653
 40
1.55000000000001
  0
CIRCLE
  5
13C9A
  8
0
  6
BYBLOCK
 62
     1
 10
-141.7942506504026028
 20
370.2202898823649093
 30
0.0
 40
2.1000000000000001
  0
POLYLINE
  5
13C9B
  8
0
  6
BYBLOCK
 62
     1
 66
     1
 10
0.0
 20
0.0
 30
0.0
 70
     1
  0
VERTEX
  5
16314
  8
0
  6
BYBLOCK
 62
     1
 10
-219.1256087158251091
 20
382.7842675032031821
 30
0.0
 42
-0.9999999999999667
  0
VERTEX
  5
16315
  8
0
  6
BYBLOCK
 62
     1
 10
-215.7256427158249039
 20
382.7842675032031821
 30
0.0
 42
-0.9999999999999667
  0
SEQEND
  5
16316
  8
0
  6
BYBLOCK
 62
     1
  0
POLYLINE
  5
13C9C
  8
0
  6
BYBLOCK
 62
     1
 66
     1
 10
0.0
 20
0.0
 30
0.0
 70
     1
  0
VERTEX
  5
16317
  8
0
  6
BYBLOCK
 62
     1
 10
-184.4231705448501089
 20
324.2471011019077878
 30
0.0
  0
VERTEX
  5
16318
  8
0
  6
BYBLOCK
 62
     1
 10
-184.4231705448501089
 20
327.2471011019077878
 30
0.0
  0
VERTEX
  5
16319
  8
0
  6
BYBLOCK
 62
     1
 10
-174.4231674862776913
 20
327.2471011019077878
 30
0.0
  0
VERTEX
  5
1631A
  8
0
  6
BYBLOCK
 62
     1
 10
-174.4231674862776913
 20
324.2471112971671232
 30
0.0
  0
SEQEND
  5
1631B
  8
0
  6
BYBLOCK
 62
     1
  0
POLYLINE
  5
13C9D
  8
0
  6
BYBLOCK
 62
     1
 66
     1
 10
0.0
 20
0.0
 30
0.0
 70
     1
  0
VERTEX
  5
1631C
  8
0
  6
BYBLOCK
 62
     1
 10
-220.4231644277055864
 20
324.2471011019077878
 30
0.0
  0
VERTEX
  5
1631D
  8
0
  6
BYBLOCK
 62
     1
 10
-220.4231644277055864
 20
327.2471011019077878
 30
0.0
  0
VERTEX
  5
1631E
  8
0
  6
BYBLOCK
 62
     1
 10
-230.4231674862776913
 20
327.2471011019077878
 30
0.0
  0
VERTEX
  5
1631F
  8
0
  6
BYBLOCK
 62
     1
 10
-230.4231674862776913
 20
324.2471112971671232
 30
0.0
  0
SEQEND
  5
16320
  8
0
  6
BYBLOCK
 62
     1
  0
POLYLINE
  5
13C9E
  8
0
  6
BYBLOCK
 62
     1
 66
     1
 10
0.0
 20
0.0
 30
0.0
 70
     1
  0
VERTEX
  5
16321
  8
0
  6
BYBLOCK
 62
     1
 10
-203.9254114362630901
 20
492.5916384726796196
 30
0.0
 42
-1.0000000000000091
  0
VERTEX
  5
16322
  8
0
  6
BYBLOCK
 62
     1
 10
-200.9254115020929135
 20
492.5922669482852143
 30
0.0
 42
-0.9999999999999905
  0
SEQEND
  5
16323
  8
0
  6
BYBLOCK
 62
     1
  0
CIRCLE
  5
13C9F
  8
0
  6
BYBLOCK
 62
     1
 10
-245.6888175383184034
 20
406.8840322054866192
 30
0.0
 40
1.550000000000034
  0
CIRCLE
  5
13CA0
  8
0
  6
BYBLOCK
 62
     1
 10
-202.4229803390728932
 20
320.0469191880550852
 30
0.0
 40
12.0
  0
CIRCLE
  5
13CA1
  8
0
  6
BYBLOCK
 62
     1
 10
-159.1620054000376001
 20
406.8840322054866192
 30
0.0
 40
1.550000000000034
  0
CIRCLE
  5
13CA2
  8
0
  6
BYBLOCK
 62
     1
 10
-245.6888175383184034
 20
441.5840322054867784
 30
-0.000000157116653
 40
1.55000000000001
  0
CIRCLE
  5
13CA3
  8
0
  6
BYBLOCK
 62
     1
 10
-187.4231303391395898
 20
320.0469191880550852
 30
0.0
 40
1.699983000000002
  0
POLYLINE
  5
13CA4
  8
0
  6
BYBLOCK
 62
     1
 66
     1
 10
0.0
 20
0.0
 30
0.0
 70
     1
  0
VERTEX
  5
16324
  8
0
  6
BYBLOCK
 62
     1
 10
-189.1259087158917112
 20
382.7842675032031821
 30
0.0
 42
-0.9999999999999667
  0
VERTEX
  5
16325
  8
0
  6
BYBLOCK
 62
     1
 10
-185.7259427158917049
 20
382.7842675032031821
 30
0.0
 42
-0.9999999999999667
  0
SEQEND
  5
16326
  8
0
  6
BYBLOCK
 62
     1
  0
POLYLINE
  5
13CA5
  8
0
  6
BYBLOCK
 62
     1
 66
     1
 10
0.0
 20
0.0
 30
0.0
 70
     1
  0
VERTEX
  5
16327
  8
0
  6
BYBLOCK
 62
     1
 10
-183.0352167158260102
 20
475.5851625032029233
 30
0.0
 42
-0.9999999999999998
  0
VERTEX
  5
16328
  8
0
  6
BYBLOCK
 62
     1
 10
-181.0352167158260102
 20
475.5851625032029233
 30
0.0
 42
-0.9999999999999998
  0
SEQEND
  5
16329
  8
0
  6
BYBLOCK
 62
     1
  0
POLYLINE
  5
13CA6
  8
0
  6
BYBLOCK
 62
     1
 66
     1
 10
0.0
 20
0.0
 30
0.0
 70
     1
  0
VERTEX
  5
1632A
  8
0
  6
BYBLOCK
 62
     1
 10
-214.4257757158250968
 20
382.7842675032031821
 30
0.0
 42
-0.9999999999999998
  0
VERTEX
  5
1632B
  8
0
  6
BYBLOCK
 62
     1
 10
-190.4257757158250115
 20
382.7842675032031821
 30
0.0
 42
-0.9999999999999998
  0
SEQEND
  5
1632C
  8
0
  6
BYBLOCK
 62
     1
  0
CIRCLE
  5
13CA7
  8
0
  6
BYBLOCK
 62
     1
 10
-213.6404250510454972
 20
454.2314820724375863
 30
0.0
 40
1.55000000000001
  0
CIRCLE
  5
13CA8
  8
0
  6
BYBLOCK
 62
     1
 10
-262.8057147434848844
 20
370.2202898823649093
 30
0.0
 40
2.1000000000000001
  0
POLYLINE
  5
13CA9
  8
0
  6
BYBLOCK
 62
     1
 66
     1
 10
0.0
 20
0.0
 30
0.0
 70
     1
  0
VERTEX
  5
1632D
  8
0
  6
BYBLOCK
 62
     1
 10
-208.925216715825087
 20
478.800483503203111
 30
0.0
  0
VERTEX
  5
1632E
  8
0
  6
BYBLOCK
 62
     1
 10
-208.925216715825087
 20
478.800483503203111
 30
0.0
  0
VERTEX
  5
1632F
  8
0
  6
BYBLOCK
 62
     1
 10
-208.925216715825087
 20
479.4751625032029096
 30
0.0
  0
VERTEX
  5
16330
  8
0
  6
BYBLOCK
 62
     1
 10
-195.925216715825087
 20
479.4751625032029096
 30
0.0
  0
VERTEX
  5
16331
  8
0
  6
BYBLOCK
 62
     1
 10
-195.925216715825087
 20
478.800483503203111
 30
0.0
  0
VERTEX
  5
16332
  8
0
  6
BYBLOCK
 62
     1
 10
-195.925216715825087
 20
478.800483503203111
 30
0.0
  0
VERTEX
  5
16333
  8
0
  6
BYBLOCK
 62
     1
 10
-195.925216715825087
 20
474.8004835032028836
 30
0.0
  0
VERTEX
  5
16334
  8
0
  6
BYBLOCK
 62
     1
 10
-195.925216715825087
 20
474.8004835032028836
 30
0.0
  0
VERTEX
  5
16335
  8
0
  6
BYBLOCK
 62
     1
 10
-195.925216715825087
 20
471.8751625032027732
 30
0.0
  0
VERTEX
  5
16336
  8
0
  6
BYBLOCK
 62
     1
 10
-208.925216715825087
 20
471.8751625032027732
 30
0.0
  0
VERTEX
  5
16337
  8
0
  6
BYBLOCK
 62
     1
 10
-208.925216715825087
 20
474.8004835032028836
 30
0.0
  0
VERTEX
  5
16338
  8
0
  6
BYBLOCK
 62
     1
 10
-208.925216715825087
 20
474.8004835032028836
 30
0.0
  0
SEQEND
  5
16339
  8
0
  6
BYBLOCK
 62
     1
  0
CIRCLE
  5
13CAA
  8
0
  6
BYBLOCK
 62
     1
 10
-202.4257757158250968
 20
382.7842675032031821
 30
0.0
 40
19.0
  0
POLYLINE
  5
13CAB
  8
0
  6
BYBLOCK
 62
     5
 66
     1
 10
0.0
 20
0.0
 30
0.0
 70
     1
  0
VERTEX
  5
1633A
  8
0
  6
BYBLOCK
 62
     5
 10
-138.4120054000383959
 20
393.384032205487074
 30
0.0
  0
VERTEX
  5
1633B
  8
0
  6
BYBLOCK
 62
     5
 10
-138.4120054000376001
 20
409.9840322054868125
 30
0.0
  0
VERTEX
  5
1633C
  8
0
  6
BYBLOCK
 62
     5
 10
-138.4120054000376001
 20
438.4840322054868125
 30
0.0
  0
VERTEX
  5
1633D
  8
0
  6
BYBLOCK
 62
     5
 10
-138.4120054000383959
 20
455.0840322054871194
 30
0.0
  0
VERTEX
  5
1633E
  8
0
  6
BYBLOCK
 62
     5
 10
-138.4017479844769127
 20
455.3842988242911929
 30
0.0
  0
VERTEX
  5
1633F
  8
0
  6
BYBLOCK
 62
     5
 10
-138.3710235625983103
 20
455.6831654615103844
 30
0.0
  0
VERTEX
  5
16340
  8
0
  6
BYBLOCK
 62
     5
 10
-138.3199753858405927
 20
455.9792386629187035
 30
0.0
  0
VERTEX
  5
16341
  8
0
  6
BYBLOCK
 62
     5
 10
-138.2488414643686099
 20
456.2711379985777853
 30
0.0
  0
VERTEX
  5
16342
  8
0
  6
BYBLOCK
 62
     5
 10
-138.1579534573612875
 20
456.5575024990391171
 30
0.0
  0
VERTEX
  5
16343
  8
0
  6
BYBLOCK
 62
     5
 10
-138.0477351266623884
 20
456.8369970008104133
 30
0.0
  0
VERTEX
  5
16344
  8
0
  6
BYBLOCK
 62
     5
 10
-137.918700361008888
 20
457.1083183715039127
 30
0.0
  0
VERTEX
  5
16345
  8
0
  6
BYBLOCK
 62
     5
 10
-137.7714507800430113
 20
457.3702015856428034
 30
0.0
  0
VERTEX
  5
16346
  8
0
  6
BYBLOCK
 62
     5
 10
-137.6066729292844002
 20
457.6214256227918895
 30
0.0
  0
VERTEX
  5
16347
  8
0
  6
BYBLOCK
 62
     5
 10
-137.4251350791377888
 20
457.860819160521487
 30
0.0
  0
VERTEX
  5
16348
  8
0
  6
BYBLOCK
 62
     5
 10
-137.2276836428621891
 20
458.0872660356491224
 30
0.0
  0
VERTEX
  5
16349
  8
0
  6
BYBLOCK
 62
     5
 10
-137.0152392302005069
 20
458.2997104483101225
 30
0.0
  0
VERTEX
  5
1634A
  8
0
  6
BYBLOCK
 62
     5
 10
-136.7887923550730136
 20
458.4971618845862054
 30
0.0
  0
VERTEX
  5
1634B
  8
0
  6
BYBLOCK
 62
     5
 10
-136.549398817343814
 20
458.678699734732902
 30
0.0
  0
VERTEX
  5
1634C
  8
0
  6
BYBLOCK
 62
     5
 10
-136.2981747801941879
 20
458.8434775854913141
 30
0.0
  0
VERTEX
  5
1634D
  8
0
  6
BYBLOCK
 62
     5
 10
-136.0362915660554961
 20
458.9907271664569066
 30
0.0
  0
VERTEX
  5
1634E
  8
0
  6
BYBLOCK
 62
     5
 10
-135.7649701953619115
 20
459.119761932110805
 30
0.0
  0
VERTEX
  5
1634F
  8
0
  6
BYBLOCK
 62
     5
 10
-135.4854756935907005
 20
459.2299802628095904
 30
0.0
  0
VERTEX
  5
16350
  8
0
  6
BYBLOCK
 62
     5
 10
-135.1991111931293119
 20
459.320868269817197
 30
0.0
  0
VERTEX
  5
16351
  8
0
  6
BYBLOCK
 62
     5
 10
-134.9072118574700028
 20
459.3920021912888956
 30
0.0
  0
VERTEX
  5
16352
  8
0
  6
BYBLOCK
 62
     5
 10
-134.6111386560617973
 20
459.4430503680467268
 30
0.0
  0
VERTEX
  5
16353
  8
0
  6
BYBLOCK
 62
     5
 10
-134.3122720188428048
 20
459.4737747899250735
 30
0.0
  0
VERTEX
  5
16354
  8
0
  6
BYBLOCK
 62
     5
 10
-134.012005400038305
 20
459.4840322054868125
 30
0.0
  0
VERTEX
  5
16355
  8
0
  6
BYBLOCK
 62
     5
 10
-130.7722398342893086
 20
459.4840322054868125
 30
0.0
  0
VERTEX
  5
16356
  8
0
  6
BYBLOCK
 62
     5
 10
-130.5096835915040003
 20
459.4926584796409088
 30
0.0
  0
VERTEX
  5
16357
  8
0
  6
BYBLOCK
 62
     5
 10
-130.248259789784413
 20
459.518500095799709
 30
0.0
  0
VERTEX
  5
16358
  8
0
  6
BYBLOCK
 62
     5
 10
-129.989095985822189
 20
459.5614455955304152
 30
0.0
  0
VERTEX
  5
16359
  8
0
  6
BYBLOCK
 62
     5
 10
-129.7333099886295997
 20
459.6213097490062864
 30
0.0
  0
VERTEX
  5
1635A
  8
0
  6
BYBLOCK
 62
     5
 10
-129.4820050382745933
 20
459.6978343539275897
 30
0.0
  0
VERTEX
  5
1635B
  8
0
  6
BYBLOCK
 62
     5
 10
-129.236265047456186
 20
459.7906893491829123
 30
0.0
  0
VERTEX
  5
1635C
  8
0
  6
BYBLOCK
 62
     5
 10
-128.9971499264401018
 20
459.8994742384494998
 30
0.0
  0
VERTEX
  5
1635D
  8
0
  6
BYBLOCK
 62
     5
 10
-128.765691011520488
 20
460.0237198175880735
 30
0.0
  0
VERTEX
  5
1635E
  8
0
  6
BYBLOCK
 62
     5
 10
-128.5428866167252124
 20
460.1628901983850142
 30
0.0
  0
VERTEX
  5
1635F
  8
0
  6
BYBLOCK
 62
     5
 10
-128.329697727950105
 20
460.316385119910592
 30
0.0
  0
VERTEX
  5
16360
  8
0
  6
BYBLOCK
 62
     5
 10
-128.1270438580961866
 20
460.4835425375276259
 30
0.0
  0
VERTEX
  5
16361
  8
0
  6
BYBLOCK
 62
     5
 10
-127.9357990810826067
 20
460.6636414783806117
 30
0.0
  0
VERTEX
  5
16362
  8
0
  6
BYBLOCK
 62
     5
 10
-127.7567882618485982
 20
460.8559051510503082
 30
0.0
  0
VERTEX
  5
16363
  8
0
  6
BYBLOCK
 62
     5
 10
-127.5907834985950018
 20
461.0595042959610055
 30
0.0
  0
VERTEX
  5
16364
  8
0
  6
BYBLOCK
 62
     5
 10
-127.4385007926219942
 20
461.2735607620926999
 30
0.0
  0
VERTEX
  5
16365
  8
0
  6
BYBLOCK
 62
     5
 10
-127.3005969601144045
 20
461.4971512945643894
 30
0.0
  0
VERTEX
  5
16366
  8
0
  6
BYBLOCK
 62
     5
 10
-127.1776667992051983
 20
461.7293115167606743
 30
0.0
  0
VERTEX
  5
16367
  8
0
  6
BYBLOCK
 62
     5
 10
-127.0702405245295949
 20
461.9690400898185203
 30
0.0
  0
VERTEX
  5
16368
  8
0
  6
BYBLOCK
 62
     5
 10
-126.978781480335698
 20
462.2153030315423052
 30
0.0
  0
VERTEX
  5
16369
  8
0
  6
BYBLOCK
 62
     5
 10
-126.9036841420181929
 20
462.4670381761068825
 30
0.0
  0
VERTEX
  5
1636A
  8
0
  6
BYBLOCK
 62
     5
 10
-126.8452724146911947
 20
462.7231597553263214
 30
0.0
  0
VERTEX
  5
1636B
  8
0
  6
BYBLOCK
 62
     5
 10
-126.8037982361418017
 20
462.9825630817215938
 30
0.0
  0
VERTEX
  5
1636C
  8
0
  6
BYBLOCK
 62
     5
 10
-126.7794404901869996
 20
463.2441293131877273
 30
0.0
  0
VERTEX
  5
1636D
  8
0
  6
BYBLOCK
 62
     5
 10
-126.7723042351239968
 20
463.5067302787135759
 30
0.0
  0
VERTEX
  5
1636E
  8
0
  6
BYBLOCK
 62
     5
 10
-126.7824202505994009
 20
463.7692333443375787
 30
0.0
  0
VERTEX
  5
1636F
  8
0
  6
BYBLOCK
 62
     5
 10
-126.8097449048514989
 20
464.0305062983554762
 30
0.0
  0
VERTEX
  5
16370
  8
0
  6
BYBLOCK
 62
     5
 10
-126.8541603429010962
 20
464.2894222347017035
 30
0.0
  0
VERTEX
  5
16371
  8
0
  6
BYBLOCK
 62
     5
 10
-126.915474994875197
 20
464.5448644134519895
 30
0.0
  0
VERTEX
  5
16372
  8
0
  6
BYBLOCK
 62
     5
 10
-126.9934244022752949
 20
464.7957310774731923
 30
0.0
  0
VERTEX
  5
16373
  8
0
  6
BYBLOCK
 62
     5
 10
-127.0876723586223989
 20
465.0409402044563194
 30
0.0
  0
VERTEX
  5
16374
  8
0
  6
BYBLOCK
 62
     5
 10
-127.1978123595611976
 20
465.2794341738235175
 30
0.0
  0
VERTEX
  5
16375
  8
0
  6
BYBLOCK
 62
     5
 10
-127.3233693561701045
 20
465.5101843283928247
 30
0.0
  0
VERTEX
  5
16376
  8
0
  6
BYBLOCK
 62
     5
 10
-127.4638018039120055
 20
465.7321954111171181
 30
0.0
  0
VERTEX
  5
16377
  8
0
  6
BYBLOCK
 62
     5
 10
-127.6185039983894001
 20
465.9445098577643876
 30
0.0
  0
VERTEX
  5
16378
  8
0
  6
BYBLOCK
 62
     5
 10
-127.7868086878314955
 20
466.1462119270224775
 30
0.0
  0
VERTEX
  5
16379
  8
0
  6
BYBLOCK
 62
     5
 10
-132.4390630595281948
 20
471.0221488746237242
 30
0.0
  0
VERTEX
  5
1637A
  8
0
  6
BYBLOCK
 62
     5
 10
-137.4091702244535895
 20
475.5736614391569788
 30
0.0
  0
VERTEX
  5
1637B
  8
0
  6
BYBLOCK
 62
     5
 10
-142.6745568346514972
 20
479.7800774553276142
 30
0.0
  0
VERTEX
  5
1637C
  8
0
  6
BYBLOCK
 62
     5
 10
-148.211308435134498
 20
483.6222921253454956
 30
0.0
  0
VERTEX
  5
1637D
  8
0
  6
BYBLOCK
 62
     5
 10
-153.9942780791103871
 20
487.0828547895379756
 30
0.0
  0
VERTEX
  5
1637E
  8
0
  6
BYBLOCK
 62
     5
 10
-159.9972005409686915
 20
490.1460481841617138
 30
0.0
  0
VERTEX
  5
1637F
  8
0
  6
BYBLOCK
 62
     5
 10
-166.1928116082910094
 20
492.7979598264345782
 30
0.0
  0
VERTEX
  5
16380
  8
0
  6
BYBLOCK
 62
     5
 10
-172.5529719110826079
 20
495.0265452025740842
 30
0.0
  0
VERTEX
  5
16381
  8
0
  6
BYBLOCK
 62
     5
 10
-179.0487947258162933
 20
496.821682471848078
 30
0.0
  0
VERTEX
  5
16382
  8
0
  6
BYBLOCK
 62
     5
 10
-185.6507771738224051
 20
498.1752184381850839
 30
0.0
  0
VERTEX
  5
16383
  8
0
  6
BYBLOCK
 62
     5
 10
-192.3289342181479924
 20
499.0810055805507091
 30
0.0
  0
VERTEX
  5
16384
  8
0
  6
BYBLOCK
 62
     5
 10
-199.0529348502919049
 20
499.5349299739006028
 30
0.0
  0
VERTEX
  5
16385
  8
0
  6
BYBLOCK
 62
     5
 10
-205.7922398482832023
 20
499.5349299739006028
 30
0.0
  0
VERTEX
  5
16386
  8
0
  6
BYBLOCK
 62
     5
 10
-212.5162404804270011
 20
499.0810055805507091
 30
0.0
  0
VERTEX
  5
16387
  8
0
  6
BYBLOCK
 62
     5
 10
-219.1943975247525884
 20
498.1752184381850839
 30
0.0
  0
VERTEX
  5
16388
  8
0
  6
BYBLOCK
 62
     5
 10
-225.7963799727587002
 20
496.821682471848078
 30
0.0
  0
VERTEX
  5
16389
  8
0
  6
BYBLOCK
 62
     5
 10
-232.292202787492414
 20
495.0265452025740842
 30
0.0
  0
VERTEX
  5
1638A
  8
0
  6
BYBLOCK
 62
     5
 10
-238.6523630902840125
 20
492.7979598264345782
 30
0.0
  0
VERTEX
  5
1638B
  8
0
  6
BYBLOCK
 62
     5
 10
-244.8479741576061031
 20
490.1460481841617138
 30
0.0
  0
VERTEX
  5
1638C
  8
0
  6
BYBLOCK
 62
     5
 10
-250.8508966194646064
 20
487.0828547895379756
 30
0.0
  0
VERTEX
  5
1638D
  8
0
  6
BYBLOCK
 62
     5
 10
-256.6338662634406091
 20
483.6222921253454956
 30
0.0
  0
VERTEX
  5
1638E
  8
0
  6
BYBLOCK
 62
     5
 10
-262.1706178639234963
 20
479.7800774553276142
 30
0.0
  0
VERTEX
  5
1638F
  8
0
  6
BYBLOCK
 62
     5
 10
-267.436004474121205
 20
475.5736614391569788
 30
0.0
  0
VERTEX
  5
16390
  8
0
  6
BYBLOCK
 62
     5
 10
-272.406111639046685
 20
471.0221488746237242
 30
0.0
  0
VERTEX
  5
16391
  8
0
  6
BYBLOCK
 62
     5
 10
-277.058366010743498
 20
466.1462119270224775
 30
0.0
  0
VERTEX
  5
16392
  8
0
  6
BYBLOCK
 62
     5
 10
-277.2266707001854797
 20
465.9445098577643876
 30
0.0
  0
VERTEX
  5
16393
  8
0
  6
BYBLOCK
 62
     5
 10
-277.3813728946631727
 20
465.7321954111171181
 30
0.0
  0
VERTEX
  5
16394
  8
0
  6
BYBLOCK
 62
     5
 10
-277.5218053424047184
 20
465.510184328392711
 30
0.0
  0
VERTEX
  5
16395
  8
0
  6
BYBLOCK
 62
     5
 10
-277.6473623390136822
 20
465.2794341738232902
 30
0.0
  0
VERTEX
  5
16396
  8
0
  6
BYBLOCK
 62
     5
 10
-277.7575023399526799
 20
465.0409402044559783
 30
0.0
  0
VERTEX
  5
16397
  8
0
  6
BYBLOCK
 62
     5
 10
-277.8517502962993717
 20
464.7957310774730786
 30
0.0
  0
VERTEX
  5
16398
  8
0
  6
BYBLOCK
 62
     5
 10
-277.9296997036996117
 20
464.544864413451819
 30
0.0
  0
VERTEX
  5
16399
  8
0
  6
BYBLOCK
 62
     5
 10
-277.9910143556738831
 20
464.2894222347017035
 30
0.0
  0
VERTEX
  5
1639A
  8
0
  6
BYBLOCK
 62
     5
 10
-278.0354297937232104
 20
464.0305062983553057
 30
0.0
  0
VERTEX
  5
1639B
  8
0
  6
BYBLOCK
 62
     5
 10
-278.0627544479751805
 20
463.7692333443374082
 30
0.0
  0
VERTEX
  5
1639C
  8
0
  6
BYBLOCK
 62
     5
 10
-278.072870463450613
 20
463.5067302787131212
 30
0.0
  0
VERTEX
  5
1639D
  8
0
  6
BYBLOCK
 62
     5
 10
-278.0657342083878234
 20
463.2441293131872158
 30
0.0
  0
VERTEX
  5
1639E
  8
0
  6
BYBLOCK
 62
     5
 10
-278.0413764624328223
 20
462.9825630817211959
 30
0.0
  0
VERTEX
  5
1639F
  8
0
  6
BYBLOCK
 62
     5
 10
-277.9999022838832161
 20
462.723159755326094
 30
0.0
  0
VERTEX
  5
163A0
  8
0
  6
BYBLOCK
 62
     5
 10
-277.941490556556289
 20
462.4670381761067119
 30
0.0
  0
VERTEX
  5
163A1
  8
0
  6
BYBLOCK
 62
     5
 10
-277.8663932182386134
 20
462.2153030315420779
 30
0.0
  0
VERTEX
  5
163A2
  8
0
  6
BYBLOCK
 62
     5
 10
-277.774934174044688
 20
461.9690400898182929
 30
0.0
  0
VERTEX
  5
163A3
  8
0
  6
BYBLOCK
 62
     5
 10
-277.6675078993691841
 20
461.7293115167598785
 30
0.0
  0
VERTEX
  5
163A4
  8
0
  6
BYBLOCK
 62
     5
 10
-277.5445777384599069
 20
461.4971512945638779
 30
0.0
  0
VERTEX
  5
163A5
  8
0
  6
BYBLOCK
 62
     5
 10
-277.4066739059522888
 20
461.2735607620924156
 30
0.0
  0
VERTEX
  5
163A6
  8
0
  6
BYBLOCK
 62
     5
 10
-277.2543911999791817
 20
461.0595042959606076
 30
0.0
  0
VERTEX
  5
163A7
  8
0
  6
BYBLOCK
 62
     5
 10
-277.0883864367257274
 20
460.8559051510495124
 30
0.0
  0
VERTEX
  5
163A8
  8
0
  6
BYBLOCK
 62
     5
 10
-276.9093756174914915
 20
460.6636414783801001
 30
0.0
  0
VERTEX
  5
163A9
  8
0
  6
BYBLOCK
 62
     5
 10
-276.7181308404778974
 20
460.4835425375272848
 30
0.0
  0
VERTEX
  5
163AA
  8
0
  6
BYBLOCK
 62
     5
 10
-276.5154769706238085
 20
460.3163851199099099
 30
0.0
  0
VERTEX
  5
163AB
  8
0
  6
BYBLOCK
 62
     5
 10
-276.302288081848701
 20
460.1628901983846163
 30
0.0
  0
VERTEX
  5
163AC
  8
0
  6
BYBLOCK
 62
     5
 10
-276.0794836870533118
 20
460.0237198175880167
 30
0.0
  0
VERTEX
  5
163AD
  8
0
  6
BYBLOCK
 62
     5
 10
-275.8480247721337264
 20
459.8994742384491019
 30
0.0
  0
VERTEX
  5
163AE
  8
0
  6
BYBLOCK
 62
     5
 10
-275.608909651117699
 20
459.790689349182685
 30
0.0
  0
VERTEX
  5
163AF
  8
0
  6
BYBLOCK
 62
     5
 10
-275.363169660299377
 20
459.6978343539270782
 30
0.0
  0
VERTEX
  5
163B0
  8
0
  6
BYBLOCK
 62
     5
 10
-275.1118647099440864
 20
459.6213097490062864
 30
0.0
  0
VERTEX
  5
163B1
  8
0
  6
BYBLOCK
 62
     5
 10
-274.8560787127515255
 20
459.5614455955304152
 30
0.0
  0
VERTEX
  5
163B2
  8
0
  6
BYBLOCK
 62
     5
 10
-274.5969149087891878
 20
459.518500095799709
 30
0.0
  0
VERTEX
  5
163B3
  8
0
  6
BYBLOCK
 62
     5
 10
-274.3354911070695721
 20
459.4926584796409088
 30
0.0
  0
VERTEX
  5
163B4
  8
0
  6
BYBLOCK
 62
     5
 10
-274.0729348642843206
 20
459.4840322054868125
 30
0.0
  0
VERTEX
  5
163B5
  8
0
  6
BYBLOCK
 62
     5
 10
-270.8331692985364043
 20
459.4840322054868125
 30
0.0
  0
VERTEX
  5
163B6
  8
0
  6
BYBLOCK
 62
     5
 10
-270.5453955299238942
 20
459.4746114677366222
 30
0.0
  0
VERTEX
  5
163B7
  8
0
  6
BYBLOCK
 62
     5
 10
-270.2588540527680721
 20
459.4463895955315138
 30
0.0
  0
VERTEX
  5
163B8
  8
0
  6
BYBLOCK
 62
     5
 10
-269.9747718816656175
 20
459.3994874392611223
 30
0.0
  0
VERTEX
  5
163B9
  8
0
  6
BYBLOCK
 62
     5
 10
-269.6943655000853255
 20
459.3341058411588165
 30
0.0
  0
VERTEX
  5
163BA
  8
0
  6
BYBLOCK
 62
     5
 10
-269.4188356512025848
 20
459.250524775265319
 30
0.0
  0
VERTEX
  5
163BB
  8
0
  6
BYBLOCK
 62
     5
 10
-269.1493621961300278
 20
459.1491021485363717
 30
0.0
  0
VERTEX
  5
163BC
  8
0
  6
BYBLOCK
 62
     5
 10
-268.8870990615727123
 20
459.0302722682308172
 30
0.0
  0
VERTEX
  5
163BD
  8
0
  6
BYBLOCK
 62
     5
 10
-268.6331692985364725
 20
458.8945439821383161
 30
0.0
  0
VERTEX
  5
163BE
  8
0
  6
BYBLOCK
 62
     5
 10
-268.3886602732500819
 20
458.7424984996180228
 30
0.0
  0
VERTEX
  5
163BF
  8
0
  6
BYBLOCK
 62
     5
 10
-268.1546190108979886
 20
458.5747869027683805
 30
0.0
  0
VERTEX
  5
163C0
  8
0
  6
BYBLOCK
 62
     5
 10
-267.9320477120961073
 20
458.3921273583944185
 30
0.0
  0
VERTEX
  5
163C1
  8
0
  6
BYBLOCK
 62
     5
 10
-267.7218994613156156
 20
458.1953020427076808
 30
0.0
  0
VERTEX
  5
163C2
  8
0
  6
BYBLOCK
 62
     5
 10
-267.5250741456289916
 20
457.9851537919274165
 30
0.0
  0
VERTEX
  5
163C3
  8
0
  6
BYBLOCK
 62
     5
 10
-267.3424146012549727
 20
457.7625824931251941
 30
0.0
  0
VERTEX
  5
163C4
  8
0
  6
BYBLOCK
 62
     5
 10
-267.1747030044052735
 20
457.5285412307732145
 30
0.0
  0
VERTEX
  5
163C5
  8
0
  6
BYBLOCK
 62
     5
 10
-267.0226575218849803
 20
457.2840322054868238
 30
0.0
  0
VERTEX
  5
163C6
  8
0
  6
BYBLOCK
 62
     5
 10
-266.8869292357925929
 20
457.0301024424502998
 30
0.0
  0
VERTEX
  5
163C7
  8
0
  6
BYBLOCK
 62
     5
 10
-266.768099355486811
 20
456.7678393078929844
 30
0.0
  0
VERTEX
  5
163C8
  8
0
  6
BYBLOCK
 62
     5
 10
-266.6666767287578068
 20
456.4983658528204842
 30
0.0
  0
VERTEX
  5
163C9
  8
0
  6
BYBLOCK
 62
     5
 10
-266.5830956628645936
 20
456.2228360039378003
 30
0.0
  0
VERTEX
  5
163CA
  8
0
  6
BYBLOCK
 62
     5
 10
-266.5177140647621172
 20
455.9424296223576789
 30
0.0
  0
VERTEX
  5
163CB
  8
0
  6
BYBLOCK
 62
     5
 10
-266.4708119084917257
 20
455.6583474512548833
 30
0.0
  0
VERTEX
  5
163CC
  8
0
  6
BYBLOCK
 62
     5
 10
-266.4425900362866741
 20
455.3718059740995159
 30
0.0
  0
VERTEX
  5
163CD
  8
0
  6
BYBLOCK
 62
     5
 10
-266.433169298536427
 20
455.0840322054867784
 30
0.0
  0
VERTEX
  5
163CE
  8
0
  6
BYBLOCK
 62
     5
 10
-266.4331692985363134
 20
438.4840322054868125
 30
0.0
  0
VERTEX
  5
163CF
  8
0
  6
BYBLOCK
 62
     5
 10
-266.433169298536427
 20
409.9840322054868125
 30
0.0
  0
VERTEX
  5
163D0
  8
0
  6
BYBLOCK
 62
     5
 10
-266.433169298536427
 20
393.3840322054867897
 30
0.0
  0
VERTEX
  5
163D1
  8
0
  6
BYBLOCK
 62
     5
 10
-266.4434267140971997
 20
393.0837655866822047
 30
0.0
  0
VERTEX
  5
163D2
  8
0
  6
BYBLOCK
 62
     5
 10
-266.4741511359756032
 20
392.7848989494631837
 30
0.0
  0
VERTEX
  5
163D3
  8
0
  6
BYBLOCK
 62
     5
 10
-266.5251993127332071
 20
392.4888257480553193
 30
0.0
  0
VERTEX
  5
163D4
  8
0
  6
BYBLOCK
 62
     5
 10
-266.5963332342051899
 20
392.1969264123956123
 30
0.0
  0
VERTEX
  5
163D5
  8
0
  6
BYBLOCK
 62
     5
 10
-266.6872212412127965
 20
391.9105619119342805
 30
0.0
  0
VERTEX
  5
163D6
  8
0
  6
BYBLOCK
 62
     5
 10
-266.7974395719116956
 20
391.6310674101633253
 30
0.0
  0
VERTEX
  5
163D7
  8
0
  6
BYBLOCK
 62
     5
 10
-266.926474337565196
 20
391.3597460394697123
 30
0.0
  0
VERTEX
  5
163D8
  8
0
  6
BYBLOCK
 62
     5
 10
-267.0737239185310727
 20
391.0978628253308216
 30
0.0
  0
VERTEX
  5
163D9
  8
0
  6
BYBLOCK
 62
     5
 10
-267.2385017692898259
 20
390.8466387881812238
 30
0.0
  0
VERTEX
  5
163DA
  8
0
  6
BYBLOCK
 62
     5
 10
-267.4200396194361247
 20
390.6072452504520811
 30
0.0
  0
VERTEX
  5
163DB
  8
0
  6
BYBLOCK
 62
     5
 10
-267.6174910557119802
 20
390.3807983753246731
 30
0.0
  0
VERTEX
  5
163DC
  8
0
  6
BYBLOCK
 62
     5
 10
-267.8299354683733782
 20
390.1683539626628772
 30
0.0
  0
VERTEX
  5
163DD
  8
0
  6
BYBLOCK
 62
     5
 10
-268.0563823435010136
 20
389.9709025263871922
 30
0.0
  0
VERTEX
  5
163DE
  8
0
  6
BYBLOCK
 62
     5
 10
-268.2957758812300995
 20
389.7893646762407798
 30
0.0
  0
VERTEX
  5
163DF
  8
0
  6
BYBLOCK
 62
     5
 10
-268.5469999183796972
 20
389.6245868254823108
 30
0.0
  0
VERTEX
  5
163E0
  8
0
  6
BYBLOCK
 62
     5
 10
-268.8088831325184174
 20
389.4773372445163773
 30
0.0
  0
VERTEX
  5
163E1
  8
0
  6
BYBLOCK
 62
     5
 10
-269.0802045032119736
 20
389.34830247886282
 30
0.0
  0
VERTEX
  5
163E2
  8
0
  6
BYBLOCK
 62
     5
 10
-269.3596990049830993
 20
389.2380841481639209
 30
0.0
  0
VERTEX
  5
163E3
  8
0
  6
BYBLOCK
 62
     5
 10
-269.6460635054447721
 20
389.147196141156428
 30
0.0
  0
VERTEX
  5
163E4
  8
0
  6
BYBLOCK
 62
     5
 10
-269.9379628411040812
 20
389.0760622196846157
 30
0.0
  0
VERTEX
  5
163E5
  8
0
  6
BYBLOCK
 62
     5
 10
-270.2340360425120025
 20
389.0250140429271255
 30
0.0
  0
VERTEX
  5
163E6
  8
0
  6
BYBLOCK
 62
     5
 10
-270.5329026797310803
 20
388.9942896210483809
 30
0.0
  0
VERTEX
  5
163E7
  8
0
  6
BYBLOCK
 62
     5
 10
-270.8331692985356085
 20
388.9840322054869262
 30
0.0
  0
VERTEX
  5
163E8
  8
0
  6
BYBLOCK
 62
     5
 10
-274.0729348642847754
 20
388.9840322054869262
 30
0.0
  0
VERTEX
  5
163E9
  8
0
  6
BYBLOCK
 62
     5
 10
-274.34590451774352
 20
388.9747072822490281
 30
0.0
  0
VERTEX
  5
163EA
  8
0
  6
BYBLOCK
 62
     5
 10
-274.6176014606699027
 20
388.946775989632215
 30
0.0
  0
VERTEX
  5
163EB
  8
0
  6
BYBLOCK
 62
     5
 10
-274.886758916495296
 20
388.9003685562162218
 30
0.0
  0
VERTEX
  5
163EC
  8
0
  6
BYBLOCK
 62
     5
 10
-275.152121948912793
 20
388.8357013548782106
 30
0.0
  0
VERTEX
  5
163ED
  8
0
  6
BYBLOCK
 62
     5
 10
-275.4124533129685233
 20
388.7530758939623183
 30
0.0
  0
VERTEX
  5
163EE
  8
0
  6
BYBLOCK
 62
     5
 10
-275.6665392236697016
 20
388.6528774115088254
 30
0.0
  0
VERTEX
  5
163EF
  8
0
  6
BYBLOCK
 62
     5
 10
-275.9131950152092259
 20
388.535573079096423
 30
0.0
  0
VERTEX
  5
163F0
  8
0
  6
BYBLOCK
 62
     5
 10
-276.1512706644263062
 20
388.4017098236728884
 30
0.0
  0
VERTEX
  5
163F1
  8
0
  6
BYBLOCK
 62
     5
 10
-276.379656152744019
 20
388.251911777528619
 30
0.0
  0
VERTEX
  5
163F2
  8
0
  6
BYBLOCK
 62
     5
 10
-276.5972866415888234
 20
388.0868773683047266
 30
0.0
  0
VERTEX
  5
163F3
  8
0
  6
BYBLOCK
 62
     5
 10
-276.8031474371592822
 20
387.9073760625993259
 30
0.0
  0
VERTEX
  5
163F4
  8
0
  6
BYBLOCK
 62
     5
 10
-276.9962787213971751
 20
387.7142447783613193
 30
0.0
  0
VERTEX
  5
163F5
  8
0
  6
BYBLOCK
 62
     5
 10
-277.1757800271021779
 20
387.5083839827909742
 30
0.0
  0
VERTEX
  5
163F6
  8
0
  6
BYBLOCK
 62
     5
 10
-277.3408144363261272
 20
387.2907534939465108
 30
0.0
  0
VERTEX
  5
163F7
  8
0
  6
BYBLOCK
 62
     5
 10
-277.4906124824703966
 20
387.0623680056286844
 30
0.0
  0
VERTEX
  5
163F8
  8
0
  6
BYBLOCK
 62
     5
 10
-277.6244757378938743
 20
386.8242923564113767
 30
0.0
  0
VERTEX
  5
163F9
  8
0
  6
BYBLOCK
 62
     5
 10
-277.7417800703062767
 20
386.577636564872023
 30
0.0
  0
VERTEX
  5
163FA
  8
0
  6
BYBLOCK
 62
     5
 10
-277.8419785527598833
 20
386.3235506541710151
 30
0.0
  0
VERTEX
  5
163FB
  8
0
  6
BYBLOCK
 62
     5
 10
-277.9246040136754914
 20
386.0632192901151143
 30
0.0
  0
VERTEX
  5
163FC
  8
0
  6
BYBLOCK
 62
     5
 10
-277.9892712150136731
 20
385.7978562576976174
 30
0.0
  0
VERTEX
  5
163FD
  8
0
  6
BYBLOCK
 62
     5
 10
-278.03567864842978
 20
385.5286988018719967
 30
0.0
  0
VERTEX
  5
163FE
  8
0
  6
BYBLOCK
 62
     5
 10
-278.0636099410465931
 20
385.257001858945614
 30
0.0
  0
VERTEX
  5
163FF
  8
0
  6
BYBLOCK
 62
     5
 10
-278.0636099410464794
 20
371.8408610775377952
 30
0.0
 42
0.4180848873825246
  0
VERTEX
  5
16400
  8
0
  6
BYBLOCK
 62
     5
 10
-207.6478495137625941
 20
299.4817783402194209
 30
0.0
  0
VERTEX
  5
16401
  8
0
  6
BYBLOCK
 62
     5
 10
-197.1870044814851894
 20
299.4817226242424226
 30
0.0
 42
0.4179637535505517
  0
VERTEX
  5
16402
  8
0
  6
BYBLOCK
 62
     5
 10
-126.7722820736016018
 20
371.8457001022791246
 30
0.0
  0
VERTEX
  5
16403
  8
0
  6
BYBLOCK
 62
     5
 10
-126.7722820736016018
 20
385.257001858945614
 30
0.0
  0
VERTEX
  5
16404
  8
0
  6
BYBLOCK
 62
     5
 10
-126.8064603887938944
 20
385.506136974367223
 30
0.0
  0
VERTEX
  5
16405
  8
0
  6
BYBLOCK
 62
     5
 10
-126.8490987126761951
 20
385.7643934935513244
 30
0.0
  0
VERTEX
  5
16406
  8
0
  6
BYBLOCK
 62
     5
 10
-126.9085365291328031
 20
386.0193083858969203
 30
0.0
  0
VERTEX
  5
16407
  8
0
  6
BYBLOCK
 62
     5
 10
-126.984519316308706
 20
386.269790066699386
 30
0.0
  0
VERTEX
  5
16408
  8
0
  6
BYBLOCK
 62
     5
 10
-127.076721704244207
 20
386.5147659349473201
 30
0.0
  0
VERTEX
  5
16409
  8
0
  6
BYBLOCK
 62
     5
 10
-127.184748868158394
 20
386.7531869663628186
 30
0.0
  0
VERTEX
  5
1640A
  8
0
  6
BYBLOCK
 62
     5
 10
-127.3081382191514024
 20
386.9840322054869262
 30
0.0
  0
VERTEX
  5
1640B
  8
0
  6
BYBLOCK
 62
     5
 10
-127.4463613850792001
 20
387.2063131375654166
 30
0.0
  0
VERTEX
  5
1640C
  8
0
  6
BYBLOCK
 62
     5
 10
-127.5988264731244044
 20
387.4190779215218186
 30
0.0
  0
VERTEX
  5
1640D
  8
0
  6
BYBLOCK
 62
     5
 10
-127.7648806043733032
 20
387.6214154658873099
 30
0.0
  0
VERTEX
  5
1640E
  8
0
  6
BYBLOCK
 62
     5
 10
-127.9438127095431952
 20
387.8124593302330823
 30
0.0
  0
VERTEX
  5
1640F
  8
0
  6
BYBLOCK
 62
     5
 10
-128.1348565738890102
 20
387.9913914354028748
 30
0.0
  0
VERTEX
  5
16410
  8
0
  6
BYBLOCK
 62
     5
 10
-128.3371941182545015
 20
388.1574455666519157
 30
0.0
  0
VERTEX
  5
16411
  8
0
  6
BYBLOCK
 62
     5
 10
-128.5499589022109035
 20
388.3099106546973189
 30
0.0
  0
VERTEX
  5
16412
  8
0
  6
BYBLOCK
 62
     5
 10
-128.7722398342893939
 20
388.4481338206247187
 30
0.0
  0
VERTEX
  5
16413
  8
0
  6
BYBLOCK
 62
     5
 10
-129.0030850734133878
 20
388.5715231716176845
 30
0.0
  0
VERTEX
  5
16414
  8
0
  6
BYBLOCK
 62
     5
 10
-129.2415061048291989
 20
388.6795503355322126
 30
0.0
  0
VERTEX
  5
16415
  8
0
  6
BYBLOCK
 62
     5
 10
-129.4864819730769057
 20
388.7717527234673867
 30
0.0
  0
VERTEX
  5
16416
  8
0
  6
BYBLOCK
 62
     5
 10
-129.7369636538795987
 20
388.8477355106430764
 30
0.0
  0
VERTEX
  5
16417
  8
0
  6
BYBLOCK
 62
     5
 10
-129.9918785462251947
 20
388.9071733270998266
 30
0.0
  0
VERTEX
  5
16418
  8
0
  6
BYBLOCK
 62
     5
 10
-130.2501350654094949
 20
388.9498116509823262
 30
0.0
  0
VERTEX
  5
16419
  8
0
  6
BYBLOCK
 62
     5
 10
-130.5106273173691989
 20
388.975467898441309
 30
0.0
  0
VERTEX
  5
1641A
  8
0
  6
BYBLOCK
 62
     5
 10
-130.7722398342895929
 20
388.9840322054869262
 30
0.0
  0
VERTEX
  5
1641B
  8
0
  6
BYBLOCK
 62
     5
 10
-134.0120054000375092
 20
388.9840322054869262
 30
0.0
  0
VERTEX
  5
1641C
  8
0
  6
BYBLOCK
 62
     5
 10
-134.2997791686501898
 20
388.9934529432371733
 30
0.0
  0
VERTEX
  5
1641D
  8
0
  6
BYBLOCK
 62
     5
 10
-134.5863206458056993
 20
389.0216748154422248
 30
0.0
  0
VERTEX
  5
1641E
  8
0
  6
BYBLOCK
 62
     5
 10
-134.870402816908495
 20
389.0685769717126732
 30
0.0
  0
VERTEX
  5
1641F
  8
0
  6
BYBLOCK
 62
     5
 10
-135.1508091984887017
 20
389.1339585698149222
 30
0.0
  0
VERTEX
  5
16420
  8
0
  6
BYBLOCK
 62
     5
 10
-135.4263390473714992
 20
389.2175396357083059
 30
0.0
  0
VERTEX
  5
16421
  8
0
  6
BYBLOCK
 62
     5
 10
-135.6958125024439141
 20
389.3189622624371964
 30
0.0
  0
VERTEX
  5
16422
  8
0
  6
BYBLOCK
 62
     5
 10
-135.9580756370010874
 20
389.4377921427429214
 30
0.0
  0
VERTEX
  5
16423
  8
0
  6
BYBLOCK
 62
     5
 10
-136.2120054000374125
 20
389.5735204288353088
 30
0.0
  0
VERTEX
  5
16424
  8
0
  6
BYBLOCK
 62
     5
 10
-136.4565144253238032
 20
389.7255659113556021
 30
0.0
  0
VERTEX
  5
16425
  8
0
  6
BYBLOCK
 62
     5
 10
-136.6905556876758112
 20
389.8932775082053013
 30
0.0
  0
VERTEX
  5
16426
  8
0
  6
BYBLOCK
 62
     5
 10
-136.9131269864778062
 20
390.0759370525793202
 30
0.0
  0
VERTEX
  5
16427
  8
0
  6
BYBLOCK
 62
     5
 10
-137.1232752372582127
 20
390.2727623682662283
 30
0.0
  0
VERTEX
  5
16428
  8
0
  6
BYBLOCK
 62
     5
 10
-137.3201005529450924
 20
390.482910619046379
 30
0.0
  0
VERTEX
  5
16429
  8
0
  6
BYBLOCK
 62
     5
 10
-137.5027600973189976
 20
390.705481917848374
 30
0.0
  0
VERTEX
  5
1642A
  8
0
  6
BYBLOCK
 62
     5
 10
-137.6704716941688105
 20
390.9395231802009221
 30
0.0
  0
VERTEX
  5
1642B
  8
0
  6
BYBLOCK
 62
     5
 10
-137.822517176689189
 20
391.1840322054869148
 30
0.0
  0
VERTEX
  5
1642C
  8
0
  6
BYBLOCK
 62
     5
 10
-137.9582454627814059
 20
391.4379619685233251
 30
0.0
  0
VERTEX
  5
1642D
  8
0
  6
BYBLOCK
 62
     5
 10
-138.0770753430871878
 20
391.7002251030805837
 30
0.0
  0
VERTEX
  5
1642E
  8
0
  6
BYBLOCK
 62
     5
 10
-138.178497969815993
 20
391.9696985581530271
 30
0.0
  0
VERTEX
  5
1642F
  8
0
  6
BYBLOCK
 62
     5
 10
-138.2620790357094052
 20
392.2452284070358246
 30
0.0
  0
VERTEX
  5
16430
  8
0
  6
BYBLOCK
 62
     5
 10
-138.3274606338117962
 20
392.5256347886161166
 30
0.0
  0
VERTEX
  5
16431
  8
0
  6
BYBLOCK
 62
     5
 10
-138.3743627900823867
 20
392.809716959718628
 30
0.0
  0
VERTEX
  5
16432
  8
0
  6
BYBLOCK
 62
     5
 10
-138.4025846622874951
 20
393.0962584368742228
 30
0.0
  0
SEQEND
  5
16433
  8
0
  6
BYBLOCK
 62
     5
  0
CIRCLE
  5
13CAC
  8
0
  6
BYBLOCK
 62
     1
 10
-158.9745445300150095
 20
473.2117416137754731
 30
0.0
 40
1.3
  0
CIRCLE
  5
13CAD
  8
0
  6
BYBLOCK
 62
     1
 10
-217.4228303390729025
 20
320.0469191880550852
 30
0.0
 40
1.699983000000002
  0
CIRCLE
  5
13CAE
  8
0
  6
BYBLOCK
 62
     1
 10
-159.1620054000376001
 20
441.5840322054867784
 30
-0.000000157116653
 40
1.55000000000001
  0
CIRCLE
  5
13CAF
  8
0
  6
BYBLOCK
 62
     1
 10
-254.87166595595221
 20
470.1466545032030808
 30
0.0
 40
1.3
  0
CIRCLE
  5
13CB0
  8
0
  6
BYBLOCK
 62
     1
 10
-226.8556382844089114
 20
460.7358270733221275
 30
-1.0000005518271491
 40
1.550000000000034
  0
CIRCLE
  5
13CB1
  8
0
  6
BYBLOCK
 62
     1
 10
-191.2404250510456905
 20
454.2314820724375863
 30
0.0
 40
1.55000000000001
  0
CIRCLE
  5
13CB2
  8
0
  6
BYBLOCK
 62
     1
 10
-149.98693671582609
 20
470.1466545032030808
 30
0.0
 40
1.3
  0
CIRCLE
  5
13CB3
  8
0
  6
BYBLOCK
 62
     1
 10
-177.9278164411715863
 20
460.735827073322298
 30
-1.000000551826788
 40
1.550000000000034
  0
POLYLINE
  5
13CB5
  8
0
  6
BYBLOCK
 62
     1
 66
     1
 10
0.0
 20
0.0
 30
0.0
  0
VERTEX
  5
16434
  8
0
  6
BYBLOCK
 62
     1
 10
-253.0096445440435105
 20
421.5832273827800805
 30
0.0
  0
VERTEX
  5
16435
  8
0
  6
BYBLOCK
 62
     1
 10
-250.7642670297057066
 20
421.5832273827800805
 30
0.0
  0
SEQEND
  5
16436
  8
0
  6
BYBLOCK
 62
     1
  0
POLYLINE
  5
13CB6
  8
0
  6
BYBLOCK
 62
     1
 66
     1
 10
0.0
 20
0.0
 30
0.0
  0
VERTEX
  5
16437
  8
0
  6
BYBLOCK
 62
     1
 10
-253.0096445440435105
 20
428.319359925793492
 30
0.0
  0
VERTEX
  5
16438
  8
0
  6
BYBLOCK
 62
     1
 10
-253.0096445440435105
 20
421.5832273827800805
 30
0.0
  0
SEQEND
  5
16439
  8
0
  6
BYBLOCK
 62
     1
  0
POLYLINE
  5
13CB7
  8
0
 62
     1
 66
     1
 10
0.0
 20
0.0
 30
0.0
  0
VERTEX
  5
1643A
  8
0
 62
     1
 10
-208.925216715825087
 20
474.8004835032028836
 30
0.0
  0
VERTEX
  5
1643B
  8
0
 62
     1
 10
-208.925216715825087
 20
471.8751625032027732
 30
0.0
  0
VERTEX
  5
1643C
  8
0
 62
     1
 10
-195.925216715825087
 20
471.8751625032027732
 30
0.0
  0
VERTEX
  5
1643D
  8
0
 62
     1
 10
-195.925216715825087
 20
474.8004835032028836
 30
0.0
  0
SEQEND
  5
1643E
  8
0
 62
     1
  0
POLYLINE
  5
13CB8
  8
0
 62
     1
 66
     1
 10
0.0
 20
0.0
 30
0.0
  0
VERTEX
  5
1643F
  8
0
 62
     1
 10
-195.925216715825087
 20
478.8004835032032247
 30
0.0
  0
VERTEX
  5
16440
  8
0
 62
     1
 10
-195.925216715825087
 20
479.4751625032025117
 30
0.0
  0
VERTEX
  5
16441
  8
0
 62
     1
 10
-208.925216715825087
 20
479.4751625032025117
 30
0.0
  0
VERTEX
  5
16442
  8
0
 62
     1
 10
-208.9252167158261102
 20
478.8004835032032247
 30
0.0
  0
SEQEND
  5
16443
  8
0
 62
     1
  0
ENDBLK
  5
2C7D
  8
0
  0
BLOCK
  8
0
  2
TOP_PLATE
 70
     0
 10
0.0
 20
0.0
 30
0.0
  3
TOP_PLATE
  1

  0
CIRCLE
  5
15D9F
  8
0
  6
BYBLOCK
 62
     1
 10
-85.5764436728648121
 20
485.0638680332933177
 30
-0.0000005518271422
 40
2.1000000000000001
  0
POLYLINE
  5
15DA0
  8
0
  6
CONTINUOUS
 62
     1
 66
     1
 10
0.0
 20
0.0
 30
0.0
 70
     1
  0
VERTEX
  5
16555
  8
0
  6
CONTINUOUS
 62
     1
 10
-128.5478669325518126
 20
429.6804523416092252
 30
0.0
  0
VERTEX
  5
16556
  8
0
  6
CONTINUOUS
 62
     1
 10
-131.5478668299392098
 20
429.6796676932470973
 30
0.0
  0
VERTEX
  5
16557
  8
0
  6
CONTINUOUS
 62
     1
 10
-131.5452513353982056
 20
419.6796680352873068
 30
0.0
  0
VERTEX
  5
16558
  8
0
  6
CONTINUOUS
 62
     1
 10
-128.5452514380102969
 20
419.6804526836497757
 30
0.0
  0
SEQEND
  5
16559
  8
0
  6
CONTINUOUS
 62
     1
  0
POLYLINE
  5
15DA1
  8
0
 62
     1
 66
     1
 10
0.0
 20
0.0
 30
0.0000000029117559
 70
     1
  0
VERTEX
  5
1655A
  8
0
 62
     1
 10
-28.8702945090962011
 20
454.8817719063865184
 30
0.0000000029117559
  0
VERTEX
  5
1655B
  8
0
 62
     1
 10
-36.2602162472647578
 20
454.8817776637084194
 30
0.0000000029117559
 42
-0.9999999999999939
  0
VERTEX
  5
1655C
  8
0
 62
     1
 10
-36.2602084564888969
 20
464.8817776637048951
 30
0.0000000029117559
  0
VERTEX
  5
1655D
  8
0
 62
     1
 10
-28.8702866849949586
 20
464.8817719063827099
 30
0.0000000029117559
  0
VERTEX
  5
1655E
  8
0
 62
     1
 10
-26.8702867183209015
 20
464.8817703482276897
 30
0.0000000029117559
 42
-1.0
  0
VERTEX
  5
1655F
  8
0
 62
     1
 10
-26.8702945090968797
 20
454.8817703482311003
 30
0.0000000029117559
  0
SEQEND
  5
16560
  8
0
 62
     1
  0
POLYLINE
  5
15DA2
  8
0
 62
     1
 66
     1
 10
0.0
 20
0.0
 30
0.0000000029117559
 70
     1
  0
VERTEX
  5
16561
  8
0
 62
     1
 10
-28.8702945090961691
 20
394.4839937957536904
 30
0.0000000029117559
  0
VERTEX
  5
16562
  8
0
 62
     1
 10
-36.2602162472647365
 20
394.4839880384316189
 30
0.0000000029117559
 42
0.9999999999999936
  0
VERTEX
  5
16563
  8
0
 62
     1
 10
-36.2602084564888969
 20
384.4839880384345179
 30
0.0000000029117559
  0
VERTEX
  5
16564
  8
0
 62
     1
 10
-28.8702866849949586
 20
384.4839937957568736
 30
0.0000000029117559
  0
VERTEX
  5
16565
  8
0
 62
     1
 10
-26.8702867183209015
 20
384.483995353912178
 30
0.0000000029117559
 42
1.0
  0
VERTEX
  5
16566
  8
0
 62
     1
 10
-26.8702945090968512
 20
394.4839953539092221
 30
0.0000000029117559
  0
SEQEND
  5
16567
  8
0
 62
     1
  0
CIRCLE
  5
15DA3
  8
0
  6
BYBLOCK
 62
     1
 10
-13.2026279522003396
 20
467.9462889202102929
 30
-0.000000157116653
 40
1.55000000000001
  0
CIRCLE
  5
15DA4
  8
0
  6
BYBLOCK
 62
     1
 10
-49.9278750133850906
 20
467.9462889202105202
 30
-0.000000157116653
 40
1.550000000000034
  0
CIRCLE
  5
15DA5
  8
0
  6
BYBLOCK
 62
     1
 10
-85.5764436728647411
 20
364.3026261621408821
 30
-0.0000005518271422
 40
2.1000000000000001
  0
CIRCLE
  5
15DA6
  8
0
  6
BYBLOCK
 62
     1
 10
-13.2026279522003396
 20
381.419476781929518
 30
-0.000000157116653
 40
1.55000000000001
  0
CIRCLE
  5
15DA7
  8
0
  6
BYBLOCK
 62
     1
 10
-49.9278750133850906
 20
381.419476781929518
 30
-0.000000157116653
 40
1.550000000000034
  0
POLYLINE
  5
15DA8
  8
0
 62
     1
 66
     1
 10
0.0
 20
0.0
 30
0.0000000029117559
 70
     1
  0
VERTEX
  5
16568
  8
0
 62
     1
 10
-76.7963349399462913
 20
394.4839937957536904
 30
0.0000000029117559
  0
VERTEX
  5
16569
  8
0
 62
     1
 10
-84.1862566781148303
 20
394.4839880384316189
 30
0.0000000029117559
 42
0.9999999999999936
  0
VERTEX
  5
1656A
  8
0
 62
     1
 10
-84.1862488873390049
 20
384.4839880384345179
 30
0.0000000029117559
  0
VERTEX
  5
1656B
  8
0
 62
     1
 10
-76.7963271158451022
 20
384.4839937957568736
 30
0.0000000029117559
  0
VERTEX
  5
1656C
  8
0
 62
     1
 10
-74.7963271491709918
 20
384.483995353912178
 30
0.0000000029117559
 42
1.0
  0
VERTEX
  5
1656D
  8
0
 62
     1
 10
-74.796334939946874
 20
394.4839953539092221
 30
0.0000000029117559
  0
SEQEND
  5
1656E
  8
0
 62
     1
  0
POLYLINE
  5
15DA9
  8
0
 62
     1
 66
     1
 10
0.0
 20
0.0
 30
0.0000000029117559
 70
     1
  0
VERTEX
  5
1656F
  8
0
 62
     1
 10
-76.7963349399462913
 20
454.8817719063865184
 30
0.0000000029117559
  0
VERTEX
  5
16570
  8
0
 62
     1
 10
-84.1862566781148729
 20
454.8817776637084194
 30
0.0000000029117559
 42
-0.9999999999999939
  0
VERTEX
  5
16571
  8
0
 62
     1
 10
-84.1862488873390049
 20
464.8817776637048951
 30
0.0000000029117559
  0
VERTEX
  5
16572
  8
0
 62
     1
 10
-76.7963271158449885
 20
464.8817719063827099
 30
0.0000000029117559
  0
VERTEX
  5
16573
  8
0
 62
     1
 10
-74.7963271491709349
 20
464.8817703482276897
 30
0.0000000029117559
 42
-1.0
  0
VERTEX
  5
16574
  8
0
 62
     1
 10
-74.796334939946874
 20
454.881770348231214
 30
0.0000000029117559
  0
SEQEND
  5
16575
  8
0
 62
     1
  0
CIRCLE
  5
15DAA
  8
0
  6
BYBLOCK
 62
     1
 10
-113.9278750133849059
 20
381.4194767819298022
 30
-0.000000157116653
 40
1.5
  0
CIRCLE
  5
15DAB
  8
0
  6
BYBLOCK
 62
     1
 10
-113.9278750133850053
 20
467.9462889202105202
 30
-0.000000157116653
 40
1.5
  0
LINE
  5
15DAC
  8
0
  6
BYBLOCK
 62
     1
 10
-59.496611965834127
 20
461.4949230794981077
 30
0.0
 11
-59.496611965834127
 21
459.2495455651603038
 31
0.0
  0
LINE
  5
15DAD
  8
0
  6
BYBLOCK
 62
     1
 10
-52.7604794228207084
 20
461.4949230794981077
 30
0.0
 11
-59.496611965834127
 21
461.4949230794981077
 31
0.0
  0
LINE
  5
15DAE
  8
0
  6
CONTINUOUS
 62
     5
 10
-136.1672475592646094
 20
423.3426540424932227
 30
-0.0000005518271422
 11
-136.1669458546647888
 21
425.967463850693207
 31
-0.0000005518271422
  0
CIRCLE
  5
15DB4
  8
0
  6
CONTINUOUS
 62
     1
 10
-124.7788271666646978
 20
461.62647560829339
 30
-0.0000005518271422
 40
1.499999999999968
  0
CIRCLE
  5
15DB5
  8
0
  6
CONTINUOUS
 62
     1
 10
-30.249808876664801
 20
449.0529217527932246
 30
-0.0000005518271422
 40
1.4500000000001581
  0
CIRCLE
  5
15DB6
  8
0
  6
CONTINUOUS
 62
     1
 10
-30.2998088766648017
 20
400.2529217527932133
 30
-0.0000005518271422
 40
1.44999999999993
  0
CIRCLE
  5
15DB7
  8
0
  6
CONTINUOUS
 62
     1
 10
-19.2498088766647584
 20
449.0529217527932246
 30
-0.0000005518271422
 40
1.4500000000001581
  0
CIRCLE
  5
15DB8
  8
0
  6
CONTINUOUS
 62
     1
 10
-88.299808876664784
 20
400.1029217527932929
 30
-0.0000005518271422
 40
1.4499999999997031
  0
CIRCLE
  5
15DB9
  8
0
  6
CONTINUOUS
 62
     1
 10
-19.2998088766648017
 20
400.2529217527932133
 30
-0.0000005518271422
 40
1.44999999999993
  0
CIRCLE
  5
15DBA
  8
0
  6
CONTINUOUS
 62
     1
 10
-88.2498088766647868
 20
449.1029217527930086
 30
-0.0000005518271422
 40
1.4500000000001581
  0
ARC
  5
15DBB
  8
0
  6
CONTINUOUS
 62
     1
 10
-101.1495898762646988
 20
448.9822824010930162
 30
-0.0000005518271422
 40
1.500000000000054
 50
175.5582408913012955
 51
4.3822843126982161
  0
ARC
  5
15DBC
  8
0
  6
CONTINUOUS
 62
     1
 10
-101.1494700953647055
 20
449.2130670494929063
 30
-0.0000005518271422
 40
1.499999999999829
 50
355.5582408913995778
 51
184.3822843126002056
  0
ARC
  5
15DBD
  8
0
  6
CONTINUOUS
 62
     1
 10
-101.1495898762646988
 20
400.4822824010931868
 30
-0.0000005518271422
 40
1.5000000000000631
 50
354.8769313245001058
 51
185.1740533988009076
  0
ARC
  5
15DBE
  8
0
  6
CONTINUOUS
 62
     1
 10
-101.1494700953647055
 20
400.2130670494929063
 30
-0.0000005518271422
 40
1.499999999999839
 50
174.8769313245983881
 51
5.1740533987027773
  0
CIRCLE
  5
15DBF
  8
0
  6
CONTINUOUS
 62
     1
 10
-39.1469743816647622
 20
405.2330670494931724
 30
-0.0000005518271422
 40
1.5
  0
CIRCLE
  5
15DC0
  8
0
  6
CONTINUOUS
 62
     1
 10
-39.1469743816647622
 20
444.2330670494931155
 30
-0.0000005518271422
 40
1.500000000000111
  0
CIRCLE
  5
15DC1
  8
0
  6
CONTINUOUS
 62
     1
 10
-124.7788271666647972
 20
435.8764756082932763
 30
-0.0000005518271422
 40
1.5
  0
CIRCLE
  5
15DC2
  8
0
  6
CONTINUOUS
 62
     1
 10
-95.9788271665647983
 20
461.6264756082932763
 30
-0.0000005518271422
 40
1.4999999999610041
  0
CIRCLE
  5
15DC3
  8
0
  6
CONTINUOUS
 62
     1
 10
-95.9788271665647983
 20
435.8764756082932763
 30
-0.0000005518271422
 40
1.4999999999610041
  0
CIRCLE
  5
15DC5
  8
0
  6
CONTINUOUS
 62
     1
 10
-118.8330907411645967
 20
449.2837829027934049
 30
-0.0000005518271422
 40
1.500441698784698
  0
CIRCLE
  5
15DC6
  8
0
  6
CONTINUOUS
 62
     1
 10
-118.2915492116647016
 20
453.2517847916932965
 30
-0.0000005518271422
 40
1.3995407635685511
  0
CIRCLE
  5
15DC7
  8
0
  6
CONTINUOUS
 62
     1
 10
-102.6238949844645987
 20
453.2516321203931966
 30
-0.0000005518271422
 40
1.400097478161342
  0
POLYLINE
  5
15DC8
  8
0
  6
CONTINUOUS
 62
     5
 66
     1
 10
0.0
 20
0.0
 30
-0.0000005518271422
  0
VERTEX
  5
16576
  8
0
  6
CONTINUOUS
 62
     5
 10
-136.1669458546618898
 20
425.9674638506413089
 30
-0.0000005518271422
 42
-0.1367773677860176
  0
VERTEX
  5
16577
  8
0
  6
CONTINUOUS
 62
     5
 10
-128.0700486567625944
 20
456.6053196913308057
 30
-0.0000005518271422
 42
0.2820344035452627
  0
VERTEX
  5
16578
  8
0
  6
CONTINUOUS
 62
     5
 10
-128.1263334272292127
 20
459.4839520318926134
 30
-0.0000005518271422
 42
-0.6851380428319036
  0
VERTEX
  5
16579
  8
0
  6
CONTINUOUS
 62
     5
 10
-123.7471230212714062
 20
465.4646772700875204
 30
-0.0000005518271422
 42
0.2820344035413731
  0
VERTEX
  5
1657A
  8
0
  6
CONTINUOUS
 62
     5
 10
-120.9858666513245993
 20
466.2802478597661207
 30
-0.0000005518271422
 42
-0.1475382796812686
  0
VERTEX
  5
1657B
  8
0
  6
CONTINUOUS
 62
     5
 10
-91.8254011676834523
 20
483.919698598060279
 30
-0.0000005518271422
 42
0.2363876759513947
  0
VERTEX
  5
1657C
  8
0
  6
CONTINUOUS
 62
     5
 10
-89.3198197423568843
 20
486.4795975464201092
 30
-0.0000005518271422
 42
-0.5917911517491909
  0
VERTEX
  5
1657D
  8
0
  6
CONTINUOUS
 62
     5
 10
-82.3758527499891784
 20
487.4589923311439748
 30
-0.0000005518271422
 42
0.2606689669840332
  0
VERTEX
  5
1657E
  8
0
  6
CONTINUOUS
 62
     5
 10
-78.867017190823816
 20
485.7444166542331914
 30
-0.0000005518271422
 42
-0.0124712920509693
  0
VERTEX
  5
1657F
  8
0
  6
CONTINUOUS
 62
     5
 10
-75.977770131142023
 20
485.7575520782958733
 30
-0.0000005518271422
  0
VERTEX
  5
16580
  8
0
  6
CONTINUOUS
 62
     5
 10
-23.8937977474603507
 20
485.9180926951931951
 30
-0.0000005518271422
 42
-0.3443064566613518
  0
VERTEX
  5
16581
  8
0
  6
CONTINUOUS
 62
     5
 10
-7.5754214985648209
 20
469.3944932729746142
 30
-0.0000005518271422
  0
VERTEX
  5
16582
  8
0
  6
CONTINUOUS
 62
     5
 10
-7.5772303610648599
 20
424.6663976062934012
 30
-0.0000005518271422
  0
VERTEX
  5
16583
  8
0
  6
CONTINUOUS
 62
     5
 10
-7.5754214985648636
 20
379.9383009139185106
 30
-0.0000005518271422
 42
-0.3443064091445633
  0
VERTEX
  5
16584
  8
0
  6
CONTINUOUS
 62
     5
 10
-23.8937938685032094
 20
363.41470224899399
 30
-0.0000005518271422
  0
VERTEX
  5
16585
  8
0
  6
CONTINUOUS
 62
     5
 10
-75.9777701306691
 20
363.575242364789176
 30
-0.0000005518271422
 42
-0.010286337054481
  0
VERTEX
  5
16586
  8
0
  6
CONTINUOUS
 62
     5
 10
-78.8947742984151574
 20
363.5885760729431126
 30
-0.0000005518271422
 42
0.2606689669295328
  0
VERTEX
  5
16587
  8
0
  6
CONTINUOUS
 62
     5
 10
-82.4043226928552457
 20
361.8754599663598128
 30
-0.0000005518271422
 42
-0.5917911517865667
  0
VERTEX
  5
16588
  8
0
  6
CONTINUOUS
 62
     5
 10
-89.3478817272231964
 20
362.8577428556919244
 30
-0.0000005518271422
 42
0.2374817043314886
  0
VERTEX
  5
16589
  8
0
  6
CONTINUOUS
 62
     5
 10
-91.8680767784841521
 20
365.4240577356673043
 30
-0.0000005518271422
 42
-0.3459093233817934
  0
VERTEX
  5
1658A
  8
0
  6
CONTINUOUS
 62
     5
 10
-136.1672475592708054
 20
423.3426540424272275
 30
-0.0000005518271422
  0
SEQEND
  5
1658B
  8
0
  6
CONTINUOUS
 62
     5
  0
POLYLINE
  5
15DCD
  8
0
  6
CONTINUOUS
 62
     7
 66
     1
 10
0.0
 20
0.0
 30
-0.0000005518271422
 70
     1
  0
VERTEX
  5
1658C
  8
0
  6
CONTINUOUS
 62
     7
 10
-88.8098088048647867
 20
452.6328825727932212
 30
-0.0000005518271422
  0
VERTEX
  5
1658D
  8
0
  6
CONTINUOUS
 62
     7
 10
-25.4999999999999716
 20
452.6155808793005235
 30
-0.0000005518271422
  0
VERTEX
  5
1658E
  8
0
  6
CONTINUOUS
 62
     7
 10
-25.4999999999999716
 20
396.6029217528935078
 30
-0.0000005518271422
  0
VERTEX
  5
1658F
  8
0
  6
CONTINUOUS
 62
     7
 10
-88.7498088767648028
 20
396.6029217528935078
 30
-0.0000005518271422
 42
-0.4142137918848228
  0
VERTEX
  5
16590
  8
0
  6
CONTINUOUS
 62
     7
 10
-91.7498088767638791
 20
399.602924103699479
 30
-0.0000005518271422
  0
VERTEX
  5
16591
  8
0
  6
CONTINUOUS
 62
     7
 10
-91.7497696966647709
 20
449.6029218233148868
 30
-0.0000005518271422
 42
-0.4142135625168088
  0
SEQEND
  5
16592
  8
0
  6
CONTINUOUS
 62
     7
  0
ENDBLK
  5
2C99
  8
0
  0
BLOCK
  8
0
  2
CASTER_SPACER
 70
     0
 10
0.0
 20
0.0
 30
0.0
  3
CASTER_SPACER
  1

  0
POLYLINE
  5
74CA
  8
0
  6
BYBLOCK
 62
     1
 66
     1
 10
0.0
 20
0.0
 30
0.0
 70
     1
  0
VERTEX
  5
16270
  8
0
  6
BYBLOCK
 62
     1
 10
-112.8458546312011066
 20
310.9633546214943181
 30
0.0
 42
-0.9999999999999998
  0
VERTEX
  5
16271
  8
0
  6
BYBLOCK
 62
     1
 10
-112.8458546312011066
 20
334.9633546214943181
 30
0.0
 42
-0.9999999999999998
  0
SEQEND
  5
16272
  8
0
  6
BYBLOCK
 62
     1
  0
POLYLINE
  5
74CB
  8
0
  6
BYBLOCK
 62
     1
 66
     1
 10
0.0
 20
0.0
 30
0.0
 70
     1
  0
VERTEX
  5
16273
  8
0
  6
BYBLOCK
 62
     1
 10
-112.8458546312011066
 20
336.26322162142759
 30
0.0
 42
-0.9999999999999667
  0
VERTEX
  5
16274
  8
0
  6
BYBLOCK
 62
     1
 10
-112.8458546312011066
 20
339.6631876214277099
 30
0.0
 42
-0.9999999999999667
  0
SEQEND
  5
16275
  8
0
  6
BYBLOCK
 62
     1
  0
POLYLINE
  5
74CC
  8
0
  6
BYBLOCK
 62
     1
 66
     1
 10
0.0
 20
0.0
 30
0.0
 70
     1
  0
VERTEX
  5
16276
  8
0
  6
BYBLOCK
 62
     1
 10
-112.8458546312011066
 20
306.2635216214943057
 30
0.0
 42
-0.9999999999999667
  0
VERTEX
  5
16277
  8
0
  6
BYBLOCK
 62
     1
 10
-112.8458546312011066
 20
309.663487621494312
 30
0.0
 42
-0.9999999999999667
  0
SEQEND
  5
16278
  8
0
  6
BYBLOCK
 62
     1
  0
CIRCLE
  5
74CD
  8
0
  6
BYBLOCK
 62
     5
 10
-112.8458546312011066
 20
322.9633546214943181
 30
0.0
 40
19.0
  0
ENDBLK
  5
2CA1
  8
0
  0
BLOCK
  8
0
  2
SPACER_NEW
 70
     0
 10
0.0
 20
0.0
 30
0.0
  3
SPACER_NEW
  1

  0
POLYLINE
  5
D5E0
  8
0
  6
BYBLOCK
 62
     5
 66
     1
 10
0.0
 20
0.0
 30
0.0
 70
     1
  0
VERTEX
  5
162F5
  8
0
  6
BYBLOCK
 62
     5
 10
-652.7552586075738645
 20
933.9425041693851881
 30
0.0
 42
0.4142135623730676
  0
VERTEX
  5
162F6
  8
0
  6
BYBLOCK
 62
     5
 10
-649.7592290678014706
 20
936.9464693817003536
 30
0.0
  0
VERTEX
  5
162F7
  8
0
  6
BYBLOCK
 62
     5
 10
-649.7711325766155142
 20
945.9464615098353306
 30
0.0
 42
0.41421356237308
  0
VERTEX
  5
162F8
  8
0
  6
BYBLOCK
 62
     5
 10
-652.7750977889320438
 20
948.9424910496087477
 30
0.0
  0
VERTEX
  5
162F9
  8
0
  6
BYBLOCK
 62
     5
 10
-653.9750967393513292
 20
948.9409039151001934
 30
0.0
 42
0.4142135623729905
  0
VERTEX
  5
162FA
  8
0
  6
BYBLOCK
 62
     5
 10
-656.9711262791232684
 20
945.9369387027843459
 30
0.0
  0
VERTEX
  5
162FB
  8
0
  6
BYBLOCK
 62
     5
 10
-656.9760067052956174
 20
943.1844003884992844
 30
0.0
 42
-0.4142135623729473
  0
VERTEX
  5
162FC
  8
0
  6
BYBLOCK
 62
     5
 10
-661.9760067052956174
 20
938.1844003885014445
 30
0.0
  0
VERTEX
  5
162FD
  8
0
  6
BYBLOCK
 62
     5
 10
-685.9798096146645321
 20
938.1844003885014445
 30
0.0
 42
-0.4142135623734854
  0
VERTEX
  5
162FE
  8
0
  6
BYBLOCK
 62
     5
 10
-690.979809614664191
 20
943.1844003885080383
 30
0.0
  0
VERTEX
  5
162FF
  8
0
  6
BYBLOCK
 62
     5
 10
-690.9811322267547666
 20
945.891956618383233
 30
0.0
 42
0.4142135623722007
  0
VERTEX
  5
16300
  8
0
  6
BYBLOCK
 62
     5
 10
-693.9850974390710689
 20
948.8879861581475552
 30
0.0
  0
VERTEX
  5
16301
  8
0
  6
BYBLOCK
 62
     5
 10
-695.185096389488649
 20
948.8863990236383188
 30
0.0
 42
0.4142135623730879
  0
VERTEX
  5
16302
  8
0
  6
BYBLOCK
 62
     5
 10
-698.1811259292625209
 20
945.8824338113226986
 30
0.0
  0
VERTEX
  5
16303
  8
0
  6
BYBLOCK
 62
     5
 10
-698.1692224204475679
 20
936.8824416831879489
 30
0.0
 42
0.414213562373072
  0
VERTEX
  5
16304
  8
0
  6
BYBLOCK
 62
     5
 10
-695.1652572081305834
 20
933.8864121434148728
 30
0.0
  0
VERTEX
  5
16305
  8
0
  6
BYBLOCK
 62
     5
 10
-687.8274202075937183
 20
933.8961172638397557
 30
0.0
  0
VERTEX
  5
16306
  8
0
  6
BYBLOCK
 62
     5
 10
-678.9552356916980216
 20
933.9078517326138353
 30
0.0
  0
SEQEND
  5
16307
  8
0
  6
BYBLOCK
 62
     5
  0
CIRCLE
  5
D5E1
  8
20
 62
     1
 10
-653.5711292529407501
 20
945.941435583891348
 30
0.0
 40
1.0
  0
CIRCLE
  5
D5E2
  8
20
 62
     1
 10
-694.3811292529406956
 20
945.941435583891348
 30
0.0
 40
1.0
  0
ENDBLK
  5
2EAC
  8
0
  0
BLOCK
  8
0
  2
*D7
 70
     1
 10
0.0
 20
0.0
 30
0.0
  3
*D7
  1

  0
LINE
  5
3518
  8
0
  6
BYBLOCK
 62
     0
 10
1210.2786560765280228
 20
-18.1243151445329289
 30
0.0
 11
1217.2493122727960326
 21
-18.1243151445329289
 31
0.0
  0
LINE
  5
3519
  8
0
  6
BYBLOCK
 62
     0
 10
1210.3003565674951005
 20
-25.1645756993666794
 30
0.0
 11
1217.2493122727960326
 21
-25.1645756993666794
 31
0.0
  0
LINE
  5
351A
  8
0
  6
BYBLOCK
 62
     0
 10
1217.069312272795969
 20
-18.3043151445329286
 30
0.0
 11
1217.069312272795969
 21
-21.4644454219498115
 31
0.0
  0
LINE
  5
351B
  8
0
  6
BYBLOCK
 62
     0
 10
1217.069312272795969
 20
-24.9845756993666903
 30
0.0
 11
1217.069312272795969
 21
-21.824445421949811
 31
0.0
  0
SOLID
  5
351C
  8
0
 62
     0
 10
1217.0993122727959417
 20
-18.3043151445329286
 30
0.0
 11
1217.0393122727959963
 21
-18.3043151445329286
 31
0.0
 12
1217.069312272795969
 22
-18.1243151445329289
 32
0.0
 13
1217.069312272795969
 23
-18.1243151445329289
 33
0.0
  0
SOLID
  5
351D
  8
0
 62
     0
 10
1217.0393122727959963
 20
-24.9845756993666903
 30
0.0
 11
1217.0993122727959417
 21
-24.9845756993666903
 31
0.0
 12
1217.069312272795969
 22
-25.1645756993666794
 32
0.0
 13
1217.069312272795969
 23
-25.1645756993666794
 33
0.0
  0
TEXT
  5
351E
  8
0
  6
CONTINUOUS
 62
     0
 10
1216.6493122727958962
 20
-21.7344454219498111
 30
0.0
 40
0.18
  1
7.0403
  0
POINT
  5
351F
  8
DEFPOINTS
 62
     0
 10
1210.2161560765280228
 20
-18.1243151445329289
 30
0.0
  0
POINT
  5
3520
  8
DEFPOINTS
 62
     0
 10
1210.2378565674951005
 20
-25.1645756993666794
 30
0.0
  0
POINT
  5
3521
  8
DEFPOINTS
 62
     0
 10
1217.069312272795969
 20
-25.1645756993666794
 30
0.0
  0
ENDBLK
  5
3517
  8
0
  0
BLOCK
  8
0
  2
UNO
 70
     0
 10
0.0
 20
0.0
 30
0.0
  3
UNO
  1

  0
POLYLINE
  5
3BB0
  8
INCISIONE
 62
     7
 66
     1
 10
0.0
 20
0.0
 30
0.0
 70
     1
  0
VERTEX
  5
161E2
  8
INCISIONE
 62
     7
 10
172.676267921336887
 20
159.8966614375177926
 30
0.0
  0
VERTEX
  5
161E3
  8
INCISIONE
 62
     7
 10
172.676267921336887
 20
192.6299286070290009
 30
0.0
  0
VERTEX
  5
161E4
  8
INCISIONE
 62
     7
 10
170.1371651027577911
 20
195.1690314256080114
 30
0.0
  0
VERTEX
  5
161E5
  8
INCISIONE
 62
     7
 10
170.1371651027577911
 20
206.5949941092125073
 30
0.0
  0
VERTEX
  5
161E6
  8
INCISIONE
 62
     7
 10
168.6137034116107998
 20
208.1184558003598113
 30
0.0
  0
VERTEX
  5
161E7
  8
INCISIONE
 62
     7
 10
105.1361329471408936
 20
208.1184558003598113
 30
0.0
  0
VERTEX
  5
161E8
  8
INCISIONE
 62
     7
 10
104.8822226652831944
 20
208.0761374200498039
 30
0.0
  0
VERTEX
  5
161E9
  8
INCISIONE
 62
     7
 10
104.6494715735801009
 20
207.9703414692758088
 30
0.0
  0
VERTEX
  5
161EA
  8
INCISIONE
 62
     7
 10
104.4378796720314995
 20
207.8222271381918063
 30
0.0
  0
VERTEX
  5
161EB
  8
INCISIONE
 62
     7
 10
104.2686061507933033
 20
207.6106352366437875
 30
0.0
  0
VERTEX
  5
161EC
  8
INCISIONE
 62
     7
 10
104.1839693901737007
 20
207.3778841449407082
 30
0.0
  0
VERTEX
  5
161ED
  8
INCISIONE
 62
     7
 10
104.1416510098646029
 20
207.1028146729277069
 30
0.0
  0
VERTEX
  5
161EE
  8
INCISIONE
 62
     7
 10
104.1416510098646029
 20
155.8129377376367017
 30
0.0
  0
VERTEX
  5
161EF
  8
INCISIONE
 62
     7
 10
104.1839693901737007
 20
155.5590274557787893
 30
0.0
  0
VERTEX
  5
161F0
  8
INCISIONE
 62
     7
 10
104.2686061507933033
 20
155.326276364075909
 30
0.0
  0
VERTEX
  5
161F1
  8
INCISIONE
 62
     7
 10
104.4378796720314995
 20
155.1146844625266965
 30
0.0
  0
VERTEX
  5
161F2
  8
INCISIONE
 62
     7
 10
104.6494715735801009
 20
154.9454109412887135
 30
0.0
  0
VERTEX
  5
161F3
  8
INCISIONE
 62
     7
 10
104.8822226652831944
 20
154.8607741806686136
 30
0.0
  0
VERTEX
  5
161F4
  8
INCISIONE
 62
     7
 10
105.1361329471404957
 20
154.8184558003599136
 30
0.0
  0
VERTEX
  5
161F5
  8
INCISIONE
 62
     7
 10
169.1426831654815999
 20
154.8184558003599136
 30
0.0
  0
VERTEX
  5
161F6
  8
INCISIONE
 62
     7
 10
169.3965934473393133
 20
154.8607741806696083
 30
0.0
  0
VERTEX
  5
161F7
  8
INCISIONE
 62
     7
 10
169.6293445390423074
 20
154.9454109412887135
 30
0.0
  0
VERTEX
  5
161F8
  8
INCISIONE
 62
     7
 10
169.8409364405908093
 20
155.1146844625266965
 30
0.0
  0
VERTEX
  5
161F9
  8
INCISIONE
 62
     7
 10
170.0102099618291049
 20
155.326276364075909
 30
0.0
  0
VERTEX
  5
161FA
  8
INCISIONE
 62
     7
 10
170.0948467224482954
 20
155.5590274557787893
 30
0.0
  0
VERTEX
  5
161FB
  8
INCISIONE
 62
     7
 10
170.1371651027577911
 20
155.8129377376367017
 30
0.0
  0
VERTEX
  5
161FC
  8
INCISIONE
 62
     7
 10
170.1371651027577911
 20
157.3575586189386115
 30
0.0
  0
SEQEND
  5
161FD
  8
INCISIONE
 62
     7
  0
POLYLINE
  5
3BB1
  8
INCISIONE
 62
     7
 66
     1
 10
0.0
 20
0.0
 30
0.0
  0
VERTEX
  5
161FE
  8
INCISIONE
 62
     7
 10
169.3965934473393133
 20
154.8607741806696083
 30
0.0
  0
VERTEX
  5
161FF
  8
INCISIONE
 62
     7
 10
169.1426831654815999
 20
154.8184558003599136
 30
0.0
  0
SEQEND
  5
16200
  8
INCISIONE
 62
     7
  0
POLYLINE
  5
3BB5
  8
INCISIONE
 62
     7
 66
     1
 10
0.0
 20
0.0
 30
0.0
  0
VERTEX
  5
16201
  8
INCISIONE
 62
     7
 10
169.6293445390423074
 20
154.9454109412887135
 30
0.0
  0
VERTEX
  5
16202
  8
INCISIONE
 62
     7
 10
169.3965934473393133
 20
154.8607741806696083
 30
0.0
  0
SEQEND
  5
16203
  8
INCISIONE
 62
     7
  0
POLYLINE
  5
3BB9
  8
INCISIONE
 62
     7
 66
     1
 10
0.0
 20
0.0
 30
0.0
  0
VERTEX
  5
16204
  8
INCISIONE
 62
     7
 10
169.8409364405908093
 20
155.1146844625266965
 30
0.0
  0
VERTEX
  5
16205
  8
INCISIONE
 62
     7
 10
169.6293445390423074
 20
154.9454109412887135
 30
0.0
  0
SEQEND
  5
16206
  8
INCISIONE
 62
     7
  0
POLYLINE
  5
3BBD
  8
INCISIONE
 62
     7
 66
     1
 10
0.0
 20
0.0
 30
0.0
  0
VERTEX
  5
16207
  8
INCISIONE
 62
     7
 10
170.0102099618291049
 20
155.326276364075909
 30
0.0
  0
VERTEX
  5
16208
  8
INCISIONE
 62
     7
 10
169.8409364405908093
 20
155.1146844625266965
 30
0.0
  0
SEQEND
  5
16209
  8
INCISIONE
 62
     7
  0
POLYLINE
  5
3BC1
  8
INCISIONE
 62
     7
 66
     1
 10
0.0
 20
0.0
 30
0.0
  0
VERTEX
  5
1620A
  8
INCISIONE
 62
     7
 10
170.0948467224482954
 20
155.5590274557787893
 30
0.0
  0
VERTEX
  5
1620B
  8
INCISIONE
 62
     7
 10
170.0102099618291049
 20
155.326276364075909
 30
0.0
  0
SEQEND
  5
1620C
  8
INCISIONE
 62
     7
  0
POLYLINE
  5
3BC5
  8
INCISIONE
 62
     7
 66
     1
 10
0.0
 20
0.0
 30
0.0
  0
VERTEX
  5
1620D
  8
INCISIONE
 62
     7
 10
170.1371651027577911
 20
155.8129377376367017
 30
0.0
  0
VERTEX
  5
1620E
  8
INCISIONE
 62
     7
 10
170.0948467224482954
 20
155.5590274557787893
 30
0.0
  0
SEQEND
  5
1620F
  8
INCISIONE
 62
     7
  0
POLYLINE
  5
3BC9
  8
INCISIONE
 62
     7
 66
     1
 10
0.0
 20
0.0
 30
0.0
  0
VERTEX
  5
16210
  8
INCISIONE
 62
     7
 10
170.1371651027577911
 20
157.3575586189386115
 30
0.0
  0
VERTEX
  5
16211
  8
INCISIONE
 62
     7
 10
170.1371651027577911
 20
155.8129377376367017
 30
0.0
  0
SEQEND
  5
16212
  8
INCISIONE
 62
     7
  0
POLYLINE
  5
3BCD
  8
INCISIONE
 62
     7
 66
     1
 10
0.0
 20
0.0
 30
0.0
  0
VERTEX
  5
16213
  8
INCISIONE
 62
     7
 10
170.1371651027577911
 20
206.5949941092125073
 30
0.0
  0
VERTEX
  5
16214
  8
INCISIONE
 62
     7
 10
170.1371651027577911
 20
195.1690314256080114
 30
0.0
  0
SEQEND
  5
16215
  8
INCISIONE
 62
     7
  0
POLYLINE
  5
3BD1
  8
INCISIONE
 62
     7
 66
     1
 10
0.0
 20
0.0
 30
0.0
  0
VERTEX
  5
16216
  8
INCISIONE
 62
     7
 10
168.6137034116107998
 20
208.1184558003598113
 30
0.0
  0
VERTEX
  5
16217
  8
INCISIONE
 62
     7
 10
170.1371651027577911
 20
206.5949941092125073
 30
0.0
  0
SEQEND
  5
16218
  8
INCISIONE
 62
     7
  0
CIRCLE
  5
3BD5
  8
INCISIONE
 62
     7
 10
118.1067083370075039
 20
157.35745142015179
 30
0.0
 40
1.607991253000538
  0
CIRCLE
  5
3BD6
  8
INCISIONE
 62
     7
 10
119.380816171605602
 20
205.5792720964790021
 30
0.0
 40
1.608023998775425
  0
CIRCLE
  5
3BD7
  8
INCISIONE
 62
     7
 10
170.1381064363993119
 20
162.435662540749405
 30
0.0
 40
1.607997011951924
  0
CIRCLE
  5
3BD8
  8
INCISIONE
 62
     7
 10
170.1464516077795963
 20
190.3446825485625027
 30
0.0
 40
1.610468119514568
  0
ENDBLK
  5
3BD9
  8
0
  0
BLOCK
  8
0
  2
BACK_CROSSPIECE
 70
     0
 10
0.0
 20
0.0
 30
0.0
  3
BACK_CROSSPIECE
  1

  0
POLYLINE
  5
633C
  8
0
  6
BYBLOCK
 62
     5
 66
     1
 10
0.0
 20
0.0
 30
0.0
 70
     1
  0
VERTEX
  5
16219
  8
0
  6
BYBLOCK
 62
     5
 10
360.7909074952634114
 20
-33.8148773756510366
 30
0.0
 42
-0.2468412695862058
  0
VERTEX
  5
1621A
  8
0
  6
BYBLOCK
 62
     5
 10
355.6558672482050838
 20
-45.7482444106626431
 30
0.0
 42
0.247816801403622
  0
VERTEX
  5
1621B
  8
0
  6
BYBLOCK
 62
     5
 10
345.7909074952634114
 20
-63.8148752909950474
 30
0.0
  0
VERTEX
  5
1621C
  8
0
  6
BYBLOCK
 62
     5
 10
326.8220688148259114
 20
-63.8151504988985323
 30
0.0
  0
VERTEX
  5
1621D
  8
0
  6
BYBLOCK
 62
     5
 10
326.8220718733998069
 20
-66.815146675675436
 30
0.0
  0
VERTEX
  5
1621E
  8
0
  6
BYBLOCK
 62
     5
 10
323.3220728761430109
 20
-66.815150244014518
 30
0.0
  0
VERTEX
  5
1621F
  8
0
  6
BYBLOCK
 62
     5
 10
323.3258354764676028
 20
-57.7176987415508194
 30
0.0
  0
VERTEX
  5
16220
  8
0
  6
BYBLOCK
 62
     5
 10
324.5757778733997725
 20
-57.8542346756754284
 30
0.0
  0
VERTEX
  5
16221
  8
0
  6
BYBLOCK
 62
     5
 10
324.5767298733998132
 20
-55.6342356756754626
 30
0.0
  0
VERTEX
  5
16222
  8
0
  6
BYBLOCK
 62
     5
 10
323.3267134987456757
 20
-55.6736996559328219
 30
0.0
  0
VERTEX
  5
16223
  8
0
  6
BYBLOCK
 62
     5
 10
323.3277078748827762
 20
-53.3551542911017407
 30
0.0
  0
VERTEX
  5
16224
  8
0
  6
BYBLOCK
 62
     5
 10
321.8277078748827762
 20
-53.3545102911017111
 30
0.0
  0
VERTEX
  5
16225
  8
0
  6
BYBLOCK
 62
     5
 10
320.3277078748827762
 20
-53.3551542911017407
 30
0.0
  0
VERTEX
  5
16226
  8
0
  6
BYBLOCK
 62
     5
 10
320.328702874882822
 20
-55.6751542911018404
 30
0.0
  0
VERTEX
  5
16227
  8
0
  6
BYBLOCK
 62
     5
 10
319.0786858748829218
 20
-55.6356902911015894
 30
0.0
  0
VERTEX
  5
16228
  8
0
  6
BYBLOCK
 62
     5
 10
319.0796378748830193
 20
-57.8556892911017471
 30
0.0
  0
VERTEX
  5
16229
  8
0
  6
BYBLOCK
 62
     5
 10
320.3295808748828222
 20
-57.7191532911018115
 30
0.0
  0
VERTEX
  5
1622A
  8
0
  6
BYBLOCK
 62
     5
 10
320.3333428748828169
 20
-66.8151532911018506
 30
0.0
  0
VERTEX
  5
1622B
  8
0
  6
BYBLOCK
 62
     5
 10
316.8220718734044112
 20
-66.8151568709330093
 30
0.0
  0
VERTEX
  5
1622C
  8
0
  6
BYBLOCK
 62
     5
 10
316.8220688148272757
 20
-63.815156870934608
 30
0.0
  0
VERTEX
  5
1622D
  8
0
  6
BYBLOCK
 62
     5
 10
297.8645082735988012
 20
-63.8148773847212567
 30
0.0
 42
0.2478168271016065
  0
VERTEX
  5
1622E
  8
0
  6
BYBLOCK
 62
     5
 10
287.9995485015605254
 20
-45.7482444106626431
 30
0.0
 42
-0.2468412695862082
  0
VERTEX
  5
1622F
  8
0
  6
BYBLOCK
 62
     5
 10
282.8645082545024252
 20
-33.8148773756510366
 30
0.0
  0
VERTEX
  5
16230
  8
0
  6
BYBLOCK
 62
     5
 10
293.8281082497056786
 20
-33.8148773756510366
 30
0.0
  0
VERTEX
  5
16231
  8
0
  6
BYBLOCK
 62
     5
 10
293.8273167966871142
 20
-30.7862333316525394
 30
0.0
  0
VERTEX
  5
16232
  8
0
  6
BYBLOCK
 62
     5
 10
297.3264637805111192
 20
-30.7847950327116315
 30
0.0
  0
VERTEX
  5
16233
  8
0
  6
BYBLOCK
 62
     5
 10
297.3304613862434849
 20
-39.7822669334605408
 30
0.0
  0
VERTEX
  5
16234
  8
0
  6
BYBLOCK
 62
     5
 10
296.0803403862432788
 20
-39.7462529334606174
 30
0.0
  0
VERTEX
  5
16235
  8
0
  6
BYBLOCK
 62
     5
 10
296.0874193862434822
 20
-41.9662409334604831
 30
0.0
  0
VERTEX
  5
16236
  8
0
  6
BYBLOCK
 62
     5
 10
297.3372853862434795
 20
-41.922255933460491
 30
0.0
  0
VERTEX
  5
16237
  8
0
  6
BYBLOCK
 62
     5
 10
297.3446833862432754
 20
-44.2422439334606281
 30
0.0
  0
VERTEX
  5
16238
  8
0
  6
BYBLOCK
 62
     5
 10
298.8446753862432956
 20
-44.2374609334605324
 30
0.0
  0
VERTEX
  5
16239
  8
0
  6
BYBLOCK
 62
     5
 10
300.3446673862433158
 20
-44.2422439334606281
 30
0.0
  0
VERTEX
  5
1623A
  8
0
  6
BYBLOCK
 62
     5
 10
300.3520653862435097
 20
-41.922255933460491
 30
0.0
  0
VERTEX
  5
1623B
  8
0
  6
BYBLOCK
 62
     5
 10
301.6019313862432796
 20
-41.9662409334604831
 30
0.0
  0
VERTEX
  5
1623C
  8
0
  6
BYBLOCK
 62
     5
 10
301.609010386243483
 20
-39.7462529334606174
 30
0.0
  0
VERTEX
  5
1623D
  8
0
  6
BYBLOCK
 62
     5
 10
300.3588893862432769
 20
-39.7822669334605408
 30
0.0
  0
VERTEX
  5
1623E
  8
0
  6
BYBLOCK
 62
     5
 10
300.3628873448304262
 20
-30.7840008577585209
 30
0.0
  0
VERTEX
  5
1623F
  8
0
  6
BYBLOCK
 62
     5
 10
303.8273163178303093
 20
-30.7830947382208002
 30
0.0
  0
VERTEX
  5
16240
  8
0
  6
BYBLOCK
 62
     5
 10
303.828099974252325
 20
-33.7793020806786117
 30
0.0
  0
VERTEX
  5
16241
  8
0
  6
BYBLOCK
 62
     5
 10
310.6165431194302187
 20
-33.779605376200287
 30
0.0
 42
0.1711447725787109
  0
VERTEX
  5
16242
  8
0
  6
BYBLOCK
 62
     5
 10
321.8277083847268045
 20
-37.8724940429782819
 30
0.0
 42
0.1706609355824858
  0
VERTEX
  5
16243
  8
0
  6
BYBLOCK
 62
     5
 10
333.0486703237734218
 20
-33.7806076036002025
 30
0.0
  0
VERTEX
  5
16244
  8
0
  6
BYBLOCK
 62
     5
 10
339.8269245606201139
 20
-33.7809104438996073
 30
0.0
  0
VERTEX
  5
16245
  8
0
  6
BYBLOCK
 62
     5
 10
339.8277082170420158
 20
-30.7847031014419201
 30
0.0
  0
VERTEX
  5
16246
  8
0
  6
BYBLOCK
 62
     5
 10
343.2921371900416716
 20
-30.7856092209795804
 30
0.0
  0
VERTEX
  5
16247
  8
0
  6
BYBLOCK
 62
     5
 10
343.2961351486288777
 20
-39.7838752966814866
 30
0.0
  0
VERTEX
  5
16248
  8
0
  6
BYBLOCK
 62
     5
 10
342.0460141486287853
 20
-39.7478612966815206
 30
0.0
  0
VERTEX
  5
16249
  8
0
  6
BYBLOCK
 62
     5
 10
342.053093148628875
 20
-41.967849296681571
 30
0.0
  0
VERTEX
  5
1624A
  8
0
  6
BYBLOCK
 62
     5
 10
343.3029591486288155
 20
-41.9238642966816002
 30
0.0
  0
VERTEX
  5
1624B
  8
0
  6
BYBLOCK
 62
     5
 10
343.3103571486288956
 20
-44.2438522966815171
 30
0.0
  0
VERTEX
  5
1624C
  8
0
  6
BYBLOCK
 62
     5
 10
344.8103491486289158
 20
-44.239069296681599
 30
0.0
  0
VERTEX
  5
1624D
  8
0
  6
BYBLOCK
 62
     5
 10
346.3103411486287087
 20
-44.2438522966815171
 30
0.0
  0
VERTEX
  5
1624E
  8
0
  6
BYBLOCK
 62
     5
 10
346.3177391486289025
 20
-41.9238642966816002
 30
0.0
  0
VERTEX
  5
1624F
  8
0
  6
BYBLOCK
 62
     5
 10
347.5676051486287861
 20
-41.967849296681571
 30
0.0
  0
VERTEX
  5
16250
  8
0
  6
BYBLOCK
 62
     5
 10
347.574684148628819
 20
-39.7478612966815206
 30
0.0
  0
VERTEX
  5
16251
  8
0
  6
BYBLOCK
 62
     5
 10
346.3245631486290108
 20
-39.7838752966814866
 30
0.0
  0
VERTEX
  5
16252
  8
0
  6
BYBLOCK
 62
     5
 10
346.3285607543613196
 20
-30.7864033959325205
 30
0.0
  0
VERTEX
  5
16253
  8
0
  6
BYBLOCK
 62
     5
 10
349.8277078748827762
 20
-30.7873185959831197
 30
0.0
  0
VERTEX
  5
16254
  8
0
  6
BYBLOCK
 62
     5
 10
349.8277078748827762
 20
-33.8148773756510366
 30
0.0
  0
SEQEND
  5
16255
  8
0
  6
BYBLOCK
 62
     5
  0
ENDBLK
  5
633E
  8
0
  0
BLOCK
  8
0
  2
SERVO_MOUNT
 70
     0
 10
0.0
 20
0.0
 30
0.0
  3
SERVO_MOUNT
  1

  0
LINE
  5
67D2
  8
LAYER0
 62
     2
 10
664.801660831227764
 20
627.7436340950361
 30
0.0
 11
664.801660831227764
 21
604.7436340950362137
 31
0.0
  0
LINE
  5
67D3
  8
LAYER0
 62
     2
 10
650.6016608312279459
 20
634.7436340950362137
 30
0.0
 11
666.6016608312284006
 21
634.7436340950362137
 31
0.0
  0
LINE
  5
67D4
  8
LAYER0
 62
     2
 10
652.4016608312280141
 20
604.7436340950362137
 30
0.0
 11
652.4016608312280141
 21
627.7436340950361
 31
0.0
  0
LINE
  5
67D5
  8
0
  6
BYBLOCK
 62
     2
 10
650.6016608312279459
 20
629.7436340950362137
 30
16.0
 11
666.6016608312284006
 21
629.7436340950362137
 31
16.0
  0
CIRCLE
  5
67D6
  8
0
  6
BYBLOCK
 62
     2
 10
647.4016608312280141
 20
616.2436340950350768
 30
16.0
 40
1.55
  0
LINE
  5
67D7
  8
0
  6
BYBLOCK
 62
     2
 10
647.432246238588391
 20
619.4434879249555479
 30
16.0
 11
649.0600413786635272
 21
619.4434879249555479
 31
7.782481754933241
  0
ARC
  5
67D8
  8
0
  6
BYBLOCK
 62
     2
 10
649.0600413786635272
 20
620.9934879249556161
 30
7.782481754933241
 40
1.55
 50
270.0
 51
5.960790366477462
  0
ARC
  5
67D9
  8
0
  6
BYBLOCK
 62
     2
 10
649.0600413786635272
 20
611.4937802651146512
 30
7.782481754933241
 40
1.55
 50
354.0392096335224892
 51
90.0
  0
LINE
  5
67DA
  8
0
  6
BYBLOCK
 62
     2
 10
647.432246238588391
 20
613.0437802651147194
 30
16.0
 11
649.0600413786635272
 21
613.0437802651147194
 31
7.782481754933241
  0
ARC
  5
67DB
  8
0
  6
BYBLOCK
 62
     2
 10
647.4016608312280141
 20
616.2436340950350768
 30
16.0
 40
3.2000000000000002
 50
89.4523620502168342
 51
270.5476379497835069
  0
CIRCLE
  5
67DC
  8
0
  6
BYBLOCK
 62
     2
 10
669.8016608312276503
 20
616.2436340950350768
 30
16.0
 40
1.55
  0
LINE
  5
67DD
  8
0
  6
BYBLOCK
 62
     2
 10
669.7710754238672735
 20
619.4434879249555479
 30
16.0
 11
668.1432802837924783
 21
619.4434879249555479
 31
7.782481754933241
  0
ARC
  5
67DE
  8
0
  6
BYBLOCK
 62
     2
 10
668.1432802837924783
 20
620.9934879249556161
 30
7.782481754933241
 40
1.55
 50
174.0392096335224892
 51
270.0
  0
ARC
  5
67DF
  8
0
  6
BYBLOCK
 62
     2
 10
668.1432802837924783
 20
611.4937802651146512
 30
7.782481754933241
 40
1.55
 50
90.0
 51
185.9607903664775108
  0
LINE
  5
67E0
  8
0
  6
BYBLOCK
 62
     2
 10
669.7710754238672735
 20
613.0437802651147194
 30
16.0
 11
668.1432802837924783
 21
613.0437802651147194
 31
7.782481754933241
  0
ARC
  5
67E1
  8
0
  6
BYBLOCK
 62
     2
 10
669.8016608312276503
 20
616.2436340950350768
 30
16.0
 40
3.2000000000000002
 50
269.4523620502147878
 51
90.5476379497851838
  0
LINE
  5
67E2
  8
LAYER0
 62
     2
 10
650.6016608312279459
 20
597.7436340950343947
 30
0.0
 11
666.6016608312284006
 21
597.7436340950343947
 31
0.0
  0
LINE
  5
67E3
  8
0
  6
BYBLOCK
 62
     2
 10
650.6016608312279459
 20
602.7436340950343947
 30
16.0
 11
666.6016608312284006
 21
602.7436340950343947
 31
16.0
  0
POLYLINE
  5
67E4
  8
0
  6
BYBLOCK
 62
     2
 66
     1
 10
0.0
 20
0.0
 30
9.1696752100246623
 70
     1
  0
VERTEX
  5
16256
  8
0
  6
BYBLOCK
 62
     2
 10
652.4016608312280141
 20
627.7436340950361
 30
9.1696752100246623
  0
VERTEX
  5
16257
  8
0
  6
BYBLOCK
 62
     2
 10
652.4016608312280141
 20
604.7436340950362137
 30
9.1696752100246623
  0
VERTEX
  5
16258
  8
0
  6
BYBLOCK
 62
     2
 10
664.801660831227764
 20
604.7436340950362137
 30
9.1696752100246623
  0
VERTEX
  5
16259
  8
0
  6
BYBLOCK
 62
     2
 10
664.801660831227764
 20
627.7436340950361
 30
9.1696752100246623
  0
SEQEND
  5
1625A
  8
0
  6
BYBLOCK
 62
     2
  0
POLYLINE
  5
67E5
  8
0
  6
BYBLOCK
 62
     2
 66
     1
 10
0.0
 20
0.0
 30
650.6016608312279459
210
1.0
220
0.0
230
0.0
  0
VERTEX
  5
1625B
  8
0
  6
BYBLOCK
 62
     2
 10
621.1544520932491196
 20
7.782481754933241
 30
650.6016608312279459
  0
VERTEX
  5
1625C
  8
0
  6
BYBLOCK
 62
     2
 10
629.7436340950362137
 20
16.0
 30
650.6016608312279459
  0
VERTEX
  5
1625D
  8
0
  6
BYBLOCK
 62
     2
 10
634.7436340950362137
 20
0.0
 30
650.6016608312279459
  0
VERTEX
  5
1625E
  8
0
  6
BYBLOCK
 62
     2
 10
634.7436340950362137
 20
3.0
 30
650.6016608312279459
  0
SEQEND
  5
1625F
  8
0
  6
BYBLOCK
 62
     2
  0
POLYLINE
  5
67E6
  8
0
  6
BYBLOCK
 62
     2
 66
     1
 10
0.0
 20
0.0
 30
666.60166083122499
210
1.0
220
-0.0000000000000049
230
0.0
  0
VERTEX
  5
16260
  8
0
  6
BYBLOCK
 62
     2
 10
634.7436340950393969
 20
3.0
 30
666.60166083122499
  0
VERTEX
  5
16261
  8
0
  6
BYBLOCK
 62
     2
 10
634.7436340950393969
 20
0.0
 30
666.60166083122499
  0
VERTEX
  5
16262
  8
0
  6
BYBLOCK
 62
     2
 10
629.7436340950395106
 20
16.0
 30
666.60166083122499
  0
VERTEX
  5
16263
  8
0
  6
BYBLOCK
 62
     2
 10
621.0072351828600858
 20
12.0
 30
666.60166083122499
  0
SEQEND
  5
16264
  8
0
  6
BYBLOCK
 62
     2
  0
POLYLINE
  5
67E7
  8
0
  6
BYBLOCK
 62
     2
 66
     1
 10
0.0
 20
0.0
 30
666.6016608312311291
210
1.0
220
0.0000000000000049
230
0.0
  0
VERTEX
  5
16265
  8
0
  6
BYBLOCK
 62
     2
 10
597.7436340950313252
 20
3.0
 30
666.6016608312311291
  0
VERTEX
  5
16266
  8
0
  6
BYBLOCK
 62
     2
 10
597.7436340950313252
 20
0.0
 30
666.6016608312311291
  0
VERTEX
  5
16267
  8
0
  6
BYBLOCK
 62
     2
 10
602.7436340950312115
 20
16.0
 30
666.6016608312311291
  0
VERTEX
  5
16268
  8
0
  6
BYBLOCK
 62
     2
 10
611.4800330072105226
 20
12.0
 30
666.6016608312311291
  0
SEQEND
  5
16269
  8
0
  6
BYBLOCK
 62
     2
  0
POLYLINE
  5
67E8
  8
0
  6
BYBLOCK
 62
     2
 66
     1
 10
0.0
 20
0.0
 30
650.6016608312279459
210
1.0
220
0.0
230
0.0
  0
VERTEX
  5
1626A
  8
0
  6
BYBLOCK
 62
     2
 10
611.3328160968212615
 20
7.782481754933241
 30
650.6016608312279459
  0
VERTEX
  5
1626B
  8
0
  6
BYBLOCK
 62
     2
 10
602.7436340950343947
 20
16.0
 30
650.6016608312279459
  0
VERTEX
  5
1626C
  8
0
  6
BYBLOCK
 62
     2
 10
597.7436340950343947
 20
0.0
 30
650.6016608312279459
  0
VERTEX
  5
1626D
  8
0
  6
BYBLOCK
 62
     2
 10
597.7436340950343947
 20
3.0
 30
650.6016608312279459
  0
VERTEX
  5
1626E
  8
0
  6
BYBLOCK
 62
     2
 10
597.7436340950362137
 20
0.0
 30
650.6016608312279459
  0
SEQEND
  5
1626F
  8
0
  6
BYBLOCK
 62
     2
  0
ENDBLK
  5
67E9
  8
0
  0
BLOCK
  8
0
  2
CAP
 70
     0
 10
0.0
 20
0.0
 30
0.0
  3
CAP
  1

  0
POLYLINE
  5
763D
  8
0
 62
     5
 66
     1
 10
0.0
 20
0.0
 30
0.0
 70
     1
  0
VERTEX
  5
16279
  8
0
 62
     5
 10
-424.4549700801114227
 20
1104.6217586904019754
 30
0.0
 42
0.9999999999999998
  0
VERTEX
  5
1627A
  8
0
 62
     5
 10
-424.4549700801114227
 20
1086.6217586904019754
 30
0.0
 42
0.9999999999999998
  0
SEQEND
  5
1627B
  8
0
 62
     5
  0
POLYLINE
  5
763E
  8
0
 62
     1
 66
     1
 10
0.0
 20
0.0
 30
0.0
 70
     1
  0
VERTEX
  5
1627C
  8
0
 62
     1
 10
-424.4549700801114227
 20
1094.1217586904019754
 30
0.0
 42
-0.9999999999999998
  0
VERTEX
  5
1627D
  8
0
 62
     1
 10
-424.4549700801114227
 20
1097.1217586904019754
 30
0.0
 42
-0.9999999999999998
  0
SEQEND
  5
1627E
  8
0
 62
     1
  0
ENDBLK
  5
763F
  8
0
  0
BLOCK
  8
0
  2
BUMPER
 70
     0
 10
0.0
 20
0.0
 30
0.0
  3
BUMPER
  1

  0
POLYLINE
  5
7671
  8
0
 62
     1
 66
     1
 10
0.0
 20
0.0
 30
0.0
 70
     1
  0
VERTEX
  5
1627F
  8
0
 62
     1
 10
-312.3630619803561217
 20
1098.2674241876200085
 30
0.0
 42
-0.9999999999999504
  0
VERTEX
  5
16280
  8
0
 62
     1
 10
-312.508436667535193
 20
1100.2621337404959831
 30
0.0
 42
-0.9999999999999358
  0
SEQEND
  5
16281
  8
0
 62
     1
  0
POLYLINE
  5
7672
  8
0
 62
     1
 66
     1
 10
0.0
 20
0.0
 30
0.0
 70
     1
  0
VERTEX
  5
16282
  8
0
 62
     1
 10
-312.3630619803561217
 20
1038.260368216813049
 30
0.0
 42
-0.9999999999999998
  0
VERTEX
  5
16283
  8
0
 62
     1
 10
-312.508436667535193
 20
1040.2550777696869773
 30
0.0
 42
-0.9999999999999998
  0
SEQEND
  5
16284
  8
0
 62
     1
  0
POLYLINE
  5
7673
  8
0
 62
     5
 66
     1
 10
0.0
 20
0.0
 30
0.0
 70
     1
  0
VERTEX
  5
16285
  8
0
 62
     5
 10
-311.7988451223641277
 20
1129.2076133704420045
 30
0.0
 42
0.1084293107005381
  0
VERTEX
  5
16286
  8
0
 62
     5
 10
-324.0808129239030109
 20
1069.260926630565109
 30
0.0
 42
0.1084293107005685
  0
VERTEX
  5
16287
  8
0
 62
     5
 10
-311.7965343268950846
 20
1009.3147133763479815
 30
0.0
 42
0.4605494227248822
  0
VERTEX
  5
16288
  8
0
 62
     5
 10
-304.4887503979937264
 20
1007.2305921154619455
 30
0.0
  0
VERTEX
  5
16289
  8
0
 62
     5
 10
-301.4238941068931013
 20
1009.2621845959480424
 30
0.0
 42
0.2363592900970391
  0
VERTEX
  5
1628A
  8
0
 62
     5
 10
-300.6372859590770759
 20
1014.4134252162630219
 30
0.0
  0
VERTEX
  5
1628B
  8
0
 62
     5
 10
-304.1918837123131993
 20
1029.7610468692830636
 30
0.0
 42
-0.2789209437570487
  0
VERTEX
  5
1628C
  8
0
 62
     5
 10
-303.7415256082276187
 20
1031.2470288801418974
 30
0.0
 42
0.2244020418737852
  0
VERTEX
  5
1628D
  8
0
 62
     5
 10
-303.3306128442848149
 20
1032.3754704090090399
 30
0.0
 42
-0.0303606642357121
  0
VERTEX
  5
1628E
  8
0
 62
     5
 10
-303.3306128442848149
 20
1106.1636042289640045
 30
0.0
 42
0.2213240800365052
  0
VERTEX
  5
1628F
  8
0
 62
     5
 10
-303.7429909702001964
 20
1107.2756083847059472
 30
0.0
 42
-0.2789209437571599
  0
VERTEX
  5
16290
  8
0
 62
     5
 10
-304.1934063550831979
 20
1108.7615730342099596
 30
0.0
  0
VERTEX
  5
16291
  8
0
 62
     5
 10
-300.63940021941238
 20
1124.1093316972589946
 30
0.0
 42
0.2363592900970416
  0
VERTEX
  5
16292
  8
0
 62
     5
 10
-301.4262069349233002
 20
1129.2605419918409098
 30
0.0
  0
VERTEX
  5
16293
  8
0
 62
     5
 10
-304.4911415368861753
 20
1131.2920163277760821
 30
0.0
 42
0.4605494227259449
  0
SEQEND
  5
16294
  8
0
 62
     5
  0
POLYLINE
  5
7674
  8
0
 62
     1
 66
     1
 10
0.0
 20
0.0
 30
0.0
 70
     1
  0
VERTEX
  5
16295
  8
0
 62
     1
 10
-308.0748124408451076
 20
1069.2971569549611104
 30
0.0
  0
VERTEX
  5
16296
  8
0
 62
     1
 10
-308.1899071604788105
 20
1070.1502728164889504
 30
0.0
  0
VERTEX
  5
16297
  8
0
 62
     1
 10
-308.5307682938504854
 20
1070.9706039138900451
 30
0.0
  0
VERTEX
  5
16298
  8
0
 62
     1
 10
-309.0842967387602016
 20
1071.7266253831389804
 30
0.0
  0
VERTEX
  5
16299
  8
0
 62
     1
 10
-309.8292207074940734
 20
1072.3892837431560565
 30
0.0
  0
VERTEX
  5
1629A
  8
0
 62
     1
 10
-310.7369131896916201
 20
1072.9331134047870364
 30
0.0
  0
VERTEX
  5
1629B
  8
0
 62
     1
 10
-311.772492072300679
 20
1073.3372152991180428
 30
0.0
  0
VERTEX
  5
1629C
  8
0
 62
     1
 10
-312.8961606396237016
 20
1073.5860600169760346
 30
0.0
  0
VERTEX
  5
1629D
  8
0
 62
     1
 10
-314.064736938777628
 20
1073.6700845954039778
 30
0.0
  0
VERTEX
  5
1629E
  8
0
 62
     1
 10
-315.2333132379312133
 20
1073.5860600169760346
 30
0.0
  0
VERTEX
  5
1629F
  8
0
 62
     1
 10
-316.3569818052532128
 20
1073.3372152991180428
 30
0.0
  0
VERTEX
  5
162A0
  8
0
 62
     1
 10
-317.3925606878623853
 20
1072.9331134047870364
 30
0.0
  0
VERTEX
  5
162A1
  8
0
 62
     1
 10
-318.3002531700598752
 20
1072.3892837431560565
 30
0.0
  0
VERTEX
  5
162A2
  8
0
 62
     1
 10
-319.0451771387938038
 20
1071.7266253831389804
 30
0.0
  0
VERTEX
  5
162A3
  8
0
 62
     1
 10
-319.5987055837043727
 20
1070.9706039138900451
 30
0.0
  0
VERTEX
  5
162A4
  8
0
 62
     1
 10
-319.9395667170750244
 20
1070.1502728164889504
 30
0.0
  0
VERTEX
  5
162A5
  8
0
 62
     1
 10
-320.0546614367090115
 20
1069.2971569549611104
 30
0.0
  0
VERTEX
  5
162A6
  8
0
 62
     1
 10
-319.9395667170750244
 20
1068.444041093433043
 30
0.0
  0
VERTEX
  5
162A7
  8
0
 62
     1
 10
-319.5987055837043727
 20
1067.6237099960330852
 30
0.0
  0
VERTEX
  5
162A8
  8
0
 62
     1
 10
-319.0451771387938038
 20
1066.867688526783013
 30
0.0
  0
VERTEX
  5
162A9
  8
0
 62
     1
 10
-318.3002531700598752
 20
1066.2050301667670738
 30
0.0
  0
VERTEX
  5
162AA
  8
0
 62
     1
 10
-317.3925606878623853
 20
1065.6612005051360939
 30
0.0
  0
VERTEX
  5
162AB
  8
0
 62
     1
 10
-316.3569818052532128
 20
1065.2570986108039506
 30
0.0
  0
VERTEX
  5
162AC
  8
0
 62
     1
 10
-315.2333132379312133
 20
1065.0082538929470957
 30
0.0
  0
VERTEX
  5
162AD
  8
0
 62
     1
 10
-314.064736938777628
 20
1064.9242293145189251
 30
0.0
  0
VERTEX
  5
162AE
  8
0
 62
     1
 10
-312.8961606396237016
 20
1065.0082538929470957
 30
0.0
  0
VERTEX
  5
162AF
  8
0
 62
     1
 10
-311.772492072300679
 20
1065.2570986108039506
 30
0.0
  0
VERTEX
  5
162B0
  8
0
 62
     1
 10
-310.7369131896916201
 20
1065.6612005051360939
 30
0.0
  0
VERTEX
  5
162B1
  8
0
 62
     1
 10
-309.8292207074940734
 20
1066.2050301667670738
 30
0.0
  0
VERTEX
  5
162B2
  8
0
 62
     1
 10
-309.0842967387602016
 20
1066.867688526783013
 30
0.0
  0
VERTEX
  5
162B3
  8
0
 62
     1
 10
-308.5307682938504854
 20
1067.6237099960330852
 30
0.0
  0
VERTEX
  5
162B4
  8
0
 62
     1
 10
-308.1899071604788105
 20
1068.444041093433043
 30
0.0
  0
SEQEND
  5
162B5
  8
0
 62
     1
  0
ENDBLK
  5
7675
  8
0
  0
BLOCK
  8
0
  2
*D13
 70
     1
 10
0.0
 20
0.0
 30
0.0
  3
*D13
  1

  0
LINE
  5
7C2C
  8
0
  6
BYBLOCK
 62
     0
 10
126.0912169323526939
 20
130.0720843672596061
 30
0.0
 11
135.0389009727965117
 21
91.242800647245204
 31
0.0
  0
TEXT
  5
7C2D
  8
0
  6
CONTINUOUS
 62
     0
 10
152.7707818016187105
 20
135.1943942903037055
 30
0.0
 40
0.18
  1
\U+220540.0269
  0
SOLID
  5
7C2E
  8
0
 62
     0
 10
134.9692478099651112
 20
91.4114672915694086
 30
0.0
 11
135.0277155412503873
 21
91.424940390632301
 31
0.0
 12
135.0389009727965117
 22
91.242800647245204
 32
0.0
 13
135.0389009727965117
 23
91.242800647245204
 33
0.0
  0
SOLID
  5
7C2F
  8
0
 62
     0
 10
126.1204507979953036
 20
130.0788209167911873
 30
0.0
 11
126.0619830667100985
 21
130.0653478177281954
 31
0.0
 12
126.050797635163903
 22
130.2474875611152925
 32
0.0
 13
126.050797635163903
 23
130.2474875611152925
 33
0.0
  0
POINT
  5
7C30
  8
DEFPOINTS
 62
     0
 10
126.050797635163903
 20
130.2474875611152925
 30
0.0
  0
POINT
  5
7C31
  8
DEFPOINTS
 62
     0
 10
135.0389009727965117
 20
91.242800647245204
 30
0.0
  0
ENDBLK
  5
7C2B
  8
0
  0
BLOCK
  8
0
  2
*D14
 70
     1
 10
0.0
 20
0.0
 30
0.0
  3
*D14
  1

  0
LINE
  5
8EC2
  8
0
  6
BYBLOCK
 62
     0
 10
1185.4093481717341092
 20
-19.4523583880290687
 30
0.0
 11
1186.9790877711529902
 21
-21.7043579370207382
 31
0.0
  0
LINE
  5
8EC3
  8
0
  6
BYBLOCK
 62
     0
 10
1184.7282274873580263
 20
-19.9271285143045311
 30
0.0
 11
1186.2979670867780442
 21
-22.17912806329619
 31
0.0
  0
LINE
  5
8EC4
  8
0
  6
BYBLOCK
 62
     0
 10
1186.7284912269669803
 20
-21.6596212402029309
 30
0.0
 11
1186.3427037835949704
 21
-21.9285315191104608
 31
0.0
  0
SOLID
  5
8EC5
  8
0
 62
     0
 10
1186.7456462142479268
 20
-21.6842323436198789
 30
0.0
 11
1186.7113362396860339
 21
-21.6350101367859509
 31
0.0
 12
1186.8761578474689031
 22
-21.5566913165189611
 32
0.0
 13
1186.8761578474689031
 23
-21.5566913165189611
 33
0.0
  0
SOLID
  5
8EC6
  8
0
 62
     0
 10
1186.3255487963149335
 20
-21.9039204156934986
 30
0.0
 11
1186.3598587708759169
 21
-21.9531426225274089
 31
0.0
 12
1186.1950371630939571
 22
-22.0314614427944093
 32
0.0
 13
1186.1950371630939571
 23
-22.0314614427944093
 33
0.0
  0
TEXT
  5
8EC7
  8
0
  6
CONTINUOUS
 62
     0
 10
1186.450119757254015
 20
-22.3639928962874599
 30
0.0
 40
0.18
  1
0.8303
  0
POINT
  5
8EC8
  8
DEFPOINTS
 62
     0
 10
1185.3736086148990125
 20
-19.4010852559103988
 30
0.0
  0
POINT
  5
8EC9
  8
DEFPOINTS
 62
     0
 10
1184.6924879305240665
 20
-19.8758553821858506
 30
0.0
  0
POINT
  5
8ECA
  8
DEFPOINTS
 62
     0
 10
1186.1950371630939571
 20
-22.0314614427944093
 30
0.0
  0
ENDBLK
  5
8EC1
  8
0
  0
BLOCK
  8
0
  2
REAR_UPRIGHT
 70
     0
 10
0.0
 20
0.0
 30
0.0
  3
REAR_UPRIGHT
  1

  0
POLYLINE
  5
8EF0
  8
0
  6
BYBLOCK
 62
     5
 66
     1
 10
0.0
 20
0.0
 30
0.0
 70
     1
  0
VERTEX
  5
162B6
  8
0
  6
BYBLOCK
 62
     5
 10
-59.1431663228659232
 20
313.2325926595149213
 30
0.0
  0
VERTEX
  5
162B7
  8
0
  6
BYBLOCK
 62
     5
 10
-59.1441613228658767
 20
315.5525926595151986
 30
0.0
  0
VERTEX
  5
162B8
  8
0
  6
BYBLOCK
 62
     5
 10
-57.6441613228659122
 20
315.5532366595152212
 30
0.0
  0
VERTEX
  5
162B9
  8
0
  6
BYBLOCK
 62
     5
 10
-56.1441613228658909
 20
315.5525926595151986
 30
0.0
  0
VERTEX
  5
162BA
  8
0
  6
BYBLOCK
 62
     5
 10
-56.1451556990030127
 20
313.2340472946842169
 30
0.0
  0
VERTEX
  5
162BB
  8
0
  6
BYBLOCK
 62
     5
 10
-54.8951393243489889
 20
313.273511274941427
 30
0.0
  0
VERTEX
  5
162BC
  8
0
  6
BYBLOCK
 62
     5
 10
-54.8960913243489586
 20
311.0535122749415109
 30
0.0
  0
VERTEX
  5
162BD
  8
0
  6
BYBLOCK
 62
     5
 10
-56.1460337212811282
 20
311.1900482090661058
 30
0.0
  0
VERTEX
  5
162BE
  8
0
  6
BYBLOCK
 62
     5
 10
-56.1497963216056917
 20
302.0925967066024214
 30
0.0
  0
VERTEX
  5
162BF
  8
0
  6
BYBLOCK
 62
     5
 10
-52.6497973243489525
 20
302.0926002749415034
 30
0.0
  0
VERTEX
  5
162C0
  8
0
  6
BYBLOCK
 62
     5
 10
-52.6498003829227912
 20
305.092596451718407
 30
0.0
  0
VERTEX
  5
162C1
  8
0
  6
BYBLOCK
 62
     5
 10
-34.6806112586049906
 20
305.0928633610902807
 30
0.0
 42
0.2454223606170313
  0
VERTEX
  5
162C2
  8
0
  6
BYBLOCK
 62
     5
 10
-33.5782567951281905
 20
306.9328082671212883
 30
0.0
 42
-0.2257360173035453
  0
VERTEX
  5
162C3
  8
0
  6
BYBLOCK
 62
     5
 10
-23.8160019495434803
 20
323.1595025399544738
 30
0.0
 42
0.2468412695862052
  0
VERTEX
  5
162C4
  8
0
  6
BYBLOCK
 62
     5
 10
-18.6809617024853516
 20
335.0928695749657891
 30
0.0
  0
VERTEX
  5
162C5
  8
0
  6
BYBLOCK
 62
     5
 10
-29.6441613228659087
 20
335.0928695749657891
 30
0.0
  0
VERTEX
  5
162C6
  8
0
  6
BYBLOCK
 62
     5
 10
-29.6441613228659087
 20
338.1204283546338161
 30
0.0
  0
VERTEX
  5
162C7
  8
0
  6
BYBLOCK
 62
     5
 10
-33.1433084433874114
 20
338.1213435546844153
 30
0.0
  0
VERTEX
  5
162C8
  8
0
  6
BYBLOCK
 62
     5
 10
-33.14730604911977
 20
329.1238716539352822
 30
0.0
  0
VERTEX
  5
162C9
  8
0
  6
BYBLOCK
 62
     5
 10
-31.8971850491198516
 20
329.1598856539354188
 30
0.0
  0
VERTEX
  5
162CA
  8
0
  6
BYBLOCK
 62
     5
 10
-31.9042640491199414
 20
326.939897653935418
 30
0.0
  0
VERTEX
  5
162CB
  8
0
  6
BYBLOCK
 62
     5
 10
-33.1541300491199422
 20
326.9838826539353249
 30
0.0
  0
VERTEX
  5
162CC
  8
0
  6
BYBLOCK
 62
     5
 10
-33.1615280491197879
 20
324.6638946539353014
 30
0.0
  0
VERTEX
  5
162CD
  8
0
  6
BYBLOCK
 62
     5
 10
-34.6615200491198081
 20
324.6686776539352763
 30
0.0
  0
VERTEX
  5
162CE
  8
0
  6
BYBLOCK
 62
     5
 10
-36.1615120491198496
 20
324.6638946539353014
 30
0.0
  0
VERTEX
  5
162CF
  8
0
  6
BYBLOCK
 62
     5
 10
-36.1689100491199085
 20
326.9838826539353249
 30
0.0
  0
VERTEX
  5
162D0
  8
0
  6
BYBLOCK
 62
     5
 10
-37.4187760491197992
 20
326.939897653935418
 30
0.0
  0
VERTEX
  5
162D1
  8
0
  6
BYBLOCK
 62
     5
 10
-37.4258550491198818
 20
329.1598856539354188
 30
0.0
  0
VERTEX
  5
162D2
  8
0
  6
BYBLOCK
 62
     5
 10
-36.1757340491198534
 20
329.1238716539352822
 30
0.0
  0
VERTEX
  5
162D3
  8
0
  6
BYBLOCK
 62
     5
 10
-36.1797320077068321
 20
338.1221377296374158
 30
0.0
  0
VERTEX
  5
162D4
  8
0
  6
BYBLOCK
 62
     5
 10
-39.6441609807067792
 20
338.1230438491749055
 30
0.0
  0
VERTEX
  5
162D5
  8
0
  6
BYBLOCK
 62
     5
 10
-39.6449446371286172
 20
335.1268365067173249
 30
0.0
  0
VERTEX
  5
162D6
  8
0
  6
BYBLOCK
 62
     5
 10
-46.4231988739753874
 20
335.1271393470166799
 30
0.0
 42
-0.1706609355824805
  0
VERTEX
  5
162D7
  8
0
  6
BYBLOCK
 62
     5
 10
-57.644160813021827
 20
331.0352529076387214
 30
0.0
 42
-0.171144772578711
  0
VERTEX
  5
162D8
  8
0
  6
BYBLOCK
 62
     5
 10
-68.8553260783185124
 20
335.1281415744164747
 30
0.0
  0
VERTEX
  5
162D9
  8
0
  6
BYBLOCK
 62
     5
 10
-75.6437692234964345
 20
335.1284448699383915
 30
0.0
  0
VERTEX
  5
162DA
  8
0
  6
BYBLOCK
 62
     5
 10
-75.6445528799183506
 20
338.1246522123959721
 30
0.0
  0
VERTEX
  5
162DB
  8
0
  6
BYBLOCK
 62
     5
 10
-79.1089818529182622
 20
338.1237460928584255
 30
0.0
  0
VERTEX
  5
162DC
  8
0
  6
BYBLOCK
 62
     5
 10
-79.1129798115052836
 20
329.1254800171561214
 30
0.0
  0
VERTEX
  5
162DD
  8
0
  6
BYBLOCK
 62
     5
 10
-77.8628588115052338
 20
329.1614940171563717
 30
0.0
  0
VERTEX
  5
162DE
  8
0
  6
BYBLOCK
 62
     5
 10
-77.8699378115053094
 20
326.9415060171564278
 30
0.0
  0
VERTEX
  5
162DF
  8
0
  6
BYBLOCK
 62
     5
 10
-79.1198038115051787
 20
326.9854910171562778
 30
0.0
  0
VERTEX
  5
162E0
  8
0
  6
BYBLOCK
 62
     5
 10
-79.1272018115052731
 20
324.6655030171563112
 30
0.0
  0
VERTEX
  5
162E1
  8
0
  6
BYBLOCK
 62
     5
 10
-80.6271938115052933
 20
324.6702860171563998
 30
0.0
  0
VERTEX
  5
162E2
  8
0
  6
BYBLOCK
 62
     5
 10
-82.1271858115052993
 20
324.6655030171563112
 30
0.0
  0
VERTEX
  5
162E3
  8
0
  6
BYBLOCK
 62
     5
 10
-82.1345838115051805
 20
326.9854910171562778
 30
0.0
  0
VERTEX
  5
162E4
  8
0
  6
BYBLOCK
 62
     5
 10
-83.3844498115051351
 20
326.9415060171564278
 30
0.0
  0
VERTEX
  5
162E5
  8
0
  6
BYBLOCK
 62
     5
 10
-83.3915288115052533
 20
329.1614940171563717
 30
0.0
  0
VERTEX
  5
162E6
  8
0
  6
BYBLOCK
 62
     5
 10
-82.1414078115052178
 20
329.1254800171561214
 30
0.0
  0
VERTEX
  5
162E7
  8
0
  6
BYBLOCK
 62
     5
 10
-82.1454054172375834
 20
338.1229519179053113
 30
0.0
  0
VERTEX
  5
162E8
  8
0
  6
BYBLOCK
 62
     5
 10
-85.6445524010616168
 20
338.1215136189643999
 30
0.0
  0
VERTEX
  5
162E9
  8
0
  6
BYBLOCK
 62
     5
 10
-85.6437609480429956
 20
335.0928695749657891
 30
0.0
  0
VERTEX
  5
162EA
  8
0
  6
BYBLOCK
 62
     5
 10
-96.6073609432464764
 20
335.0928695749657891
 30
0.0
 42
0.2468412695862075
  0
VERTEX
  5
162EB
  8
0
  6
BYBLOCK
 62
     5
 10
-91.472320696188163
 20
323.1595025399541896
 30
0.0
 42
-0.2259994790336046
  0
VERTEX
  5
162EC
  8
0
  6
BYBLOCK
 62
     5
 10
-81.7096683536894091
 20
306.9160957066898163
 30
0.0
 42
0.2430499108146539
  0
VERTEX
  5
162ED
  8
0
  6
BYBLOCK
 62
     5
 10
-80.6073609241498872
 20
305.0928621945300279
 30
0.0
  0
VERTEX
  5
162EE
  8
0
  6
BYBLOCK
 62
     5
 10
-62.6498003829213985
 20
305.0925900796821111
 30
0.0
  0
VERTEX
  5
162EF
  8
0
  6
BYBLOCK
 62
     5
 10
-62.6497973243441493
 20
302.0925900796838732
 30
0.0
  0
VERTEX
  5
162F0
  8
0
  6
BYBLOCK
 62
     5
 10
-59.1385263228659426
 20
302.0925936595152166
 30
0.0
  0
VERTEX
  5
162F1
  8
0
  6
BYBLOCK
 62
     5
 10
-59.1422883228659728
 20
311.1885936595152202
 30
0.0
  0
VERTEX
  5
162F2
  8
0
  6
BYBLOCK
 62
     5
 10
-60.3922313228657686
 20
311.0520576595151283
 30
0.0
  0
VERTEX
  5
162F3
  8
0
  6
BYBLOCK
 62
     5
 10
-60.3931833228658874
 20
313.2720566595152718
 30
0.0
  0
SEQEND
  5
162F4
  8
0
  6
BYBLOCK
 62
     5
  0
ENDBLK
  5
8EF1
  8
0
  0
BLOCK
  8
0
  2
*D16
 70
     1
 10
0.0
 20
0.0
 30
0.0
  3
*D16
  1

  0
LINE
  5
94F8
  8
0
  6
BYBLOCK
 62
     0
 10
51.0577506115244688
 20
229.5019209966000062
 30
0.0
 11
51.0577506115244688
 21
237.0851401600990016
 31
0.0
  0
LINE
  5
94F9
  8
0
  6
BYBLOCK
 62
     0
 10
333.6189945597494102
 20
229.5019209966000062
 30
0.0
 11
333.6189945597494102
 21
237.0851401600990016
 31
0.0
  0
LINE
  5
94FA
  8
0
  6
BYBLOCK
 62
     0
 10
51.2377506115244898
 20
236.9051401600989095
 30
0.0
 11
191.6483725856367926
 21
236.9051401600989095
 31
0.0
  0
LINE
  5
94FB
  8
0
  6
BYBLOCK
 62
     0
 10
333.4389945597492897
 20
236.9051401600989095
 30
0.0
 11
193.028372585636987
 21
236.9051401600989095
 31
0.0
  0
SOLID
  5
94FC
  8
0
 62
     0
 10
51.2377506115244898
 20
236.935140160098797
 30
0.0
 11
51.2377506115244898
 21
236.8751401600989084
 31
0.0
 12
51.0577506115244688
 22
236.9051401600989095
 32
0.0
 13
51.0577506115244688
 23
236.9051401600989095
 33
0.0
  0
SOLID
  5
94FD
  8
0
 62
     0
 10
333.4389945597492897
 20
236.8751401600989084
 30
0.0
 11
333.4389945597492897
 21
236.935140160098797
 31
0.0
 12
333.6189945597494102
 22
236.9051401600989095
 32
0.0
 13
333.6189945597494102
 23
236.9051401600989095
 33
0.0
  0
TEXT
  5
94FE
  8
0
  6
CONTINUOUS
 62
     0
 10
191.738372585636796
 20
236.8151401600989061
 30
0.0
 40
0.18
  1
282.5612
  0
POINT
  5
94FF
  8
DEFPOINTS
 62
     0
 10
51.0577506115244688
 20
229.4394209966000062
 30
0.0
  0
POINT
  5
9500
  8
DEFPOINTS
 62
     0
 10
333.6189945597494102
 20
229.4394209966000062
 30
0.0
  0
POINT
  5
9501
  8
DEFPOINTS
 62
     0
 10
333.6189945597494102
 20
236.9051401600989095
 30
0.0
  0
ENDBLK
  5
94F7
  8
0
  0
BLOCK
  8
0
  2
*D17
 70
     1
 10
0.0
 20
0.0
 30
0.0
  3
*D17
  1

  0
LINE
  5
9508
  8
0
  6
BYBLOCK
 62
     0
 10
50.995250611524483
 20
229.4394209966000062
 30
0.0
 11
37.6657329273752097
 21
229.4394209966000062
 31
0.0
  0
LINE
  5
9509
  8
0
  6
BYBLOCK
 62
     0
 10
50.995250611524483
 20
15.2361702830033305
 30
0.0
 11
37.6657329273752097
 21
15.2361702830033305
 31
0.0
  0
LINE
  5
950A
  8
0
  6
BYBLOCK
 62
     0
 10
37.8457329273752094
 20
229.2594209965999994
 30
0.0
 11
37.8457329273752023
 21
122.5177956398017045
 31
0.0
  0
LINE
  5
950B
  8
0
  6
BYBLOCK
 62
     0
 10
37.8457329273752023
 20
15.4161702830033303
 30
0.0
 11
37.8457329273752023
 21
122.1577956398016056
 31
0.0
  0
SOLID
  5
950C
  8
0
 62
     0
 10
37.8757329273752035
 20
229.2594209965999994
 30
0.0
 11
37.8157329273752083
 21
229.2594209965999994
 31
0.0
 12
37.8457329273752094
 22
229.4394209966000062
 32
0.0
 13
37.8457329273752094
 23
229.4394209966000062
 33
0.0
  0
SOLID
  5
950D
  8
0
 62
     0
 10
37.815732927375187
 20
15.4161702830033303
 30
0.0
 11
37.8757329273752035
 21
15.4161702830033303
 31
0.0
 12
37.8457329273752023
 22
15.2361702830033305
 32
0.0
 13
37.8457329273752023
 23
15.2361702830033305
 33
0.0
  0
TEXT
  5
950E
  8
0
  6
CONTINUOUS
 62
     0
 10
37.2607329273752015
 20
122.2477956398016943
 30
0.0
 40
0.18
  1
214.2033
  0
POINT
  5
950F
  8
DEFPOINTS
 62
     0
 10
51.0577506115244688
 20
229.4394209966000062
 30
0.0
  0
POINT
  5
9510
  8
DEFPOINTS
 62
     0
 10
51.0577506115244688
 20
15.2361702830033305
 30
0.0
  0
POINT
  5
9511
  8
DEFPOINTS
 62
     0
 10
37.8457329273752023
 20
15.2361702830033305
 30
0.0
  0
ENDBLK
  5
9507
  8
0
  0
BLOCK
  8
0
  2
*D18
 70
     1
 10
0.0
 20
0.0
 30
0.0
  3
*D18
  1

  0
LINE
  5
9518
  8
0
  6
BYBLOCK
 62
     0
 10
130.4906980221813058
 20
27.4426270832080093
 30
0.0
 11
24.3055283727113007
 21
27.4426270832080093
 31
0.0
  0
LINE
  5
9519
  8
0
  6
BYBLOCK
 62
     0
 10
127.1158851715220948
 20
227.4958065748776903
 30
0.0
 11
24.3055283727113114
 21
227.4958065748776903
 31
0.0
  0
LINE
  5
951A
  8
0
  6
BYBLOCK
 62
     0
 10
24.4855283727113004
 20
27.622627083208009
 30
0.0
 11
24.4855283727113111
 21
127.2892168290428998
 31
0.0
  0
LINE
  5
951B
  8
0
  6
BYBLOCK
 62
     0
 10
24.4855283727113111
 20
227.3158065748777119
 30
0.0
 11
24.4855283727113111
 21
127.6492168290428992
 31
0.0
  0
SOLID
  5
951C
  8
0
 62
     0
 10
24.4555283727112993
 20
27.622627083208009
 30
0.0
 11
24.5155283727113087
 21
27.622627083208009
 31
0.0
 12
24.4855283727113004
 22
27.4426270832080093
 32
0.0
 13
24.4855283727113004
 23
27.4426270832080093
 33
0.0
  0
SOLID
  5
951D
  8
0
 62
     0
 10
24.5155283727113193
 20
227.3158065748777119
 30
0.0
 11
24.45552837271131
 21
227.3158065748777119
 31
0.0
 12
24.4855283727113111
 22
227.4958065748776903
 32
0.0
 13
24.4855283727113111
 23
227.4958065748776903
 33
0.0
  0
TEXT
  5
951E
  8
0
  6
CONTINUOUS
 62
     0
 10
23.9005283727113103
 20
127.3792168290429032
 30
0.0
 40
0.18
  1
200.0532
  0
POINT
  5
951F
  8
DEFPOINTS
 62
     0
 10
130.5531980221813058
 20
27.4426270832080093
 30
0.0
  0
POINT
  5
9520
  8
DEFPOINTS
 62
     0
 10
127.1783851715220948
 20
227.4958065748776903
 30
0.0
  0
POINT
  5
9521
  8
DEFPOINTS
 62
     0
 10
24.4855283727113111
 20
227.4958065748776903
 30
0.0
  0
ENDBLK
  5
9517
  8
0
  0
BLOCK
  8
0
  2
*D19
 70
     1
 10
0.0
 20
0.0
 30
0.0
  3
*D19
  1

  0
LINE
  5
9EEC
  8
0
  6
BYBLOCK
 62
     0
 10
1441.6787618149580794
 20
388.4727871132151904
 30
0.0
 11
1441.6787618149580794
 21
448.4151853832996153
 31
0.0
  0
LINE
  5
9EED
  8
0
  6
BYBLOCK
 62
     0
 10
2441.6787618149569425
 20
388.4727871132151904
 30
0.0
 11
2441.6787618149569425
 21
448.4151853832996153
 31
0.0
  0
LINE
  5
9EEE
  8
0
  6
BYBLOCK
 62
     0
 10
1441.8587618149579157
 20
448.2351853832993243
 30
0.0
 11
1941.0037618149578975
 21
448.2351853832993243
 31
0.0
  0
LINE
  5
9EEF
  8
0
  6
BYBLOCK
 62
     0
 10
2441.4987618149580157
 20
448.2351853832993243
 30
0.0
 11
1942.3537618149580339
 21
448.2351853832993243
 31
0.0
  0
SOLID
  5
9EF0
  8
0
 62
     0
 10
1441.8587618149579157
 20
448.2651853832995812
 30
0.0
 11
1441.8587618149579157
 21
448.2051853832995221
 31
0.0
 12
1441.6787618149580794
 22
448.2351853832993243
 32
0.0
 13
1441.6787618149580794
 23
448.2351853832993243
 33
0.0
  0
SOLID
  5
9EF1
  8
0
 62
     0
 10
2441.4987618149580157
 20
448.2051853832995221
 30
0.0
 11
2441.4987618149580157
 21
448.2651853832995812
 31
0.0
 12
2441.6787618149569425
 22
448.2351853832993243
 32
0.0
 13
2441.6787618149569425
 23
448.2351853832993243
 33
0.0
  0
TEXT
  5
9EF2
  8
0
  6
CONTINUOUS
 62
     0
 10
1941.093761814958043
 20
448.1451853832995766
 30
0.0
 40
0.18
  1
1000.0000
  0
POINT
  5
9EF3
  8
DEFPOINTS
 62
     0
 10
1441.6787618149580794
 20
388.4102871132153041
 30
0.0
  0
POINT
  5
9EF4
  8
DEFPOINTS
 62
     0
 10
2441.6787618149569425
 20
388.4102871132153041
 30
0.0
  0
POINT
  5
9EF5
  8
DEFPOINTS
 62
     0
 10
2441.6787618149569425
 20
448.2351853832993243
 30
0.0
  0
ENDBLK
  5
9EEB
  8
0
  0
BLOCK
  8
0
  2
*D20
 70
     1
 10
0.0
 20
0.0
 30
0.0
  3
*D20
  1

  0
LINE
  5
9EFC
  8
0
  6
BYBLOCK
 62
     0
 10
1441.6787618149580794
 20
388.4727871132151904
 30
0.0
 11
1441.6787618149580794
 21
436.1009072884335751
 31
0.0
  0
LINE
  5
9EFD
  8
0
  6
BYBLOCK
 62
     0
 10
2441.6787618149569425
 20
388.4727871132151904
 30
0.0
 11
2441.6787618149569425
 21
436.1009072884335751
 31
0.0
  0
LINE
  5
9EFE
  8
0
  6
BYBLOCK
 62
     0
 10
1441.8587618149579157
 20
435.9209072884336251
 30
0.0
 11
1941.0037618149578975
 21
435.9209072884336251
 31
0.0
  0
LINE
  5
9EFF
  8
0
  6
BYBLOCK
 62
     0
 10
2441.4987618149580157
 20
435.9209072884336251
 30
0.0
 11
1942.3537618149580339
 21
435.9209072884336251
 31
0.0
  0
SOLID
  5
9F00
  8
0
 62
     0
 10
1441.8587618149579157
 20
435.9509072884334842
 30
0.0
 11
1441.8587618149579157
 21
435.8909072884335956
 31
0.0
 12
1441.6787618149580794
 22
435.9209072884336251
 32
0.0
 13
1441.6787618149580794
 23
435.9209072884336251
 33
0.0
  0
SOLID
  5
9F01
  8
0
 62
     0
 10
2441.4987618149580157
 20
435.8909072884335956
 30
0.0
 11
2441.4987618149580157
 21
435.9509072884334842
 31
0.0
 12
2441.6787618149569425
 22
435.9209072884336251
 32
0.0
 13
2441.6787618149569425
 23
435.9209072884336251
 33
0.0
  0
TEXT
  5
9F02
  8
0
  6
CONTINUOUS
 62
     0
 10
1941.093761814958043
 20
435.8309072884335933
 30
0.0
 40
0.18
  1
1000.0000
  0
POINT
  5
9F03
  8
DEFPOINTS
 62
     0
 10
1441.6787618149580794
 20
388.4102871132153041
 30
0.0
  0
POINT
  5
9F04
  8
DEFPOINTS
 62
     0
 10
2441.6787618149569425
 20
388.4102871132153041
 30
0.0
  0
POINT
  5
9F05
  8
DEFPOINTS
 62
     0
 10
2441.6787618149569425
 20
435.9209072884336251
 30
0.0
  0
ENDBLK
  5
9EFB
  8
0
  0
BLOCK
  8
0
  2
*D21
 70
     1
 10
0.0
 20
0.0
 30
0.0
  3
*D21
  1

  0
LINE
  5
9F0C
  8
0
  6
BYBLOCK
 62
     0
 10
2441.7412618149569425
 20
388.4102871132153041
 30
0.0
 11
2543.2839275428409564
 21
388.4102871132153041
 31
0.0
  0
LINE
  5
9F0D
  8
0
  6
BYBLOCK
 62
     0
 10
2441.7412618149569425
 20
-211.5897128867844117
 30
0.0
 11
2543.2839275428409564
 21
-211.5897128867844117
 31
0.0
  0
LINE
  5
9F0E
  8
0
  6
BYBLOCK
 62
     0
 10
2543.1039275428411202
 20
388.2302871132151836
 30
0.0
 11
2543.1039275428411202
 21
88.5902871132154246
 31
0.0
  0
LINE
  5
9F0F
  8
0
  6
BYBLOCK
 62
     0
 10
2543.1039275428411202
 20
-211.4097128867844049
 30
0.0
 11
2543.1039275428411202
 21
88.2302871132153541
 31
0.0
  0
SOLID
  5
9F10
  8
0
 62
     0
 10
2543.1339275428408655
 20
388.2302871132151836
 30
0.0
 11
2543.0739275428409201
 21
388.2302871132151836
 31
0.0
 12
2543.1039275428411202
 22
388.4102871132153041
 32
0.0
 13
2543.1039275428411202
 23
388.4102871132153041
 33
0.0
  0
SOLID
  5
9F11
  8
0
 62
     0
 10
2543.0739275428409201
 20
-211.4097128867844049
 30
0.0
 11
2543.1339275428408655
 21
-211.4097128867844049
 31
0.0
 12
2543.1039275428411202
 22
-211.5897128867844117
 32
0.0
 13
2543.1039275428411202
 23
-211.5897128867844117
 33
0.0
  0
TEXT
  5
9F12
  8
0
  6
CONTINUOUS
 62
     0
 10
2542.5639275428411565
 20
88.3202871132154144
 30
0.0
 40
0.18
  1
600.0000
  0
POINT
  5
9F13
  8
DEFPOINTS
 62
     0
 10
2441.6787618149569425
 20
388.4102871132153041
 30
0.0
  0
POINT
  5
9F14
  8
DEFPOINTS
 62
     0
 10
2441.6787618149569425
 20
-211.5897128867844117
 30
0.0
  0
POINT
  5
9F15
  8
DEFPOINTS
 62
     0
 10
2543.1039275428411202
 20
-211.5897128867844117
 30
0.0
  0
ENDBLK
  5
9F0B
  8
0
  0
BLOCK
  8
0
  2
*D22
 70
     1
 10
0.0
 20
0.0
 30
0.0
  3
*D22
  1

  0
LINE
  5
A4B7
  8
0
  6
BYBLOCK
 62
     0
 10
670.0911853074942428
 20
250.3562006594274862
 30
0.0
 11
670.0911853074942428
 21
291.577737908123197
 31
0.0
  0
LINE
  5
A4B8
  8
0
  6
BYBLOCK
 62
     0
 10
1270.0911853074940154
 20
250.3562006594274862
 30
0.0
 11
1270.0911853074940154
 21
291.577737908123197
 31
0.0
  0
LINE
  5
A4B9
  8
0
  6
BYBLOCK
 62
     0
 10
670.2711853074941928
 20
291.3977379081230765
 30
0.0
 11
952.001185307494211
 21
291.3977379081230765
 31
0.0
  0
LINE
  5
A4BA
  8
0
  6
BYBLOCK
 62
     0
 10
1269.9111853074939518
 20
291.3977379081230765
 30
0.0
 11
988.1811853074940473
 21
291.3977379081230765
 31
0.0
  0
SOLID
  5
A4BB
  8
0
 62
     0
 10
670.2711853074941928
 20
291.4277379081228787
 30
0.0
 11
670.2711853074941928
 21
291.3677379081232175
 31
0.0
 12
670.0911853074942428
 22
291.3977379081230765
 32
0.0
 13
670.0911853074942428
 23
291.3977379081230765
 33
0.0
  0
SOLID
  5
A4BC
  8
0
 62
     0
 10
1269.9111853074939518
 20
291.3677379081232175
 30
0.0
 11
1269.9111853074939518
 21
291.4277379081228787
 31
0.0
 12
1270.0911853074940154
 22
291.3977379081230765
 32
0.0
 13
1270.0911853074940154
 23
291.3977379081230765
 33
0.0
  0
TEXT
  5
A4BD
  8
0
  6
CONTINUOUS
 62
     0
 10
952.0911853074942428
 20
288.3977379081230765
 30
0.0
 40
6.0
  1
600.0000
  0
POINT
  5
A4BE
  8
DEFPOINTS
 62
     0
 10
670.0911853074942428
 20
250.2937006594274862
 30
0.0
  0
POINT
  5
A4BF
  8
DEFPOINTS
 62
     0
 10
1270.0911853074940154
 20
250.2937006594274862
 30
0.0
  0
POINT
  5
A4C0
  8
DEFPOINTS
 62
     0
 10
1270.0911853074940154
 20
291.3977379081230765
 30
0.0
  0
ENDBLK
  5
A4B6
  8
0
  0
BLOCK
  8
0
  2
*D23
 70
     1
 10
0.0
 20
0.0
 30
0.0
  3
*D23
  1

  0
LINE
  5
A4C7
  8
0
  6
BYBLOCK
 62
     0
 10
670.0286853074944702
 20
250.2937006594274862
 30
0.0
 11
597.7373154817264549
 21
250.2937006594274862
 31
0.0
  0
LINE
  5
A4C8
  8
0
  6
BYBLOCK
 62
     0
 10
670.0286853074942428
 20
-249.7062993405722864
 30
0.0
 11
597.7373154817264549
 21
-249.7062993405722864
 31
0.0
  0
LINE
  5
A4C9
  8
0
  6
BYBLOCK
 62
     0
 10
597.9173154817265186
 20
250.1137006594275078
 30
0.0
 11
597.9173154817265186
 21
3.3837006594275461
 31
0.0
  0
LINE
  5
A4CA
  8
0
  6
BYBLOCK
 62
     0
 10
597.9173154817265186
 20
-249.526299340572308
 30
0.0
 11
597.9173154817265186
 21
-2.796299340572431
 31
0.0
  0
SOLID
  5
A4CB
  8
0
 62
     0
 10
597.9473154817264913
 20
250.1137006594275078
 30
0.0
 11
597.8873154817265458
 21
250.1137006594275078
 31
0.0
 12
597.9173154817265186
 22
250.2937006594274862
 32
0.0
 13
597.9173154817265186
 23
250.2937006594274862
 33
0.0
  0
SOLID
  5
A4CC
  8
0
 62
     0
 10
597.8873154817265458
 20
-249.526299340572308
 30
0.0
 11
597.9473154817264913
 21
-249.526299340572308
 31
0.0
 12
597.9173154817265186
 22
-249.7062993405722864
 32
0.0
 13
597.9173154817265186
 23
-249.7062993405722864
 33
0.0
  0
TEXT
  5
A4CD
  8
0
  6
CONTINUOUS
 62
     0
 10
579.9173154817265186
 20
-2.7062993405724001
 30
0.0
 40
6.0
  1
500.0000
  0
POINT
  5
A4CE
  8
DEFPOINTS
 62
     0
 10
670.0911853074942428
 20
250.2937006594274862
 30
0.0
  0
POINT
  5
A4CF
  8
DEFPOINTS
 62
     0
 10
670.0911853074942428
 20
-249.7062993405722864
 30
0.0
  0
POINT
  5
A4D0
  8
DEFPOINTS
 62
     0
 10
597.9173154817265186
 20
-249.7062993405722864
 30
0.0
  0
ENDBLK
  5
A4C6
  8
0
  0
BLOCK
  8
0
  2
*D24
 70
     1
 10
0.0
 20
0.0
 30
0.0
  3
*D24
  1

  0
LINE
  5
A4D7
  8
0
  6
BYBLOCK
 62
     0
 10
1441.6787618149580794
 20
388.4727871132151904
 30
0.0
 11
1441.6787618149580794
 21
461.1423524999436836
 31
0.0
  0
LINE
  5
A4D8
  8
0
  6
BYBLOCK
 62
     0
 10
2441.6787618149569425
 20
388.4727871132151904
 30
0.0
 11
2441.6787618149569425
 21
461.1423524999436836
 31
0.0
  0
LINE
  5
A4D9
  8
0
  6
BYBLOCK
 62
     0
 10
1441.8587618149579157
 20
460.9623524999435062
 30
0.0
 11
1922.0887618149579339
 21
460.9623524999435062
 31
0.0
  0
LINE
  5
A4DA
  8
0
  6
BYBLOCK
 62
     0
 10
2441.4987618149580157
 20
460.9623524999435062
 30
0.0
 11
1961.2687618149579976
 21
460.9623524999435062
 31
0.0
  0
SOLID
  5
A4DB
  8
0
 62
     0
 10
1441.8587618149579157
 20
460.9923524999437063
 30
0.0
 11
1441.8587618149579157
 21
460.9323524999438177
 31
0.0
 12
1441.6787618149580794
 22
460.9623524999435062
 32
0.0
 13
1441.6787618149580794
 23
460.9623524999435062
 33
0.0
  0
SOLID
  5
A4DC
  8
0
 62
     0
 10
2441.4987618149580157
 20
460.9323524999438177
 30
0.0
 11
2441.4987618149580157
 21
460.9923524999437063
 31
0.0
 12
2441.6787618149569425
 22
460.9623524999435062
 32
0.0
 13
2441.6787618149569425
 23
460.9623524999435062
 33
0.0
  0
TEXT
  5
A4DD
  8
0
  6
CONTINUOUS
 62
     0
 10
1922.1787618149580794
 20
457.9623524999436199
 30
0.0
 40
6.0
  1
1000.0000
  0
POINT
  5
A4DE
  8
DEFPOINTS
 62
     0
 10
1441.6787618149580794
 20
388.4102871132153041
 30
0.0
  0
POINT
  5
A4DF
  8
DEFPOINTS
 62
     0
 10
2441.6787618149569425
 20
388.4102871132153041
 30
0.0
  0
POINT
  5
A4E0
  8
DEFPOINTS
 62
     0
 10
2441.6787618149569425
 20
460.9623524999435062
 30
0.0
  0
ENDBLK
  5
A4D6
  8
0
  0
BLOCK
  8
0
  2
*D25
 70
     1
 10
0.0
 20
0.0
 30
0.0
  3
*D25
  1

  0
LINE
  5
A4E7
  8
0
  6
BYBLOCK
 62
     0
 10
2441.7412618149569425
 20
388.4102871132153041
 30
0.0
 11
2528.7020918497410094
 21
388.4102871132153041
 31
0.0
  0
LINE
  5
A4E8
  8
0
  6
BYBLOCK
 62
     0
 10
2441.7412618149569425
 20
-211.5897128867844117
 30
0.0
 11
2528.7020918497410094
 21
-211.5897128867844117
 31
0.0
  0
LINE
  5
A4E9
  8
0
  6
BYBLOCK
 62
     0
 10
2528.5220918497429921
 20
388.2302871132151836
 30
0.0
 11
2528.5220918497429921
 21
91.500287113215407
 31
0.0
  0
LINE
  5
A4EA
  8
0
  6
BYBLOCK
 62
     0
 10
2528.5220918497429921
 20
-211.4097128867844049
 30
0.0
 11
2528.5220918497429921
 21
85.3202871132154854
 31
0.0
  0
SOLID
  5
A4EB
  8
0
 62
     0
 10
2528.5520918497441016
 20
388.2302871132151836
 30
0.0
 11
2528.492091849740973
 21
388.2302871132151836
 31
0.0
 12
2528.5220918497429921
 22
388.4102871132153041
 32
0.0
 13
2528.5220918497429921
 23
388.4102871132153041
 33
0.0
  0
SOLID
  5
A4EC
  8
0
 62
     0
 10
2528.492091849740973
 20
-211.4097128867844049
 30
0.0
 11
2528.5520918497441016
 21
-211.4097128867844049
 31
0.0
 12
2528.5220918497429921
 22
-211.5897128867844117
 32
0.0
 13
2528.5220918497429921
 23
-211.5897128867844117
 33
0.0
  0
TEXT
  5
A4ED
  8
0
  6
CONTINUOUS
 62
     0
 10
2510.5220918497429921
 20
85.4102871132154178
 30
0.0
 40
6.0
  1
600.0000
  0
POINT
  5
A4EE
  8
DEFPOINTS
 62
     0
 10
2441.6787618149569425
 20
388.4102871132153041
 30
0.0
  0
POINT
  5
A4EF
  8
DEFPOINTS
 62
     0
 10
2441.6787618149569425
 20
-211.5897128867844117
 30
0.0
  0
POINT
  5
A4F0
  8
DEFPOINTS
 62
     0
 10
2528.5220918497429921
 20
-211.5897128867844117
 30
0.0
  0
ENDBLK
  5
A4E6
  8
0
  0
BLOCK
  8
0
  2
*D26
 70
     1
 10
0.0
 20
0.0
 30
0.0
  3
*D26
  1

  0
LINE
  5
ACB2
  8
0
  6
BYBLOCK
 62
     0
 10
698.2005401299127243
 20
-21.5216637234611312
 30
0.0
 11
709.4862230615132148
 21
-21.5216637234611312
 31
0.0
  0
LINE
  5
ACB3
  8
0
  6
BYBLOCK
 62
     0
 10
698.2005401299127243
 20
-58.2469107846457419
 30
0.0
 11
709.4862230615132148
 21
-58.2469107846457419
 31
0.0
  0
LINE
  5
ACB4
  8
0
  6
BYBLOCK
 62
     0
 10
709.3062230615131512
 20
-21.7016637234611309
 30
0.0
 11
709.3062230615131512
 21
-36.7942872540534367
 31
0.0
  0
LINE
  5
ACB5
  8
0
  6
BYBLOCK
 62
     0
 10
709.3062230615131512
 20
-58.0669107846457493
 30
0.0
 11
709.3062230615131512
 21
-42.9742872540534435
 31
0.0
  0
SOLID
  5
ACB6
  8
0
 62
     0
 10
709.3362230615132376
 20
-21.7016637234611309
 30
0.0
 11
709.2762230615130647
 21
-21.7016637234611309
 31
0.0
 12
709.3062230615131512
 22
-21.5216637234611312
 32
0.0
 13
709.3062230615131512
 23
-21.5216637234611312
 33
0.0
  0
SOLID
  5
ACB7
  8
0
 62
     0
 10
709.2762230615130647
 20
-58.0669107846457493
 30
0.0
 11
709.3362230615132376
 21
-58.0669107846457493
 31
0.0
 12
709.3062230615131512
 22
-58.2469107846457419
 32
0.0
 13
709.3062230615131512
 23
-58.2469107846457419
 33
0.0
  0
TEXT
  5
ACB8
  8
0
  6
CONTINUOUS
 62
     0
 10
691.3062230615131512
 20
-42.8842872540534472
 30
0.0
 40
6.0
  1
36.7252
  0
POINT
  5
ACB9
  8
DEFPOINTS
 62
     0
 10
698.1380401299126106
 20
-21.5216637234611312
 30
0.0
  0
POINT
  5
ACBA
  8
DEFPOINTS
 62
     0
 10
698.1380401299126106
 20
-58.2469107846457419
 30
0.0
  0
POINT
  5
ACBB
  8
DEFPOINTS
 62
     0
 10
709.3062230615131512
 20
-58.2469107846457419
 30
0.0
  0
ENDBLK
  5
ACB1
  8
0
  0
BLOCK
  8
0
  2
*D27
 70
     1
 10
0.0
 20
0.0
 30
0.0
  3
*D27
  1

  0
LINE
  5
ACC2
  8
0
  6
BYBLOCK
 62
     0
 10
670.0911853074942428
 20
250.3562006594274862
 30
0.0
 11
670.0911853074942428
 21
287.4741846070082829
 31
0.0
  0
LINE
  5
ACC3
  8
0
  6
BYBLOCK
 62
     0
 10
1270.0911853074940154
 20
250.3562006594274862
 30
0.0
 11
1270.0911853074940154
 21
287.4741846070082829
 31
0.0
  0
LINE
  5
ACC4
  8
0
  6
BYBLOCK
 62
     0
 10
670.2711853074941928
 20
287.2941846070082761
 30
0.0
 11
952.001185307494211
 21
287.2941846070082761
 31
0.0
  0
LINE
  5
ACC5
  8
0
  6
BYBLOCK
 62
     0
 10
1269.9111853074939518
 20
287.2941846070082761
 30
0.0
 11
988.1811853074940473
 21
287.2941846070082761
 31
0.0
  0
SOLID
  5
ACC6
  8
0
 62
     0
 10
670.2711853074941928
 20
287.3241846070083056
 30
0.0
 11
670.2711853074941928
 21
287.2641846070083034
 31
0.0
 12
670.0911853074942428
 22
287.2941846070082761
 32
0.0
 13
670.0911853074942428
 23
287.2941846070082761
 33
0.0
  0
SOLID
  5
ACC7
  8
0
 62
     0
 10
1269.9111853074939518
 20
287.2641846070083034
 30
0.0
 11
1269.9111853074939518
 21
287.3241846070083056
 31
0.0
 12
1270.0911853074940154
 22
287.2941846070082761
 32
0.0
 13
1270.0911853074940154
 23
287.2941846070082761
 33
0.0
  0
TEXT
  5
ACC8
  8
0
  6
CONTINUOUS
 62
     0
 10
952.0911853074942428
 20
284.2941846070082761
 30
0.0
 40
6.0
  1
600.0000
  0
POINT
  5
ACC9
  8
DEFPOINTS
 62
     0
 10
670.0911853074942428
 20
250.2937006594274862
 30
0.0
  0
POINT
  5
ACCA
  8
DEFPOINTS
 62
     0
 10
1270.0911853074940154
 20
250.2937006594274862
 30
0.0
  0
POINT
  5
ACCB
  8
DEFPOINTS
 62
     0
 10
1270.0911853074940154
 20
287.2941846070082761
 30
0.0
  0
ENDBLK
  5
ACC1
  8
0
  0
BLOCK
  8
0
  2
*D28
 70
     1
 10
0.0
 20
0.0
 30
0.0
  3
*D28
  1

  0
LINE
  5
ACD2
  8
0
  6
BYBLOCK
 62
     0
 10
670.0286853074944702
 20
250.2937006594274862
 30
0.0
 11
633.2776718322571696
 21
250.2937006594274862
 31
0.0
  0
LINE
  5
ACD3
  8
0
  6
BYBLOCK
 62
     0
 10
670.0286853074942428
 20
-249.7062993405722864
 30
0.0
 11
633.2776718322571696
 21
-249.7062993405722864
 31
0.0
  0
LINE
  5
ACD4
  8
0
  6
BYBLOCK
 62
     0
 10
633.4576718322571196
 20
250.1137006594275078
 30
0.0
 11
633.4576718322571196
 21
3.3837006594275461
 31
0.0
  0
LINE
  5
ACD5
  8
0
  6
BYBLOCK
 62
     0
 10
633.4576718322571196
 20
-249.526299340572308
 30
0.0
 11
633.4576718322571196
 21
-2.796299340572431
 31
0.0
  0
SOLID
  5
ACD6
  8
0
 62
     0
 10
633.487671832257206
 20
250.1137006594275078
 30
0.0
 11
633.4276718322571469
 21
250.1137006594275078
 31
0.0
 12
633.4576718322571196
 22
250.2937006594274862
 32
0.0
 13
633.4576718322571196
 23
250.2937006594274862
 33
0.0
  0
SOLID
  5
ACD7
  8
0
 62
     0
 10
633.4276718322571469
 20
-249.526299340572308
 30
0.0
 11
633.487671832257206
 21
-249.526299340572308
 31
0.0
 12
633.4576718322571196
 22
-249.7062993405722864
 32
0.0
 13
633.4576718322571196
 23
-249.7062993405722864
 33
0.0
  0
TEXT
  5
ACD8
  8
0
  6
CONTINUOUS
 62
     0
 10
615.4576718322571196
 20
-2.7062993405724001
 30
0.0
 40
6.0
  1
500.0000
  0
POINT
  5
ACD9
  8
DEFPOINTS
 62
     0
 10
670.0911853074942428
 20
250.2937006594274862
 30
0.0
  0
POINT
  5
ACDA
  8
DEFPOINTS
 62
     0
 10
670.0911853074942428
 20
-249.7062993405722864
 30
0.0
  0
POINT
  5
ACDB
  8
DEFPOINTS
 62
     0
 10
633.4576718322571196
 20
-249.7062993405722864
 30
0.0
  0
ENDBLK
  5
ACD1
  8
0
  0
BLOCK
  8
0
  2
*D29
 70
     1
 10
0.0
 20
0.0
 30
0.0
  3
*D29
  1

  0
LINE
  5
ACE2
  8
0
  6
BYBLOCK
 62
     0
 10
2531.2877862077621103
 20
378.0738727028224275
 30
0.0
 11
2531.2877862077621103
 21
402.2129530400363819
 31
0.0
  0
LINE
  5
ACE3
  8
0
  6
BYBLOCK
 62
     0
 10
3531.2877862077612008
 20
378.0738727028224275
 30
0.0
 11
3531.2877862077612008
 21
402.2129530400363819
 31
0.0
  0
LINE
  5
ACE4
  8
0
  6
BYBLOCK
 62
     0
 10
2531.4677862077610371
 20
402.0329530400363183
 30
0.0
 11
3011.6977862077619648
 21
402.0329530400363183
 31
0.0
  0
LINE
  5
ACE5
  8
0
  6
BYBLOCK
 62
     0
 10
3531.1077862077618192
 20
402.0329530400363183
 30
0.0
 11
3050.8777862077618011
 21
402.0329530400363183
 31
0.0
  0
SOLID
  5
ACE6
  8
0
 62
     0
 10
2531.4677862077610371
 20
402.0629530400364047
 30
0.0
 11
2531.4677862077610371
 21
402.0029530400361182
 31
0.0
 12
2531.2877862077621103
 22
402.0329530400363183
 32
0.0
 13
2531.2877862077621103
 23
402.0329530400363183
 33
0.0
  0
SOLID
  5
ACE7
  8
0
 62
     0
 10
3531.1077862077618192
 20
402.0029530400361182
 30
0.0
 11
3531.1077862077618192
 21
402.0629530400364047
 31
0.0
 12
3531.2877862077612008
 22
402.0329530400363183
 32
0.0
 13
3531.2877862077612008
 23
402.0329530400363183
 33
0.0
  0
TEXT
  5
ACE8
  8
0
  6
CONTINUOUS
 62
     0
 10
3011.7877862077621103
 20
399.0329530400363751
 30
0.0
 40
6.0
  1
1000.0000
  0
POINT
  5
ACE9
  8
DEFPOINTS
 62
     0
 10
2531.2877862077621103
 20
378.0113727028224275
 30
0.0
  0
POINT
  5
ACEA
  8
DEFPOINTS
 62
     0
 10
3531.2877862077612008
 20
378.0113727028224275
 30
0.0
  0
POINT
  5
ACEB
  8
DEFPOINTS
 62
     0
 10
3531.2877862077612008
 20
402.0329530400363183
 30
0.0
  0
ENDBLK
  5
ACE1
  8
0
  0
BLOCK
  8
0
  2
*D30
 70
     1
 10
0.0
 20
0.0
 30
0.0
  3
*D30
  1

  0
LINE
  5
ACF2
  8
0
  6
BYBLOCK
 62
     0
 10
2441.7412618149569425
 20
388.4102871132153041
 30
0.0
 11
2536.7567538242929004
 21
388.4102871132153041
 31
0.0
  0
LINE
  5
ACF3
  8
0
  6
BYBLOCK
 62
     0
 10
2441.7412618149569425
 20
-211.5897128867844117
 30
0.0
 11
2536.7567538242929004
 21
-211.5897128867844117
 31
0.0
  0
LINE
  5
ACF4
  8
0
  6
BYBLOCK
 62
     0
 10
2536.5767538242939736
 20
388.2302871132151836
 30
0.0
 11
2536.5767538242939736
 21
91.500287113215407
 31
0.0
  0
LINE
  5
ACF5
  8
0
  6
BYBLOCK
 62
     0
 10
2536.5767538242939736
 20
-211.4097128867844049
 30
0.0
 11
2536.5767538242939736
 21
85.3202871132154854
 31
0.0
  0
SOLID
  5
ACF6
  8
0
 62
     0
 10
2536.6067538242941737
 20
388.2302871132151836
 30
0.0
 11
2536.546753824292864
 21
388.2302871132151836
 31
0.0
 12
2536.5767538242939736
 22
388.4102871132153041
 32
0.0
 13
2536.5767538242939736
 23
388.4102871132153041
 33
0.0
  0
SOLID
  5
ACF7
  8
0
 62
     0
 10
2536.546753824292864
 20
-211.4097128867844049
 30
0.0
 11
2536.6067538242941737
 21
-211.4097128867844049
 31
0.0
 12
2536.5767538242939736
 22
-211.5897128867844117
 32
0.0
 13
2536.5767538242939736
 23
-211.5897128867844117
 33
0.0
  0
TEXT
  5
ACF8
  8
0
  6
CONTINUOUS
 62
     0
 10
2518.5767538242939736
 20
85.4102871132154178
 30
0.0
 40
6.0
  1
600.0000
  0
POINT
  5
ACF9
  8
DEFPOINTS
 62
     0
 10
2441.6787618149569425
 20
388.4102871132153041
 30
0.0
  0
POINT
  5
ACFA
  8
DEFPOINTS
 62
     0
 10
2441.6787618149569425
 20
-211.5897128867844117
 30
0.0
  0
POINT
  5
ACFB
  8
DEFPOINTS
 62
     0
 10
2536.5767538242939736
 20
-211.5897128867844117
 30
0.0
  0
ENDBLK
  5
ACF1
  8
0
  0
BLOCK
  8
0
  2
*D31
 70
     1
 10
0.0
 20
0.0
 30
0.0
  3
*D31
  1

  0
LINE
  5
B6ED
  8
0
  6
BYBLOCK
 62
     0
 10
75.3443074814868936
 20
169.544908806464008
 30
0.0
 11
84.2719340812935798
 21
169.544908806464008
 31
0.0
  0
LINE
  5
B6EE
  8
0
  6
BYBLOCK
 62
     0
 10
75.3443074814868936
 20
134.8449088064639056
 30
0.0
 11
84.2719340812935798
 21
134.8449088064639056
 31
0.0
  0
LINE
  5
B6EF
  8
0
  6
BYBLOCK
 62
     0
 10
84.0919340812935872
 20
169.3649088064640011
 30
0.0
 11
84.0919340812935872
 21
155.2849088064639034
 31
0.0
  0
LINE
  5
B6F0
  8
0
  6
BYBLOCK
 62
     0
 10
84.0919340812935872
 20
135.0249088064639125
 30
0.0
 11
84.0919340812935872
 21
149.1049088064640102
 31
0.0
  0
SOLID
  5
B6F1
  8
0
 62
     0
 10
84.1219340812935883
 20
169.3649088064640011
 30
0.0
 11
84.0619340812935718
 21
169.3649088064640011
 31
0.0
 12
84.0919340812935872
 22
169.544908806464008
 32
0.0
 13
84.0919340812935872
 23
169.544908806464008
 33
0.0
  0
SOLID
  5
B6F2
  8
0
 62
     0
 10
84.0619340812935718
 20
135.0249088064639125
 30
0.0
 11
84.1219340812935883
 21
135.0249088064639125
 31
0.0
 12
84.0919340812935872
 22
134.8449088064639056
 32
0.0
 13
84.0919340812935872
 23
134.8449088064639056
 33
0.0
  0
TEXT
  5
B6F3
  8
0
  6
CONTINUOUS
 62
     0
 10
67.5919340812935872
 20
149.1949088064640137
 30
0.0
 40
6.0
  1
34.7000
  0
POINT
  5
B6F4
  8
DEFPOINTS
 62
     0
 10
75.2818074814868936
 20
169.544908806464008
 30
0.0
  0
POINT
  5
B6F5
  8
DEFPOINTS
 62
     0
 10
75.2818074814868936
 20
134.8449088064639056
 30
0.0
  0
POINT
  5
B6F6
  8
DEFPOINTS
 62
     0
 10
84.0919340812935872
 20
134.8449088064639056
 30
0.0
  0
ENDBLK
  5
B6EC
  8
0
  0
BLOCK
  8
0
  2
*D32
 70
     1
 10
0.0
 20
0.0
 30
0.0
  3
*D32
  1

  0
LINE
  5
B769
  8
0
  6
BYBLOCK
 62
     0
 10
1344.606272870965995
 20
265.651331105093675
 30
0.0
 11
1344.606272870965995
 21
303.9390157564666879
 31
0.0
  0
LINE
  5
B76A
  8
0
  6
BYBLOCK
 62
     0
 10
2344.6062728709662224
 20
265.651331105093675
 30
0.0
 11
2344.6062728709662224
 21
303.9390157564666879
 31
0.0
  0
LINE
  5
B76B
  8
0
  6
BYBLOCK
 62
     0
 10
1344.7862728709660587
 20
303.7590157564666811
 30
0.0
 11
1825.0162728709660769
 21
303.7590157564666811
 31
0.0
  0
LINE
  5
B76C
  8
0
  6
BYBLOCK
 62
     0
 10
2344.4262728709659314
 20
303.7590157564666811
 30
0.0
 11
1864.1962728709659132
 21
303.7590157564666811
 31
0.0
  0
SOLID
  5
B76D
  8
0
 62
     0
 10
1344.7862728709660587
 20
303.7890157564667106
 30
0.0
 11
1344.7862728709660587
 21
303.7290157564667084
 31
0.0
 12
1344.606272870965995
 22
303.7590157564666811
 32
0.0
 13
1344.606272870965995
 23
303.7590157564666811
 33
0.0
  0
SOLID
  5
B76E
  8
0
 62
     0
 10
2344.4262728709659314
 20
303.7290157564667084
 30
0.0
 11
2344.4262728709659314
 21
303.7890157564667106
 31
0.0
 12
2344.6062728709662224
 22
303.7590157564666811
 32
0.0
 13
2344.6062728709662224
 23
303.7590157564666811
 33
0.0
  0
TEXT
  5
B76F
  8
0
  6
CONTINUOUS
 62
     0
 10
1825.106272870965995
 20
300.7590157564666811
 30
0.0
 40
6.0
  1
1000.0000
  0
POINT
  5
B770
  8
DEFPOINTS
 62
     0
 10
1344.606272870965995
 20
265.588831105093675
 30
0.0
  0
POINT
  5
B771
  8
DEFPOINTS
 62
     0
 10
2344.6062728709662224
 20
265.588831105093675
 30
0.0
  0
POINT
  5
B772
  8
DEFPOINTS
 62
     0
 10
2344.6062728709662224
 20
303.7590157564666811
 30
0.0
  0
ENDBLK
  5
B768
  8
0
  0
BLOCK
  8
0
  2
*D33
 70
     1
 10
0.0
 20
0.0
 30
0.0
  3
*D33
  1

  0
LINE
  5
B779
  8
0
  6
BYBLOCK
 62
     0
 10
3531.3502862077612008
 20
378.0113727028224275
 30
0.0
 11
3588.7597884355877795
 21
378.0113727028224275
 31
0.0
  0
LINE
  5
B77A
  8
0
  6
BYBLOCK
 62
     0
 10
3531.3502862077612008
 20
-221.9886272971772883
 30
0.0
 11
3588.7597884355877795
 21
-221.9886272971772883
 31
0.0
  0
LINE
  5
B77B
  8
0
  6
BYBLOCK
 62
     0
 10
3588.5797884355879432
 20
377.8313727028224207
 30
0.0
 11
3588.5797884355879432
 21
81.1013727028225162
 31
0.0
  0
LINE
  5
B77C
  8
0
  6
BYBLOCK
 62
     0
 10
3588.5797884355879432
 20
-221.8086272971773099
 30
0.0
 11
3588.5797884355879432
 21
74.9213727028226231
 31
0.0
  0
SOLID
  5
B77D
  8
0
 62
     0
 10
3588.6097884355867791
 20
377.8313727028224207
 30
0.0
 11
3588.5497884355868337
 21
377.8313727028224207
 31
0.0
 12
3588.5797884355879432
 22
378.0113727028224275
 32
0.0
 13
3588.5797884355879432
 23
378.0113727028224275
 33
0.0
  0
SOLID
  5
B77E
  8
0
 62
     0
 10
3588.5497884355868337
 20
-221.8086272971773099
 30
0.0
 11
3588.6097884355867791
 21
-221.8086272971773099
 31
0.0
 12
3588.5797884355879432
 22
-221.9886272971772883
 32
0.0
 13
3588.5797884355879432
 23
-221.9886272971772883
 33
0.0
  0
TEXT
  5
B77F
  8
0
  6
CONTINUOUS
 62
     0
 10
3570.5797884355870337
 20
75.0113727028225412
 30
0.0
 40
6.0
  1
600.0000
  0
POINT
  5
B780
  8
DEFPOINTS
 62
     0
 10
3531.2877862077612008
 20
378.0113727028224275
 30
0.0
  0
POINT
  5
B781
  8
DEFPOINTS
 62
     0
 10
3531.2877862077612008
 20
-221.9886272971772883
 30
0.0
  0
POINT
  5
B782
  8
DEFPOINTS
 62
     0
 10
3588.5797884355879432
 20
-221.9886272971772883
 30
0.0
  0
ENDBLK
  5
B778
  8
0
  0
BLOCK
  8
0
  2
*D34
 70
     1
 10
0.0
 20
0.0
 30
0.0
  3
*D34
  1

  0
LINE
  5
B78A
  8
0
  6
BYBLOCK
 62
     0
 10
670.0286853074944702
 20
250.2937006594274862
 30
0.0
 11
624.7326225363802905
 21
250.2937006594274862
 31
0.0
  0
LINE
  5
B78B
  8
0
  6
BYBLOCK
 62
     0
 10
670.0286853074942428
 20
-249.7062993405722864
 30
0.0
 11
624.7326225363802905
 21
-249.7062993405722864
 31
0.0
  0
LINE
  5
B78C
  8
0
  6
BYBLOCK
 62
     0
 10
624.9126225363802405
 20
250.1137006594275078
 30
0.0
 11
624.9126225363802405
 21
3.3837006594275461
 31
0.0
  0
LINE
  5
B78D
  8
0
  6
BYBLOCK
 62
     0
 10
624.9126225363802405
 20
-249.526299340572308
 30
0.0
 11
624.9126225363802405
 21
-2.796299340572431
 31
0.0
  0
SOLID
  5
B78E
  8
0
 62
     0
 10
624.9426225363799858
 20
250.1137006594275078
 30
0.0
 11
624.8826225363801541
 21
250.1137006594275078
 31
0.0
 12
624.9126225363802405
 22
250.2937006594274862
 32
0.0
 13
624.9126225363802405
 23
250.2937006594274862
 33
0.0
  0
SOLID
  5
B78F
  8
0
 62
     0
 10
624.8826225363801541
 20
-249.526299340572308
 30
0.0
 11
624.9426225363799858
 21
-249.526299340572308
 31
0.0
 12
624.9126225363802405
 22
-249.7062993405722864
 32
0.0
 13
624.9126225363802405
 23
-249.7062993405722864
 33
0.0
  0
TEXT
  5
B790
  8
0
  6
CONTINUOUS
 62
     0
 10
606.9126225363802405
 20
-2.7062993405724001
 30
0.0
 40
6.0
  1
500.0000
  0
POINT
  5
B791
  8
DEFPOINTS
 62
     0
 10
670.0911853074942428
 20
250.2937006594274862
 30
0.0
  0
POINT
  5
B792
  8
DEFPOINTS
 62
     0
 10
670.0911853074942428
 20
-249.7062993405722864
 30
0.0
  0
POINT
  5
B793
  8
DEFPOINTS
 62
     0
 10
624.9126225363802405
 20
-249.7062993405722864
 30
0.0
  0
ENDBLK
  5
B789
  8
0
  0
BLOCK
  8
0
  2
*D35
 70
     1
 10
0.0
 20
0.0
 30
0.0
  3
*D35
  1

  0
LINE
  5
CC00
  8
0
  6
BYBLOCK
 62
     0
 10
239.0098180150077098
 20
154.7239574356474918
 30
0.0
 11
239.0098180150077098
 21
153.5995084056050928
 31
0.0
  0
LINE
  5
CC01
  8
0
  6
BYBLOCK
 62
     0
 10
241.208709948985188
 20
154.7239574356474918
 30
0.0
 11
241.208709948985188
 21
153.5995084056050928
 31
0.0
  0
LINE
  5
CC02
  8
0
  6
BYBLOCK
 62
     0
 10
239.1898180150076882
 20
153.7795084056050996
 30
0.0
 11
241.0287099489852949
 21
153.7795084056050996
 31
0.0
  0
SOLID
  5
CC03
  8
0
 62
     0
 10
239.1898180150076882
 20
153.8095084056051007
 30
0.0
 11
239.1898180150076882
 21
153.7495084056050985
 31
0.0
 12
239.0098180150077098
 22
153.7795084056050996
 32
0.0
 13
239.0098180150077098
 23
153.7795084056050996
 33
0.0
  0
SOLID
  5
CC04
  8
0
 62
     0
 10
241.0287099489852949
 20
153.7495084056050985
 30
0.0
 11
241.0287099489852949
 21
153.8095084056051007
 31
0.0
 12
241.208709948985188
 22
153.7795084056050996
 32
0.0
 13
241.208709948985188
 23
153.7795084056050996
 33
0.0
  0
TEXT
  5
CC05
  8
0
  6
CONTINUOUS
 62
     0
 10
226.1092639819964063
 20
141.4645084056049882
 30
0.0
 40
6.0
  1
2.1989
  0
POINT
  5
CC06
  8
DEFPOINTS
 62
     0
 10
239.0098180150077098
 20
154.7864574356474918
 30
0.0
  0
POINT
  5
CC07
  8
DEFPOINTS
 62
     0
 10
241.208709948985188
 20
154.7864574356474918
 30
0.0
  0
POINT
  5
CC08
  8
DEFPOINTS
 62
     0
 10
241.208709948985188
 20
153.7795084056050996
 30
0.0
  0
ENDBLK
  5
CBFF
  8
0
  0
BLOCK
  8
0
  2
*D36
 70
     1
 10
0.0
 20
0.0
 30
0.0
  3
*D36
  1

  0
LINE
  5
CC0F
  8
0
  6
BYBLOCK
 62
     0
 10
299.4076018829626946
 20
154.7239574356474918
 30
0.0
 11
299.4076018829626946
 21
153.7470165001940074
 31
0.0
  0
LINE
  5
CC10
  8
0
  6
BYBLOCK
 62
     0
 10
297.208709948985188
 20
154.7239574356474918
 30
0.0
 11
297.208709948985188
 21
153.7470165001940074
 31
0.0
  0
LINE
  5
CC11
  8
0
  6
BYBLOCK
 62
     0
 10
299.2276018829626878
 20
153.9270165001939858
 30
0.0
 11
297.3887099489853085
 21
153.9270165001939858
 31
0.0
  0
SOLID
  5
CC12
  8
0
 62
     0
 10
299.2276018829626878
 20
153.8970165001940131
 30
0.0
 11
299.2276018829626878
 21
153.9570165001941007
 31
0.0
 12
299.4076018829626946
 22
153.9270165001939858
 32
0.0
 13
299.4076018829626946
 23
153.9270165001939858
 33
0.0
  0
SOLID
  5
CC13
  8
0
 62
     0
 10
297.3887099489853085
 20
153.9570165001941007
 30
0.0
 11
297.3887099489853085
 21
153.8970165001940131
 31
0.0
 12
297.208709948985188
 22
153.9270165001939858
 32
0.0
 13
297.208709948985188
 23
153.9270165001939858
 33
0.0
  0
TEXT
  5
CC14
  8
0
  6
CONTINUOUS
 62
     0
 10
284.3081559159739982
 20
141.6120165001941018
 30
0.0
 40
6.0
  1
2.1989
  0
POINT
  5
CC15
  8
DEFPOINTS
 62
     0
 10
299.4076018829626946
 20
154.7864574356474918
 30
0.0
  0
POINT
  5
CC16
  8
DEFPOINTS
 62
     0
 10
297.208709948985188
 20
154.7864574356474918
 30
0.0
  0
POINT
  5
CC17
  8
DEFPOINTS
 62
     0
 10
297.208709948985188
 20
153.9270165001939858
 30
0.0
  0
ENDBLK
  5
CC0E
  8
0
  0
BLOCK
  8
0
  2
SPACER_NEW_FIXED
 70
     0
 10
0.0
 20
0.0
 30
0.0
  3
SPACER_NEW_FIXED
  1

  0
CIRCLE
  5
D60E
  8
20
 62
     1
 10
16.1155769082382108
 20
7.5180564116490549
 30
0.0
 40
1.0
  0
CIRCLE
  5
D60F
  8
20
 62
     1
 10
47.7581130627507875
 20
33.2902508411181373
 30
0.0
 40
1.0
  0
ARC
  5
D610
  8
0
  6
BYBLOCK
 62
     5
 10
21.1690347300092192
 20
0.0278919245641447
 30
0.0
 40
2.9999999999995222
 50
219.0863268547296059
 51
309.0863268547237794
  0
LINE
  5
D611
  8
0
  6
BYBLOCK
 62
     5
 10
18.840444059027071
 20
-1.86357985344685
 30
0.0
 11
13.1660287249926409
 21
5.1221921595005844
 31
0.0
  0
ARC
  5
D612
  8
0
  6
BYBLOCK
 62
     5
 10
15.49461939597502
 20
7.013663937512133
 30
0.0
 40
3.0000000000000511
 50
129.0863268547383882
 51
219.086326854735006
  0
LINE
  5
D613
  8
0
  6
BYBLOCK
 62
     5
 10
13.6031476179633692
 20
9.3422546084944003
 30
0.0
 11
14.5345838863575292
 21
10.0988433196998493
 31
0.0
  0
ARC
  5
D614
  8
0
  6
BYBLOCK
 62
     5
 10
16.4260556643680893
 20
7.77025264871713
 30
0.0
 40
2.999999999999714
 50
39.0863268547360576
 51
129.0863268547157929
  0
LINE
  5
D615
  8
0
  6
BYBLOCK
 62
     5
 10
18.75464633535017
 20
9.6617244267284956
 30
0.0
 11
20.4967042052822812
 21
7.5305920122653154
 31
0.0
  0
ARC
  5
D616
  8
0
  6
BYBLOCK
 62
     5
 10
24.3735157900040917
 20
10.6881752552799192
 30
0.0
 40
4.9999999999999831
 50
219.1621069675744025
 51
309.1621069675450144
  0
LINE
  5
D617
  8
0
  6
BYBLOCK
 62
     5
 10
27.5310990330167193
 20
6.8113636705564593
 30
0.0
 11
46.1427432723085289
 21
21.9701648375965704
 31
0.0
  0
ARC
  5
D618
  8
0
  6
BYBLOCK
 62
     5
 10
42.9851600292956419
 20
25.8469764223201004
 30
0.0
 40
5.0000000000002203
 50
309.1621069675464923
 51
39.1621069676237497
  0
LINE
  5
D619
  8
0
  6
BYBLOCK
 62
     5
 10
46.8619716140149691
 20
29.0045596653382383
 30
0.0
 11
45.1531302813963791
 21
31.1047319885466003
 31
0.0
  0
ARC
  5
D61A
  8
0
  6
BYBLOCK
 62
     5
 10
47.4817209523847907
 20
32.9962037665509911
 30
0.0
 40
3.0000000000002141
 50
129.0863268547311122
 51
219.086326854556205
  0
LINE
  5
D61B
  8
0
  6
BYBLOCK
 62
     5
 10
45.5902491743733265
 20
35.3247944375336118
 30
0.0
 11
46.5216854427660778
 21
36.0813831487379701
 31
0.0
  0
ARC
  5
D61C
  8
0
  6
BYBLOCK
 62
     5
 10
48.4131572207776912
 20
33.752792477755321
 30
0.0
 40
3.000000000000258
 50
39.0863268547348781
 51
129.0863268547327039
  0
LINE
  5
D61D
  8
0
  6
BYBLOCK
 62
     5
 10
50.7417478917602409
 20
35.6442642557670126
 30
0.0
 11
56.4161632257941434
 21
28.658492242819861
 31
0.0
  0
ARC
  5
D61E
  8
0
  6
BYBLOCK
 62
     5
 10
54.087572554811203
 20
26.7670204648083789
 30
0.0
 40
3.0000000000004561
 50
309.0863268547299754
 51
39.0863268547265719
  0
LINE
  5
D61F
  8
0
  6
BYBLOCK
 62
     5
 10
55.9790443328228022
 20
24.4384297938255202
 30
0.0
 11
50.2834330895990433
 21
19.8119885479131312
 31
0.0
  0
LINE
  5
D620
  8
0
  6
BYBLOCK
 62
     5
 10
50.2834330895990433
 20
19.8119885479131312
 30
0.0
 11
43.396865034600502
 21
14.2181547815483604
 31
0.0
  0
LINE
  5
D621
  8
0
  6
BYBLOCK
 62
     5
 10
43.396865034600502
 20
14.2181547815483604
 30
0.0
 11
23.06050650801998
 21
-2.3006987464181901
 31
0.0
  0
ENDBLK
  5
D622
  8
0
  0
BLOCK
  8
0
  2
IR_SPACER_NEW
 70
     0
 10
0.0
 20
0.0
 30
0.0
  3
IR_SPACER_NEW
  1

  0
CIRCLE
  5
D6B0
  8
20
 62
     1
 10
332.5566324344118243
 20
52.0012058089624816
 30
0.0
 40
1.0
  0
CIRCLE
  5
D6B1
  8
20
 62
     1
 10
373.3666324344118266
 20
52.00120580896251
 30
0.0
 40
1.0
  0
ARC
  5
D6B2
  8
0
  6
BYBLOCK
 62
     5
 10
331.7447296253167792
 20
43.0022717705004709
 30
0.0
 40
2.9999999999995222
 50
179.9242198871843925
 51
269.9242198871779124
  0
LINE
  5
D6B3
  8
0
  6
BYBLOCK
 62
     5
 10
328.7447322492726016
 20
43.0062396067721622
 30
0.0
 11
328.7566357580872136
 21
52.0062317349066205
 31
0.0
  0
ARC
  5
D6B4
  8
0
  6
BYBLOCK
 62
     5
 10
331.7566331341319028
 20
52.0022638986352703
 30
0.0
 40
3.0000000000000511
 50
89.9242198871930754
 51
179.9242198871909011
  0
LINE
  5
D6B5
  8
0
  6
BYBLOCK
 62
     5
 10
331.7606009704031749
 20
55.0022612746800093
 30
0.0
 11
332.9605999208224034
 21
55.0006741401713484
 31
0.0
  0
ARC
  5
D6B6
  8
0
  6
BYBLOCK
 62
     5
 10
332.9566320845501082
 20
52.0006767641269008
 30
0.0
 40
2.999999999999714
 50
359.9242198871913274
 51
89.9242198871702811
  0
LINE
  5
D6B7
  8
0
  6
BYBLOCK
 62
     5
 10
335.9566294605946268
 20
51.9967089278555505
 30
0.0
 11
335.9615098867668053
 21
49.244170613570283
 31
0.0
  0
ARC
  5
D6B8
  8
0
  6
BYBLOCK
 62
     5
 10
340.9615098867668053
 20
49.2441706135728126
 30
0.0
 40
4.9999999999999831
 50
180.0000000000291891
 51
269.9999999999993179
  0
LINE
  5
D6B9
  8
0
  6
BYBLOCK
 62
     5
 10
340.9615098867668053
 20
44.2441706135728126
 30
0.0
 11
364.96531279613572
 21
44.2441706135728126
 31
0.0
  0
ARC
  5
D6BA
  8
0
  6
BYBLOCK
 62
     5
 10
364.9653127961353789
 20
49.2441706135730328
 30
0.0
 40
5.0000000000002203
 50
270.0000000000013074
 51
0.0000000000778396
  0
LINE
  5
D6BB
  8
0
  6
BYBLOCK
 62
     5
 10
369.96531279613572
 20
49.2441706135798825
 30
0.0
 11
369.9666354082261819
 21
51.9517268434545727
 31
0.0
  0
ARC
  5
D6BC
  8
0
  6
BYBLOCK
 62
     5
 10
372.9666327842710984
 20
51.9477590071737723
 30
0.0
 40
3.0000000000002141
 50
89.9242198871865952
 51
179.9242198870107075
  0
LINE
  5
D6BD
  8
0
  6
BYBLOCK
 62
     5
 10
372.9706006205427116
 20
54.9477563832187528
 30
0.0
 11
374.170599570960178
 21
54.9461692487101416
 31
0.0
  0
ARC
  5
D6BE
  8
0
  6
BYBLOCK
 62
     5
 10
374.1666317346887922
 20
51.9461718726650901
 30
0.0
 40
3.000000000000258
 50
359.924219887189679
 51
89.9242198871876468
  0
LINE
  5
D6BF
  8
0
  6
BYBLOCK
 62
     5
 10
377.1666291107337088
 20
51.9422040363936901
 30
0.0
 11
377.1547256019190968
 21
42.9422119082597433
 31
0.0
  0
ARC
  5
D6C0
  8
0
  6
BYBLOCK
 62
     5
 10
374.1547282258737823
 20
42.9461797445315625
 30
0.0
 40
3.0000000000004561
 50
269.9242198871866094
 51
359.9242198871817777
  0
LINE
  5
D6C1
  8
0
  6
BYBLOCK
 62
     5
 10
374.1507603896022829
 20
39.9461823684863901
 30
0.0
 11
366.8129233890649061
 21
39.9558874889108324
 31
0.0
  0
LINE
  5
D6C2
  8
0
  6
BYBLOCK
 62
     5
 10
366.8129233890649061
 20
39.9558874889108324
 30
0.0
 11
357.940738873169721
 21
39.9676219576847203
 31
0.0
  0
LINE
  5
D6C3
  8
0
  6
BYBLOCK
 62
     5
 10
357.940738873169721
 20
39.9676219576847203
 30
0.0
 11
331.740761789044825
 21
40.0022743944562009
 31
0.0
  0
ENDBLK
  5
D6C4
  8
0
  0
BLOCK
  8
0
  2
*D39
 70
     1
 10
0.0
 20
0.0
 30
0.0
  3
*D39
  1

  0
LINE
  5
EF05
  8
0
  6
BYBLOCK
 62
     0
 10
670.0911853074942428
 20
250.3562006594274862
 30
0.0
 11
670.0911853074942428
 21
288.466182259768118
 31
0.0
  0
LINE
  5
EF06
  8
0
  6
BYBLOCK
 62
     0
 10
1270.0911853074940154
 20
250.3562006594274862
 30
0.0
 11
1270.0911853074940154
 21
288.466182259768118
 31
0.0
  0
LINE
  5
EF07
  8
0
  6
BYBLOCK
 62
     0
 10
670.2711853074941928
 20
288.2861822597682817
 30
0.0
 11
952.001185307494211
 21
288.2861822597682817
 31
0.0
  0
LINE
  5
EF08
  8
0
  6
BYBLOCK
 62
     0
 10
1269.9111853074939518
 20
288.2861822597682817
 30
0.0
 11
988.1811853074943883
 21
288.2861822597682817
 31
0.0
  0
SOLID
  5
EF09
  8
0
 62
     0
 10
670.2711853074941928
 20
288.3161822597680839
 30
0.0
 11
670.2711853074941928
 21
288.2561822597680816
 31
0.0
 12
670.0911853074942428
 22
288.2861822597682817
 32
0.0
 13
670.0911853074942428
 23
288.2861822597682817
 33
0.0
  0
SOLID
  5
EF0A
  8
0
 62
     0
 10
1269.9111853074939518
 20
288.2561822597680816
 30
0.0
 11
1269.9111853074939518
 21
288.3161822597680839
 31
0.0
 12
1270.0911853074940154
 22
288.2861822597682817
 32
0.0
 13
1270.0911853074940154
 23
288.2861822597682817
 33
0.0
  0
TEXT
  5
EF0B
  8
0
  6
CONTINUOUS
 62
     0
 10
952.0911853074942428
 20
285.2861822597682817
 30
0.0
 40
6.0
  1
600.0000
  0
POINT
  5
EF0C
  8
DEFPOINTS
 62
     0
 10
670.0911853074942428
 20
250.2937006594274862
 30
0.0
  0
POINT
  5
EF0D
  8
DEFPOINTS
 62
     0
 10
1270.0911853074940154
 20
250.2937006594274862
 30
0.0
  0
POINT
  5
EF0E
  8
DEFPOINTS
 62
     0
 10
1270.0911853074940154
 20
288.2861822597682817
 30
0.0
  0
ENDBLK
  5
EF04
  8
0
  0
BLOCK
  8
0
  2
*D40
 70
     1
 10
0.0
 20
0.0
 30
0.0
  3
*D40
  1

  0
LINE
  5
EF15
  8
0
  6
BYBLOCK
 62
     0
 10
1270.1536853074940154
 20
250.2937006594274862
 30
0.0
 11
1291.9002997053180479
 21
250.2937006594274862
 31
0.0
  0
LINE
  5
EF16
  8
0
  6
BYBLOCK
 62
     0
 10
1270.1536853074940154
 20
-249.7062993405722864
 30
0.0
 11
1291.9002997053180479
 21
-249.7062993405722864
 31
0.0
  0
LINE
  5
EF17
  8
0
  6
BYBLOCK
 62
     0
 10
1291.7202997053179843
 20
250.1137006594275078
 30
0.0
 11
1291.7202997053179843
 21
3.38370065942757
 31
0.0
  0
LINE
  5
EF18
  8
0
  6
BYBLOCK
 62
     0
 10
1291.7202997053179843
 20
-249.526299340572308
 30
0.0
 11
1291.7202997053179843
 21
-2.796299340572431
 31
0.0
  0
SOLID
  5
EF19
  8
0
 62
     0
 10
1291.750299705317957
 20
250.1137006594275078
 30
0.0
 11
1291.6902997053180115
 21
250.1137006594275078
 31
0.0
 12
1291.7202997053179843
 22
250.2937006594274862
 32
0.0
 13
1291.7202997053179843
 23
250.2937006594274862
 33
0.0
  0
SOLID
  5
EF1A
  8
0
 62
     0
 10
1291.6902997053180115
 20
-249.526299340572308
 30
0.0
 11
1291.750299705317957
 21
-249.526299340572308
 31
0.0
 12
1291.7202997053179843
 22
-249.7062993405722864
 32
0.0
 13
1291.7202997053179843
 23
-249.7062993405722864
 33
0.0
  0
TEXT
  5
EF1B
  8
0
  6
CONTINUOUS
 62
     0
 10
1273.7202997053179843
 20
-2.7062993405724001
 30
0.0
 40
6.0
  1
500.0000
  0
POINT
  5
EF1C
  8
DEFPOINTS
 62
     0
 10
1270.0911853074940154
 20
250.2937006594274862
 30
0.0
  0
POINT
  5
EF1D
  8
DEFPOINTS
 62
     0
 10
1270.0911853074940154
 20
-249.7062993405722864
 30
0.0
  0
POINT
  5
EF1E
  8
DEFPOINTS
 62
     0
 10
1291.7202997053179843
 20
-249.7062993405722864
 30
0.0
  0
ENDBLK
  5
EF14
  8
0
  0
BLOCK
  8
0
 62
     2
  2
A$CAD5451D7
 70
     0
 10
0.0
 20
0.0
 30
0.0
  3
A$CAD5451D7
  1

  0
INSERT
  5
11425
  8
0
  6
BYBLOCK
  2
TOP_PLATE
 10
489.0631861253933153
 20
136.1723204224892925
 30
0.0
 50
90.0
  0
ENDBLK
  5
11428
  8
0
 62
     2
  0
BLOCK
  8
0
 62
     2
  2
A$CF047BEDD
 70
     0
 10
0.0
 20
0.0
 30
0.0
  3
A$CF047BEDD
  1

  0
INSERT
  5
11471
  8
0
  6
BYBLOCK
  2
TOP_PLATE
 10
489.0631861253933153
 20
136.1723204224892925
 30
0.0
 50
90.0
  0
ENDBLK
  5
11474
  8
0
 62
     2
  0
BLOCK
  8
0
  2
RECT
 70
     0
 10
0.0
 20
0.0
 30
0.0
  3
RECT
  1

  0
SOLID
  5
118FE
  8
0
 10
-0.5
 20
-0.5
 30
0.0
 11
0.5
 21
-0.5
 31
0.0
 12
-0.5
 22
0.5
 32
0.0
 13
0.5
 23
0.5
 33
0.0
  0
ENDBLK
  5
118FF
  8
0
  0
ENDSEC
  0
SECTION
  2
ENTITIES
  0
INSERT
  5
1308C
  8
0
  6
BYBLOCK
  2
BOTTOM_PLATE
 10
951.9257757158252389
 20
-253.2842675032032105
 30
0.0
  0
INSERT
  5
13098
  8
0
  6
BYBLOCK
  2
TOP_PLATE
 10
465.1614267924176147
 20
109.5180482012752066
 30
0.0
 50
270.0
  0
INSERT
  5
130A4
  8
0
  2
BUMPER
 10
1961.9331134047879459
 20
415.3925606878582926
 30
0.0
 50
89.9999999999997442
  0
INSERT
  5
130AA
  8
0
  2
BUMPER
 10
1962.9305810146370277
 20
393.2260663614076179
 30
0.0
 50
89.9999999999997442
  0
INSERT
  5
130BC
  8
0
  6
BYBLOCK
 62
     5
  2
REAR_UPRIGHT
 10
777.8736556031834652
 20
374.5923919036230814
 30
0.0
 50
180.0
  0
INSERT
  5
130C8
  8
0
 62
     2
  2
IR_SPACER_NEW
 10
1281.9102757990590362
 20
103.9844445525162939
 30
0.0
 50
180.1020262890565959
  0
INSERT
  5
130CE
  8
0
 62
     2
  2
IR_SPACER_NEW
 10
565.8088607373623518
 20
-0.0882367058611209
 30
0.0
 50
359.89064781163421
  0
INSERT
  5
130E2
  8
0
  2
CAP
 10
1306.9549700801110248
 20
-1039.1217586904019754
 30
0.0
  0
POLYLINE
  5
134F3
  8
0
  6
BYBLOCK
 66
     1
 10
0.0
 20
0.0
 30
0.0
  0
VERTEX
  5
16308
  8
0
  6
BYBLOCK
 10
670.0911853074942428
 20
34.0
 30
0.0
  0
VERTEX
  5
16309
  8
0
  6
BYBLOCK
 10
670.0911853074942428
 20
250.2937006594274862
 30
0.0
  0
VERTEX
  5
1630A
  8
0
  6
BYBLOCK
 10
963.4999999999998863
 20
250.2937006594274862
 30
0.0
  0
SEQEND
  5
1630B
  8
0
  6
BYBLOCK
  0
LINE
  5
137FD
  8
0
  6
BYBLOCK
 62
     7
 10
963.4999999999998863
 20
34.0
 30
0.0
 11
670.0911853074942428
 21
34.0
 31
0.0
  0
LINE
  5
137FF
  8
0
  6
BYBLOCK
 62
    18
 10
963.4999999999998863
 20
34.0000000000000071
 30
0.0
 11
963.4999999999998863
 21
250.2937006594274862
 31
0.0
  0
ENDSEC
  0
EOF
